SplineFontDB: 3.0
FontName: Epigraf
FullName: Epigraf
FamilyName: SVGFont 2
Weight: Regular
Copyright: 
Version: 1.0
ItalicAngle: 0
UnderlinePosition: 0
UnderlineWidth: 0
Ascent: 819
Descent: 205
InvalidEm: 0
sfntRevision: 0x00010000
woffMajor: 1
woffMinor: 0
LayerCount: 2
Layer: 0 0 "Back" 1
Layer: 1 0 "Fore" 0
HasVMetrics: 1
XUID: [1021 437 -521488251 14824285]
StyleMap: 0x0000
FSType: 8
OS2Version: 3
OS2_WeightWidthSlopeOnly: 0
OS2_UseTypoMetrics: 0
CreationTime: 1455662059
ModificationTime: 1461919396
PfmFamily: 17
TTFWeight: 400
TTFWidth: 5
LineGap: 92
VLineGap: 92
Panose: 2 0 5 9 0 0 0 0 0 0
OS2TypoAscent: 819
OS2TypoAOffset: 0
OS2TypoDescent: -205
OS2TypoDOffset: 0
OS2TypoLinegap: 92
OS2WinAscent: 1024
OS2WinAOffset: 0
OS2WinDescent: 84
OS2WinDOffset: 0
HheadAscent: 1024
HheadAOffset: 0
HheadDescent: -84
HheadDOffset: 0
OS2SubXSize: 665
OS2SubYSize: 716
OS2SubXOff: 0
OS2SubYOff: 143
OS2SupXSize: 665
OS2SupYSize: 716
OS2SupXOff: 0
OS2SupYOff: 490
OS2StrikeYSize: 51
OS2StrikeYPos: 265
OS2CapHeight: 735
OS2Vendor: 'PfEd'
OS2CodePages: 00000001.00000000
OS2UnicodeRanges: 00000001.00000000.00000000.00000000
MarkAttachClasses: 1
DEI: 91125
LangName: 1033 "" "" "" "FontForge 2.0 : font4527 : 17-2-2016" "" "Version 1.0"
Encoding: UnicodeBmp
UnicodeInterp: none
NameList: AGL For New Fonts
DisplaySize: -128
AntiAlias: 0
FitToEm: 0
WinInfo: 1036 14 6
BeginPrivate: 7
BlueValues 15 [-10 0 951 966]
BlueScale 9 0.0319355
BlueShift 1 0
StdHW 3 [9]
StdVW 3 [9]
StemSnapH 6 [9 12]
StemSnapV 6 [9 12]
EndPrivate
Grid
-1014 -12.30078125 m 0
 2058 -12.30078125 l 1024
  Named: "down"
-1024 464.69921875 m 0
 2048 464.69921875 l 1024
  Named: "up"
EndSplineSet
TeXData: 1 0 0 346030 173015 115343 751616 1048576 115343 783286 444596 497025 792723 393216 433062 380633 303038 157286 324010 404750 52429 2506097 1059062 262144
BeginChars: 65537 45

StartChar: .notdef
Encoding: 65536 -1 0
Width: 1024
Flags: HMW
HStem: 0 51<102 922 102 973> 495 51<102 922 102 102>
VStem: 51 51<51 51 51 495> 922 51<51 495 495 495>
LayerCount: 2
Fore
SplineSet
51 0 m 1
 51 546 l 1
 973 546 l 1
 973 0 l 1
 51 0 l 1
102 51 m 1
 922 51 l 1
 922 495 l 1
 102 495 l 1
 102 51 l 1
EndSplineSet
Validated: 1
EndChar

StartChar: uni0000
Encoding: 0 -1 1
AltUni2: 000000.ffffffff.0
Width: 1024
VWidth: 89
Flags: HMW
HStem: 0 1024<0 1000 0 1000>
VStem: 0 1000<0 1024 0 1024>
LayerCount: 2
Fore
SplineSet
0 0 m 1
 0 1024 l 1
 1000 1024 l 1
 1000 0 l 1
 0 0 l 1
EndSplineSet
Validated: 1
EndChar

StartChar: zero
Encoding: 48 48 2
Width: 1020
VWidth: 0
Flags: HMW
HStem: 107 7844 16174 8750
VStem: 290 0 350 0 364 0
LayerCount: 2
Fore
SplineSet
490 1018 m 0
 529 1018 567 1010 604 998 c 0
 652 980 696 952 732 916 c 0
 780 870 818 814 844 754 c 0
 876 685 894 612 902 536 c 0
 906 488 906 438 899 390 c 0
 889 298 860 207 812 127 c 0
 792 93 767 63 740 35 c 0
 696 -6 647 -44 589 -60 c 0
 507 -88 414 -77 338 -35 c 0
 276 -1 224 50 184 109 c 0
 156 155 131 201 116 253 c 0
 108 276 101 300 97 324 c 0
 87 365 84 406 82 448 c 0
 80 494 84 542 91 588 c 0
 97 620 104 652 114 684 c 0
 128 734 152 780 178 826 c 1
 202 860 228 894 260 922 c 0
 318 976 395 1011 474 1017 c 0
 480 1017 484 1018 490 1018 c 0
488 1011 m 0
 483 1011 479 1011 474 1011 c 0
 396 1005 320 970 264 917 c 0
 236 893 214 864 192 834 c 0
 166 793 142 749 128 703 c 0
 114 665 105 626 97 586 c 0
 89 534 85 482 90 430 c 0
 90 392 98 355 104 319 c 0
 117 269 130 219 155 174 c 0
 183 114 224 61 274 18 c 0
 324 -25 385 -57 451 -66 c 0
 529 -77 612 -56 676 -10 c 0
 718 18 752 53 782 93 c 0
 815 139 841 189 860 242 c 0
 883 310 896 381 898 452 c 0
 900 501 894 550 886 598 c 0
 868 694 833 788 771 864 c 0
 747 893 721 920 691 942 c 0
 633 986 560 1011 488 1011 c 0
495 914 m 0
 497 914 498 914 500 914 c 0
 512 912 524 912 536 910 c 0
 616 898 684 838 714 764 c 0
 728 724 734 683 740 641 c 0
 748 569 755 495 751 422 c 0
 747 359 743 296 729 234 c 1
 723 188 702 143 671 108 c 0
 635 65 582 40 528 31 c 0
 479 22 428 34 384 55 c 0
 322 85 279 145 261 210 c 1
 238 313 232 419 236 525 c 0
 238 596 246 667 262 736 c 0
 276 784 303 828 341 860 c 0
 384 896 439 914 495 914 c 0
490 908 m 0
 488 908 486 908 484 908 c 0
 412 905 342 868 302 806 c 1
 260 750 258 680 248 614 c 0
 236 492 239 367 260 246 c 0
 272 164 322 84 402 54 c 0
 450 33 508 27 558 45 c 1
 626 62 680 114 708 178 c 0
 722 216 727 256 734 296 c 0
 742 367 747 439 745 511 c 0
 741 575 737 640 724 703 c 1
 718 757 692 808 652 845 c 0
 609 887 549 908 490 908 c 0
811 495 m 0
 824 495 833 487 836 474 c 0
 837 454 814 440 798 452 c 0
 780 462 787 491 807 495 c 0
 809 495 809 495 811 495 c 0
174 495 m 0
 185 495 195 488 197 476 c 0
 203 456 176 439 160 452 c 0
 142 462 149 491 169 495 c 0
 171 495 172 495 174 495 c 0
175 489 m 0
 173 489 172 488 170 488 c 0
 147 482 156 450 178 454 c 0
 198 457 193 489 175 489 c 0
812 489 m 1
 810 489 810 488 808 488 c 2
 807 488 l 1
 804 487 l 2
 782 479 797 446 817 454 c 0
 836 459 830 489 812 489 c 1
 812 489 l 1
EndSplineSet
Validated: 37
EndChar

StartChar: one
Encoding: 49 49 3
Width: 658
VWidth: 89
Flags: HMW
HStem: -166 12 -82 12 -68 21G 560 12 966 12
VStem: 112 12 332 12 500 12
LayerCount: 2
Fore
SplineSet
328 833 m 0
 306 832 304 869 326 869 c 0
 347 867 352 835 328 833 c 0
326 875 m 2
 326 875 l 1
 326 875 l 2
 295 875 297 824 328 826 c 2
 328 826 l 1
 328 826 l 2
 360 830 354 873 326 875 c 2
408 28 m 0
 404 92 408 158 407 222 c 2
 407 990 l 1
 407 991 l 2
 405 1005 391 1011 380 1014 c 2
 380 1015 l 1
 379 1014 l 2
 342 1012 304 1019 266 1011 c 2
 265 1011 l 1
 265 1011 l 2
 239 1001 246 967 236 951 c 2
 236 950 l 1
 236 950 l 2
 205 860 140 783 56 737 c 2
 56 737 l 1
 56 737 l 2
 29 716 44 676 40 650 c 2
 40 650 l 1
 40 649 l 2
 44 620 74 618 95 620 c 0
 119 621 150 614 167 640 c 1
 247 720 l 1
 247 28 l 2
 244 3 216 14 195 8 c 2
 195 8 l 1
 194 8 l 2
 158 -8 164 -67 202 -76 c 2
 202 -76 l 1
 458 -76 l 1
 458 -76 l 2
 494 -60 492 0 454 10 c 2
 454 10 l 1
 453 10 l 2
 434 8 410 8 408 28 c 0
379 1008 m 0
 389 1005 398 1000 400 990 c 1
 398 1011 400 1011 400 990 c 2
 400 222 l 2
 401 158 398 92 402 28 c 2
 402 28 l 1
 402 28 l 2
 405 1 435 3 453 4 c 1
 483 -4 487 -56 456 -70 c 1
 203 -70 l 1
 173 -62 165 -13 197 2 c 0
 212 6 249 -3 253 28 c 2
 253 28 l 1
 253 735 l 1
 162 644 l 1
 162 644 l 2
 148 620 120 627 94 626 c 2
 94 626 l 1
 94 626 l 2
 73 624 50 627 46 650 c 1
 50 679 37 715 59 732 c 1
 144 778 210 856 242 948 c 1
 254 968 246 997 266 1005 c 0
 302 1013 340 1006 379 1008 c 0
353 86 m 1
 347 116 298 106 306 75 c 1
 302 95 303 96 306 76 c 0
 310 44 363 56 353 86 c 1
347 84 m 2
 355 63 315 54 312 76 c 2
 312 76 l 1
 312 76 l 2
 306 98 343 106 347 84 c 2
 347 84 l 1
 347 84 l 2
EndSplineSet
Validated: 37
EndChar

StartChar: two
Encoding: 50 50 4
Width: 1017
VWidth: 89
Flags: HMW
HStem: -74 10 40 10 77 10 802 10 808 12
VStem: 700 12
LayerCount: 2
Fore
SplineSet
690 877 m 4xe4
 678 849 729 826 735 864 c 4
 739 890 700 901 690 877 c 4xe4
696 874 m 4
 703 891 733 883 729 865 c 4
 725 835 688 856 696 874 c 4
427 8 m 0
 432 -24 490 -12 468 24 c 2
 468 25 l 1
 468 25 l 2
 454 41 425 30 427 8 c 0
434 9 m 0
 432 25 454 31 464 21 c 1
 480 -8 437 -12 434 9 c 0
770 136 m 0
 766 118 759 110 747 108 c 2
 747 108 308 108 268 108 c 1
 300 156 338 196 380 233 c 0
 418 264 456 295 500 317 c 2
 500 317 l 1
 500 317 l 2
 552 349 613 365 669 393 c 2
 669 393 l 1
 669 393 l 2
 751 439 819 512 852 602 c 0
 870 648 885 698 871 748 c 1
 857 822 818 893 758 941 c 0
 700 992 621 1018 544 1016 c 0
 480 1014 416 996 362 962 c 0
 315 934 273 896 243 850 c 0
 208 799 188 738 182 678 c 2
 182 677 l 1
 182 676 l 2
 188 639 213 598 250 586 c 0
 298 566 358 596 380 642 c 0
 394 668 396 701 384 728 c 0
 378 746 366 760 353 772 c 2
 353 773 l 1
 352 773 l 2
 336 781 317 794 299 795 c 1
 314 821 330 842 354 859 c 2
 354 859 l 1
 355 859 l 2
 426 917 538 915 608 856 c 2
 608 856 l 1
 608 856 l 2
 652 824 678 772 686 720 c 0
 692 659 674 598 638 548 c 0
 619 522 595 500 567 482 c 0
 533 458 491 454 453 434 c 1
 405 416 364 387 324 357 c 2
 324 357 l 1
 324 357 l 2
 282 322 240 284 210 238 c 0
 152 160 121 59 108 -36 c 0
 106 -50 98 -77 126 -69 c 1
 754 -69 l 1
 755 -68 l 2
 780 -61 780 -24 789 -8 c 2
 789 -8 l 1
 789 -8 l 2
 809 44 832 97 852 150 c 2
 852 150 l 1
 852 150 l 2
 854 178 818 196 796 181 c 1
 796 181 770 148 770 136 c 0
260 106 m 2
 256 102 l 1
 748 102 l 2
 765 105 772 116 776 136 c 2
 776 136 l 1
 776 136 l 2
 777 153 782 170 798 176 c 2
 799 176 l 1
 799 176 l 2
 817 188 848 174 846 152 c 1
 827 100 804 46 784 -6 c 1
 793 12 794 12 784 -6 c 0
 772 -26 774 -55 754 -62 c 1
 126 -62 l 1
 125 -62 l 2
 105 -68 112 -54 114 -36 c 0
 127 58 159 158 215 234 c 2
 215 234 l 1
 215 234 l 2
 245 280 286 317 328 352 c 1
 312 340 311 340 327 352 c 0
 367 382 409 411 455 428 c 2
 456 428 l 1
 456 428 l 2
 492 447 534 452 570 476 c 0
 598 494 624 517 644 544 c 0
 682 595 698 660 692 722 c 2
 692 722 l 1
 692 722 l 2
 684 776 657 829 612 862 c 1
 628 849 628 847 612 861 c 0
 540 922 425 924 351 864 c 1
 367 876 367 876 351 864 c 0
 325 846 306 821 291 793 c 2
 288 788 l 1
 294 788 l 2
 314 789 330 778 349 768 c 1
 361 756 373 742 379 726 c 2
 379 726 l 1
 379 726 l 2
 389 701 386 669 374 645 c 0
 353 601 296 574 252 592 c 2
 252 592 l 1
 252 592 l 2
 218 602 195 641 189 677 c 1
 195 736 214 796 248 846 c 0
 278 891 319 929 365 957 c 0
 419 991 481 1008 544 1010 c 0
 620 1012 696 986 754 936 c 0
 812 890 851 820 865 746 c 2
 865 746 l 1
 865 746 l 2
 878 698 865 650 847 604 c 0
 815 516 747 444 666 398 c 1
 684 408 684 408 666 398 c 0
 612 370 552 355 498 322 c 1
 516 332 516 331 498 322 c 0
 454 300 414 269 376 238 c 0
 332 200 292 156 260 106 c 2
EndSplineSet
Validated: 37
EndChar

StartChar: three
Encoding: 51 51 5
Width: 992
VWidth: 0
Flags: HMW
HStem: -167 8 926 8 1120 8 1126 8
VStem: 180 8 343 8 888 8
LayerCount: 2
Fore
SplineSet
316 -30 m 1xce
 346 -46 379 -54 411 -62 c 0
 411 -62 l 1
 411 -62 l 0
 467 -71 525 -68 581 -56 c 0
 581 -56 l 1
 581 -56 l 0
 601 -50 618 -39 636 -35 c 0
 637 -35 l 1
 637 -35 l 0
 671 -21 701 0 729 22 c 0
 729 22 l 1
 729 22 l 0
 742 34 756 46 766 62 c 1
 819 124 847 233 844 309 c 1
 842 385 829 460 772 510 c 5
 750 544 700 566 672 590 c 0
 672 590 l 1
 672 590 l 0
 645 605 614 619 586 628 c 1
 580 642 600 652 608 668 c 1
 686 774 762 878 838 984 c 0
 839 984 l 1
 839 984 l 0
 841 990 844 996 844 1002 c 0
 847 1030 826 1045 798 1048 c 0
 798 1048 l 1
 267 1048 l 1
 266 1048 l 2
 248 1046 243 1028 238 1016 c 1
 215 961 190 906 168 850 c 0
 168 850 l 1
 168 850 l 0
 167 836 173 824 183 818 c 0
 199 808 224 810 234 826 c 1
 254 840 240 865 258 871 c 0
 258 871 l 1
 258 872 l 0
 274 880 294 873 314 875 c 1
 619 875 l 1
 554 783 490 690 424 600 c 0
 424 600 l 1
 424 599 l 0
 422 587 420 569 436 562 c 1
 454 552 476 560 492 552 c 0
 492 552 l 1
 492 552 l 0
 524 540 556 532 580 508 c 0
 580 508 l 1
 580 508 l 0
 609 486 631 457 646 424 c 0
 647 424 l 1
 647 424 l 0
 659 406 659 382 666 362 c 1
 667 336 671 313 664 289 c 0
 664 288 l 1
 664 288 l 0
 658 218 620 154 586 106 c 1
 545 79 497 52 454 56 c 0
 454 56 l 1
 453 56 l 0
 417 51 374 60 342 72 c 1
 314 84 289 99 266 117 c 1
 249 133 233 149 221 169 c 0
 221 170 l 1
 221 170 l 0
 217 176 208 186 208 190 c 1
 210 190 212 190 216 188 c 0
 216 187 l 1
 217 187 l 0
 246 185 276 191 300 208 c 1
 318 216 326 232 336 244 c 0
 337 244 l 1
 337 245 l 0
 341 263 352 284 346 304 c 1
 346 324 334 337 328 352 c 0
 328 353 l 1
 327 354 l 0
 311 364 299 383 278 387 c 1
 255 400 228 394 206 394 c 0
 206 394 l 1
 205 394 l 0
 165 380 126 350 120 306 c 1
 112 288 119 280 118 264 c 0
 118 264 l 1
 118 263 l 0
 119 223 124 182 142 146 c 1
 152 110 177 85 197 58 c 0
 198 58 l 1
 198 58 l 0
 232 24 269 -12 316 -30 c 1xce
267 1041 m 1
 798 1041 l 1
 797 1041 797 1041 798 1041 c 0
 825 1038 839 1024 837 1002 c 0
 837 997 835 993 833 987 c 1
 757 882 679 777 602 672 c 0
 602 671 l 1
 602 671 l 0
 596 659 570 643 582 623 c 0
 582 622 l 1
 584 622 l 0
 612 613 642 599 669 584 c 1
 668 584 668 584 669 584 c 0
 696 560 745 538 767 506 c 5
 823 458 836 382 838 308 c 1
 841 234 813 125 762 66 c 0
 762 66 l 1
 761 66 l 0
 753 50 738 39 724 26 c 1
 725 26 726 26 725 26 c 0
 697 4 667 -16 634 -29 c 1
 635 -29 636 -28 635 -28 c 0
 615 -33 598 -44 580 -49 c 1
 581 -49 581 -49 580 -49 c 0
 525 -61 468 -64 412 -55 c 1
 413 -55 413 -56 412 -56 c 0
 380 -48 347 -40 318 -24 c 0
 318 -24 l 1
 318 -24 l 0
 272 -6 236 28 202 62 c 1
 202 61 202 61 202 62 c 0
 181 90 157 115 148 148 c 0
 148 148 l 1
 148 148 l 0
 130 184 125 224 124 264 c 1
 124 263 124 262 124 263 c 0
 125 281 120 287 126 303 c 0
 127 304 l 1
 127 304 l 0
 133 346 169 374 207 388 c 1
 229 388 254 393 274 381 c 0
 275 380 l 1
 276 380 l 0
 294 376 303 360 322 348 c 1
 328 332 340 320 340 304 c 0
 340 303 l 1
 340 302 l 0
 346 284 335 267 331 247 c 1
 321 235 311 219 296 213 c 0
 296 213 l 1
 296 213 l 0
 274 197 246 192 218 194 c 1
 212 196 204 198 202 192 c 0
 200 184 212 172 216 166 c 1
 228 146 245 128 262 112 c 0
 262 112 l 1
 262 112 l 0
 286 94 312 78 340 66 c 0
 340 66 l 1
 340 66 l 0
 372 54 416 45 454 50 c 1
 500 46 550 75 590 101 c 0
 590 101 l 1
 590 102 l 0
 624 150 665 213 671 287 c 1
 679 313 672 339 672 363 c 0
 672 364 l 1
 672 364 l 0
 665 384 665 408 652 428 c 1
 652 427 652 426 652 427 c 0
 638 446 620 498 594 510 c 0
 592 511 590 511 588 512 c 1
 589 512 588 511 588 512 c 0
 570 540 525 540 494 558 c 1
 495 558 495 558 494 558 c 0
 475 568 454 560 440 568 c 0
 439 568 l 1
 439 568 l 0
 428 572 428 585 430 597 c 1
 496 688 562 784 628 876 c 0
 632 882 l 1
 314 882 l 1
 314 882 l 0
 296 880 274 887 256 877 c 1
 257 877 257 877 256 877 c 0
 234 869 243 840 230 832 c 0
 230 831 l 1
 229 830 l 0
 221 817 201 816 187 824 c 0
 179 829 174 836 174 848 c 1
 195 902 221 959 244 1014 c 1
 250 1028 254 1039 267 1041 c 1
688 142 m 0
 696 189 755 166 750 136 c 0
 740 95 686 111 688 142 c 0
760 134 m 2
 760 134 l 1
 760 134 l 0
 768 179 688 204 678 144 c 0
 678 144 l 1
 678 144 l 0
 675 101 746 80 760 134 c 2
530 980 m 0
 518 944 470 967 468 988 c 1
 476 1008 488 1018 500 1018 c 0
 522 1016 534 998 530 980 c 0
500 1029 m 2
 500 1029 l 1
 500 1029 l 0
 482 1029 464 1011 458 990 c 0
 458 990 l 1
 458 989 l 0
 458 955 524 929 540 977 c 0
 540 977 l 1
 540 977 l 0
 546 1003 528 1027 500 1029 c 2
EndSplineSet
Validated: 37
EndChar

StartChar: four
Encoding: 52 52 6
Width: 988
VWidth: 0
Flags: HMW
HStem: -57 6<570 733 570 733 570 734 570 734 570 734> 160 6<238 543 239 537 537 537> 257 6<276 537> 957 6<570 570 571 571>
VStem: 454 6<902 903 902 903 902 903> 537 6<160 166 263 428 263 263> 606 6<944 944> 682 6<113 160 113 160 114 160 114 165 286 501 286 287>
LayerCount: 2
Fore
SplineSet
513 22 m 0
 493 26 476 12 472 -6 c 1
 460 -26 475 -46 486 -58 c 0
 487 -60 l 1
 488 -60 l 0
 518 -66 550 -60 580 -62 c 0
 580 -62 l 1
 581 -62 l 0
 635 -61 692 -65 746 -62 c 0
 746 -62 l 1
 746 -61 l 0
 772 -48 775 -14 761 8 c 0
 761 8 l 1
 760 8 l 0
 748 22 732 24 716 22 c 0
 716 22 l 1
 716 22 l 0
 702 20 695 38 697 52 c 0
 697 52 l 1
 697 163 l 1
 748 169 792 189 836 212 c 0
 836 212 l 1
 836 212 l 0
 858 226 880 241 900 259 c 0
 902 260 l 1
 902 261 l 0
 905 282 883 294 877 308 c 0
 876 308 l 1
 876 309 l 0
 866 319 861 342 842 346 c 0
 840 346 l 1
 839 345 l 0
 817 332 798 311 776 299 c 0
 751 287 724 277 697 272 c 1
 697 520 l 1
 696 520 l 0
 690 534 679 544 664 548 c 0
 646 553 627 539 618 526 c 0
 618 526 l 1
 618 525 l 0
 611 485 606 471 564 467 c 0
 563 467 l 1
 562 467 l 0
 533 454 545 418 543 398 c 0
 543 398 l 1
 543 270 l 1
 256 270 l 1
 245 277 251 288 262 294 c 0
 262 294 l 1
 262 295 l 0
 304 331 350 364 384 408 c 1
 410 441 440 474 462 511 c 1
 510 586 547 668 571 754 c 0
 571 754 l 1
 571 754 l 0
 579 796 594 838 594 882 c 0
 597 916 602 950 598 984 c 0
 598 984 l 1
 598 984 l 0
 584 1009 551 1000 532 1002 c 0
 532 1002 l 1
 532 1002 l 0
 506 1001 476 1004 450 998 c 0
 450 998 l 1
 450 998 l 0
 429 986 438 961 436 946 c 0
 436 946 l 1
 436 945 l 0
 438 885 434 826 422 768 c 0
 412 737 408 704 394 676 c 0
 394 676 l 1
 394 676 l 0
 384 639 365 605 348 570 c 0
 306 504 258 441 198 391 c 0
 198 391 l 1
 198 391 l 0
 172 363 145 336 124 304 c 1
 96 261 77 212 62 164 c 0
 56 150 65 134 73 125 c 0
 74 125 l 1
 74 125 l 0
 86 113 104 112 120 114 c 0
 120 114 l 1
 120 114 l 0
 135 118 151 124 159 140 c 0
 172 157 192 167 213 163 c 0
 214 162 l 1
 543 162 l 1
 543 116 545 76 542 34 c 1
 542 34 525 20 513 22 c 0
779 293 m 0
 803 305 821 326 841 338 c 1
 852 334 859 317 870 305 c 1
 878 288 895 279 895 263 c 1
 876 246 855 232 833 218 c 1
 856 231 856 230 833 218 c 0
 789 195 743 175 693 170 c 0
 690 169 l 1
 690 53 l 1
 688 38 696 12 718 16 c 1
 692 12 691 13 717 16 c 0
 733 18 746 16 756 4 c 1
 740 25 740 26 755 4 c 0
 767 -14 765 -42 744 -54 c 1
 692 -56 634 -55 580 -56 c 1
 606 -56 607 -58 581 -56 c 0
 551 -54 519 -59 490 -53 c 1
 479 -40 470 -22 479 -8 c 0
 479 -8 l 1
 480 -8 l 0
 482 8 496 19 512 16 c 0
 512 16 l 1
 512 16 l 0
 526 14 542 15 548 33 c 0
 548 33 l 1
 548 34 l 0
 551 78 549 122 550 166 c 0
 550 170 l 1
 214 170 l 1
 240 168 240 166 214 170 c 0
 190 174 168 163 154 144 c 0
 153 144 l 1
 153 144 l 0
 147 130 133 125 118 121 c 1
 144 127 144 126 118 122 c 0
 104 120 88 120 78 130 c 1
 96 111 95 110 78 130 c 0
 70 139 64 152 68 162 c 0
 68 162 l 1
 68 162 l 0
 83 210 102 258 130 300 c 1
 150 332 177 358 203 386 c 1
 184 368 182 369 202 386 c 0
 262 438 311 501 353 567 c 0
 354 568 l 1
 354 568 l 0
 370 602 391 636 401 674 c 1
 391 650 389 650 401 674 c 0
 415 704 418 736 428 766 c 0
 428 766 l 1
 429 766 l 0
 441 825 446 885 444 945 c 1
 443 919 440 918 443 944 c 0
 445 964 436 982 452 992 c 1
 476 997 505 993 532 994 c 1
 506 995 506 996 532 994 c 0
 555 992 579 1002 591 982 c 1
 595 950 590 916 587 882 c 0
 587 882 l 1
 587 882 l 0
 587 839 572 799 564 756 c 1
 570 782 571 782 564 756 c 0
 540 670 503 589 456 514 c 1
 434 478 406 446 379 412 c 1
 345 368 300 335 258 300 c 1
 246 292 234 274 254 264 c 0
 254 264 l 1
 550 264 l 1
 550 398 l 1
 548 372 548 372 550 398 c 0
 552 422 542 449 564 460 c 1
 607 464 617 481 624 523 c 1
 632 533 648 544 662 540 c 0
 675 536 684 531 690 518 c 1
 690 264 l 1
 694 264 l 0
 724 268 753 279 779 293 c 0
646 70 m 0
 690 102 627 186 588 120 c 0
 587 120 l 1
 587 120 l 0
 576 89 615 40 646 70 c 0
640 78 m 2
 622 58 589 92 596 116 c 1
 628 169 670 98 640 78 c 0
 640 78 l 1
 640 78 l 2
522 858 m 4
 529 804 462 820 462 852 c 5
 471 890 514 886 522 858 c 4
532 860 m 6
 532 860 l 5
 532 861 l 4
 520 901 462 901 452 854 c 4
 452 854 l 5
 452 854 l 4
 450 805 542 794 532 860 c 6
EndSplineSet
Validated: 37
EndChar

StartChar: five
Encoding: 53 53 7
Width: 868
VWidth: 0
Flags: HMW
HStem: 112 6 623 6<446 447> 793 6<260 260> 951 6<186 186 186 596 185 596>
VStem: 158 6<394 920 394 920 397 919> 254 6<585 793 585 799>
LayerCount: 2
Fore
SplineSet
300 1055 m 1048
698 830 m 2,0,1
 712 814 730 818 747 826 c 1,2,-1
 747 826 l 1,3,-1
 748 826 l 1,4,5
 771 847 746 877 740 896 c 1,6,-1
 740 896 l 1,7,-1
 740 896 l 1,8,9
 719 944 701 993 678 1039 c 1,10,-1
 678 1039 l 1,11,-1
 678 1039 l 1,12,13
 659 1063 625 1052 602 1055 c 1,14,-1
 602 1055 l 1,15,-1
 300 1055 l 0,0,0
 168 1055 l 1,16,-1
 168 1055 l 1,17,18
 148 1052 137 1034 140 1014 c 2,19,-1
 140 461 l 1,20,-1
 140 460 l 1,21,22
 163 427 213 426 241 454 c 2,23,-1
 242 454 l 1,24,-1
 242 454 l 1,25,26
 254 473 263 495 278 512 c 1,27,-1
 278 512 l 1,28,-1
 279 512 l 1,29,30
 316 562 378 596 442 586 c 0,31,32
 498 576 547 536 575 488 c 0,33,34
 598 448 614 404 617 358 c 0,35,36
 625 287 608 163 566 106 c 0,37,38
 548 80 522 58 494 42 c 0,39,40
 442 16 378 19 330 54 c 0,41,42
 318 64 300 72 302 80 c 0,43,44
 320 106 328 138 320 168 c 0,45,46
 308 223 247 261 192 246 c 0,47,48
 146 236 106 188 116 138 c 1,49,-1
 116 138 l 1,50,-1
 116 138 l 1,51,52
 128 97 143 52 178 24 c 0,53,54
 222 -18 276 -49 335 -64 c 0,55,56
 376 -76 421 -79 463 -73 c 0,57,58
 515 -67 564 -48 608 -22 c 1,59,-1
 608 -22 l 1,60,-1
 608 -22 l 1,61,62
 650 6 692 42 718 86 c 0,63,64
 754 138 774 249 780 311 c 0,65,66
 784 359 778 406 764 452 c 0,67,68
 749 496 729 534 706 566 c 1,69,-1
 706 566 l 1,70,-1
 706 566 l 1,71,72
 667 614 618 654 562 680 c 0,73,74
 525 696 485 704 445 708 c 1,75,-1
 445 708 l 1,76,-1
 445 708 l 1,77,78
 412 709 380 708 348 700 c 0,79,80
 312 694 278 630 248 612 c 1,81,-1
 248 882 l 1,82,-1
 651 882 l 1,83,84
 666 876 698 830 698 830 c 2,0,1
702 564 m 1,85,86
 723 532 743 494 758 450 c 0,87,88
 772 406 777 357 774 311 c 0,89,90
 768 249 748 139 713 89 c 1,91,-1
 713 89 l 1,92,-1
 713 89 l 1,93,94
 687 45 648 11 606 -17 c 1,95,96
 624 -5 624 -7 606 -17 c 1,97,98
 562 -43 513 -60 463 -66 c 0,99,100
 421 -72 377 -70 336 -58 c 0,101,102
 278 -43 226 -12 182 30 c 1,103,-1
 182 30 l 1,104,-1
 182 30 l 1,105,106
 148 58 134 99 122 140 c 1,107,108
 126 120 126 120 122 140 c 1,109,110
 114 186 150 230 194 240 c 0,111,112
 244 254 302 219 314 167 c 0,113,114
 322 139 314 108 297 84 c 1,115,-1
 297 84 l 1,116,-1
 296 82 l 1,117,118
 290 66 318 58 326 50 c 1,119,-1
 326 48 l 1,120,-1
 326 48 l 1,121,122
 376 12 442 9 496 37 c 1,123,-1
 496 37 l 1,124,-1
 498 37 l 1,125,126
 526 54 551 74 570 102 c 0,127,128
 614 160 632 286 624 358 c 0,129,130
 621 406 604 452 580 492 c 0,131,132
 552 542 502 582 444 592 c 0,133,134
 378 602 312 569 274 516 c 1,135,136
 286 532 288 532 274 516 c 1,137,138
 259 498 248 476 236 459 c 0,139,140
 212 433 169 435 146 463 c 1,141,-1
 146 1016 l 1,142,-1
 146 1016 l 1,143,144
 142 1032 153 1046 169 1048 c 1,145,146
 148 1047 148 1048 169 1048 c 1,147,-1
 602 1048 l 1,148,149
 581 1049 582 1050 602 1048 c 1,150,151
 628 1045 655 1057 673 1036 c 1,152,153
 696 990 715 941 736 893 c 1,154,155
 728 912 728 913 734 893 c 0,156,157
 742 870 761 850 744 832 c 1,158,159
 729 826 708 826 696 840 c 1,160,-1
 695 840 l 1,161,-1
 695 840 l 1,162,163
 681 852 681 885 653 888 c 1,164,-1
 653 888 l 1,165,-1
 241 888 l 1,166,-1
 241 600 l 1,167,-1
 245 604 l 2,168,169
 277 624 313 688 350 694 c 1,170,-1
 350 694 l 1,171,-1
 350 694 l 1,172,173
 380 702 412 703 444 702 c 1,174,175
 423 703 424 704 444 702 c 1,176,177
 483 698 524 690 560 674 c 0,178,179
 615 650 664 610 702 564 c 1,85,86
404 944 m 4,180,181
 428 919 468 962 426 984 c 5,182,-1
 426 984 l 5,183,-1
 426 984 l 5,184,185
 406 990 390 959 404 944 c 4,180,181
409 949 m 4,186,187
 405 951 405 958 405 962 c 4,0,0
 407 972 416 981 424 978 c 5,188,189
 445 990 457 920 409 949 c 4,186,187
656 112 m 0,190,191
 663 110 669 110 675 114 c 0,0,0
 693 125 696 158 660 158 c 1,192,-1
 660 158 l 1,193,-1
 660 158 l 1,194,195
 637 156 635 118 656 112 c 0,190,191
662 152 m 0,196,197
 701 152 679 112 660 118 c 0,198,199
 645 122 646 150 662 152 c 0,196,197
EndSplineSet
Validated: 37
EndChar

StartChar: six
Encoding: 54 54 8
Width: 914
VWidth: 0
Flags: HMW
HStem: 149 6<737 737> 1000 6<520 539> 1072 6<787 787 787 787 787 787>
VStem: 380 6<586 586> 529 6<809 809> 1079 6
LayerCount: 2
Fore
SplineSet
382 -84 m 4
 462 -112 546 -109 620 -74 c 5
 716 -40 799 42 830 135 c 4
 830 135 l 5
 830 135 l 4
 862 271 851 381 769 482 c 4
 769 482 l 5
 769 482 l 4
 729 526 674 563 618 583 c 4
 618 584 l 5
 618 584 l 4
 580 592 549 604 513 600 c 4
 471 605 432 591 394 580 c 4
 394 580 l 5
 394 580 l 4
 362 568 333 550 305 532 c 4
 305 532 l 5
 304 532 l 4
 292 516 298 541 292 557 c 5
 286 583 292 609 290 636 c 4
 291 696 322 753 363 802 c 4
 403 850 457 888 519 900 c 4
 520 900 l 5
 520 900 l 4
 547 910 576 906 606 908 c 4
 620 908 634 903 646 900 c 5
 618 882 602 852 600 820 c 4
 594 780 616 732 648 716 c 4
 679 698 716 695 746 708 c 4
 812 728 847 788 829 830 c 5
 815 903 774 969 742 997 c 4
 716 1011 687 1021 659 1029 c 4
 659 1030 l 5
 658 1030 l 4
 604 1035 548 1044 500 1030 c 4
 494 1028 487 1027 480 1026 c 4
 427 1017 356 1011 318 977 c 5
 260 935 225 876 193 818 c 4
 159 784 157 732 137 697 c 4
 137 697 l 5
 137 696 l 4
 127 648 117 601 110 553 c 5
 98 494 94 432 100 378 c 5
 104 320 112 262 128 211 c 5
 146 148 172 94 206 44 c 4
 206 44 l 5
 206 44 l 4
 256 -14 308 -70 382 -84 c 4
512 594 m 6
 513 594 l 5
 514 594 l 4
 548 598 579 586 617 578 c 5
 583 588 582 590 616 578 c 4
 672 558 725 522 765 478 c 5
 742 505 742 506 764 478 c 4
 845 378 856 272 824 136 c 5
 834 170 836 170 824 136 c 4
 794 45 712 -36 618 -69 c 5
 546 -104 463 -106 383 -78 c 4
 382 -78 l 5
 382 -78 l 4
 311 -65 260 -11 210 47 c 5
 232 19 230 16 210 46 c 4
 176 96 150 150 132 212 c 5
 116 262 109 320 105 378 c 5
 99 432 104 494 116 552 c 5
 123 600 132 648 142 696 c 5
 132 662 131 662 142 696 c 4
 162 731 173 774 198 814 c 4
 211 837 228 870 244 892 c 4
 268 924 286 947 320 973 c 5
 361 1010 443 1013 496 1024 c 4
 498 1024 500 1025 502 1025 c 4
 502 1025 l 5
 502 1025 l 4
 547 1039 604 1029 658 1024 c 5
 623 1030 624 1034 658 1024 c 4
 686 1016 713 1006 739 992 c 4
 739 992 l 5
 739 992 l 4
 771 965 811 899 824 829 c 5
 841 790 807 731 744 712 c 4
 716 700 680 704 650 721 c 4
 650 721 l 5
 650 721 l 4
 620 736 600 782 605 820 c 4
 605 820 l 5
 605 820 l 4
 607 852 626 883 655 898 c 4
 662 902 l 5
 654 903 l 4
 638 907 623 912 606 912 c 4
 606 912 l 5
 605 912 l 4
 577 910 547 917 518 906 c 5
 552 916 553 912 518 906 c 4
 454 894 399 855 358 806 c 4
 358 805 l 5
 358 805 l 4
 316 755 285 698 284 636 c 4
 284 636 l 5
 284 636 l 4
 286 610 281 583 287 556 c 4
 287 556 l 5
 287 555 l 4
 290 549 290 504 308 528 c 5
 335 546 364 565 395 576 c 5
 361 565 361 566 395 576 c 4
 433 587 472 599 512 594 c 6
441 472 m 6
 440 472 l 5
 440 472 l 4
 252 388 260 66 494 20 c 4
 494 19 l 5
 494 19 l 4
 602 32 669 184 654 308 c 4
 642 406 577 487 441 472 c 6
442 467 m 5
 575 481 636 403 648 308 c 4
 664 185 596 37 494 24 c 5
 265 70 260 385 442 467 c 5
722 40 m 4
 767 76 690 162 654 81 c 4
 654 81 l 5
 654 80 l 4
 646 42 694 15 722 40 c 4
716 48 m 6
 694 29 660 52 664 78 c 5
 694 144 744 70 716 48 c 4
 716 48 l 5
 716 48 l 6
322 819 m 4
 345 837 336 869 317 885 c 4
 299 900 272 901 254 861 c 4
 254 860 l 5
 254 860 l 4
 245 822 294 794 322 819 c 4
315 827 m 6
 293 808 259 831 264 857 c 5
 294 923 344 850 316 828 c 4
 315 828 l 5
 315 827 l 6
EndSplineSet
Validated: 37
EndChar

StartChar: seven
Encoding: 55 55 9
Width: 1024
VWidth: 0
Flags: HMW
HStem: -96 6<264 518 266 518 266 518 266 518> 740 6<146 156> 790 6<231 678 231 664 664 664> 970 6
VStem: 312 6<23 32 32 32 32 32>
LayerCount: 2
Fore
SplineSet
792 771 m 4
 854 844 914 918 962 1000 c 5
 962 1000 l 5
 962 1002 l 5
 975 1032 938 1048 916 1044 c 5
 225 1044 l 5
 225 1044 l 5
 204 1040 196 1020 190 1004 c 4
 166 946 140 890 116 832 c 5
 116 832 l 5
 116 830 l 6
 117 809 137 795 158 796 c 4
 179 796 196 812 202 832 c 4
 208 850 229 852 247 850 c 5
 247 850 l 5
 701 850 l 5
 641 792 592 730 546 664 c 4
 503 601 469 534 438 464 c 4
 410 404 388 340 370 277 c 4
 350 204 341 129 333 54 c 5
 333 54 l 5
 333 54 l 5
 333 34 331 9 310 7 c 4
 292 8 268 9 257 -13 c 4
 243 -37 254 -74 282 -82 c 5
 282 -82 l 5
 549 -82 l 5
 549 -81 l 5
 579 -68 588 -25 562 -3 c 5
 556 -7 503 16 502 18 c 4
 491 36 504 60 506 84 c 4
 527 225 572 363 630 493 c 4
 666 575 715 661 767 737 c 4
 775 748 784 760 792 771 c 4
786 773 m 5
 780 766 l 6
 720 681 667 591 624 496 c 4
 566 365 521 228 500 86 c 5
 500 86 l 5
 500 86 l 5
 499 65 489 40 495 16 c 5
 495 16 l 5
 495 16 l 5
 508 -12 545 8 558 -8 c 5
 558 -8 l 5
 559 -8 l 5
 581 -26 574 -64 548 -76 c 5
 284 -76 l 5
 262 -70 250 -37 262 -16 c 5
 262 -16 l 5
 264 -16 l 5
 273 2 292 1 310 0 c 5
 310 0 l 5
 311 0 l 6
 339 2 340 36 340 54 c 5
 339 32 338 33 340 54 c 5
 348 129 357 202 377 275 c 4
 395 338 415 401 443 461 c 4
 474 531 509 598 552 660 c 4
 600 728 651 792 711 850 c 6
 716 856 l 5
 247 856 l 5
 269 855 268 852 247 856 c 5
 229 858 204 854 196 832 c 5
 196 832 l 5
 196 832 l 5
 192 816 176 803 158 803 c 5
 158 803 l 5
 158 803 l 5
 140 802 125 812 124 830 c 5
 148 886 172 944 196 1002 c 5
 196 1002 l 5
 196 1002 l 5
 202 1018 210 1036 226 1038 c 5
 204 1036 203 1038 225 1038 c 6
 916 1038 l 5
 917 1038 l 5
 938 1042 966 1026 956 1004 c 5
 966 1022 967 1022 956 1004 c 5
 908 922 848 847 786 774 c 5
 786 773 l 5
522 948 m 4
 514 960 520 975 532 977 c 4
 580 975 540 928 522 948 c 4
516 944 m 5
 517 944 l 5
 545 913 590 982 532 984 c 6
 532 984 l 5
 532 984 l 5
 514 980 506 958 516 944 c 5
398 70 m 5
 398 68 l 5
 420 34 476 89 426 105 c 5
 426 105 l 5
 423 105 l 6
 402 109 392 86 398 70 c 5
404 72 m 5
 400 86 409 99 422 98 c 4
 462 86 420 50 404 72 c 5
EndSplineSet
Validated: 37
EndChar

StartChar: eight
Encoding: 56 56 10
Width: 1024
VWidth: 0
Flags: HMW
HStem: -109 6<544 566> 0 6<478 478> 413 6<454 472>
VStem: 221 6 837 6<712 712>
LayerCount: 2
Fore
SplineSet
658 355 m 4
 691 323 718 284 734 242 c 5
 730 209 728 176 710 150 c 5
 710 150 l 5
 708 150 l 5
 686 105 644 70 598 50 c 4
 558 34 513 30 470 36 c 4
 427 44 384 61 352 91 c 4
 321 119 298 156 288 196 c 4
 282 228 280 261 290 292 c 5
 290 292 l 5
 290 292 l 5
 308 367 372 425 446 443 c 5
 479 443 554 439 658 355 c 4
570 420 m 4
 559 424 550 430 539 434 c 5
 539 434 l 5
 538 434 l 5
 507 442 476 450 444 450 c 5
 444 450 l 5
 444 450 l 5
 367 432 302 369 284 292 c 5
 290 313 290 313 284 292 c 5
 273 260 276 226 282 194 c 5
 282 194 l 5
 282 194 l 5
 292 152 316 115 348 87 c 4
 381 56 424 38 468 30 c 4
 512 24 558 29 600 45 c 4
 648 65 691 98 715 146 c 5
 704 128 703 128 715 146 c 5
 735 174 736 209 740 242 c 6
 740 243 l 5
 740 243 l 5
 722 287 695 327 662 360 c 5
 662 360 l 5
 662 360 l 5
 634 384 604 404 570 420 c 4
275 568 m 4
 299 536 331 514 364 493 c 5
 364 493 l 5
 365 493 l 6
 371 492 373 490 374 490 c 5
 368 486 358 484 350 480 c 4
 292 459 239 421 201 373 c 4
 167 333 147 284 143 232 c 4
 141 199 147 165 157 134 c 5
 157 134 l 5
 157 134 l 5
 177 84 209 42 253 10 c 5
 295 -26 348 -46 398 -64 c 5
 399 -64 l 5
 399 -64 l 5
 443 -74 488 -81 534 -79 c 4
 577 -79 621 -72 661 -60 c 5
 661 -60 l 5
 661 -60 l 5
 713 -42 764 -20 804 18 c 4
 848 56 881 108 895 164 c 4
 906 214 900 268 878 316 c 4
 860 354 834 386 803 414 c 4
 777 438 746 456 716 472 c 5
 715 472 l 5
 715 472 l 5
 701 478 684 482 671 488 c 5
 699 502 722 524 746 544 c 5
 746 544 l 5
 746 544 l 5
 776 572 800 607 814 647 c 4
 826 677 833 708 834 740 c 4
 836 796 818 852 790 900 c 4
 768 935 740 966 704 988 c 4
 620 1048 507 1061 411 1026 c 4
 359 1008 312 975 277 933 c 4
 237 885 213 826 211 764 c 4
 207 694 230 622 275 568 c 4
367 498 m 5
 335 519 303 542 279 573 c 5
 279 573 l 5
 279 573 l 5
 235 626 212 696 216 764 c 4
 218 824 242 882 282 928 c 4
 316 970 364 1002 414 1020 c 4
 508 1054 618 1042 700 982 c 5
 700 982 l 5
 700 982 l 5
 735 961 762 930 784 896 c 4
 812 850 829 796 827 742 c 4
 826 711 820 677 808 649 c 4
 794 611 772 576 742 548 c 5
 758 562 758 562 742 548 c 5
 716 526 691 505 661 492 c 6
 654 488 l 5
 661 485 l 6
 679 477 696 471 712 465 c 5
 692 474 694 475 712 465 c 5
 742 449 772 434 798 410 c 4
 829 382 856 352 872 314 c 4
 893 269 899 216 888 166 c 4
 875 111 843 62 800 24 c 4
 760 -12 708 -35 658 -53 c 5
 679 -47 681 -47 660 -53 c 4
 620 -65 576 -72 534 -72 c 6
 534 -72 l 5
 534 -72 l 5
 489 -74 444 -68 400 -58 c 5
 421 -64 420 -64 400 -58 c 5
 350 -40 297 -22 257 13 c 5
 257 14 l 5
 256 14 l 5
 213 45 184 88 164 136 c 5
 172 116 170 115 164 136 c 5
 154 167 148 199 150 231 c 4
 154 281 173 332 206 370 c 4
 244 418 296 453 353 474 c 5
 353 474 l 5
 353 474 l 5
 362 478 403 489 367 498 c 5
710 852 m 4
 726 824 738 792 732 761 c 5
 732 761 l 5
 732 761 l 5
 728 721 705 684 673 660 c 5
 673 660 l 5
 673 660 l 5
 652 642 626 633 600 625 c 5
 536 621 472 640 426 682 c 4
 402 704 381 731 370 761 c 5
 370 761 l 5
 370 761 l 5
 359 777 366 797 370 817 c 4
 383 857 416 891 454 911 c 4
 502 932 554 940 604 924 c 5
 604 924 l 5
 605 924 l 5
 648 915 684 887 710 852 c 4
364 818 m 5
 364 818 l 5
 360 800 352 777 364 759 c 5
 376 727 398 702 422 678 c 4
 470 634 536 614 600 618 c 6
 600 618 l 5
 600 618 l 5
 626 626 656 638 678 656 c 5
 662 643 660 643 678 656 c 5
 712 680 735 719 739 761 c 5
 735 740 735 740 739 761 c 5
 745 795 732 826 716 854 c 5
 716 854 l 5
 716 854 l 5
 690 890 651 920 606 930 c 5
 627 924 627 924 606 930 c 5
 554 946 499 938 451 916 c 5
 451 916 l 5
 451 916 l 5
 413 895 378 861 364 818 c 5
741 38 m 4
 776 36 766 96 734 84 c 4
 710 78 713 37 741 38 c 4
740 44 m 6
 722 43 716 74 734 78 c 5
 736 78 l 5
 736 78 l 5
 758 87 767 42 741 44 c 5
 741 44 l 5
 740 44 l 6
336 879 m 4
 332 861 304 860 300 876 c 5
 306 907 338 913 336 879 c 4
341 878 m 5
 341 878 l 5
 343 922 300 914 294 878 c 5
 294 876 l 5
 294 876 l 5
 300 852 337 854 341 878 c 5
EndSplineSet
Validated: 37
EndChar

StartChar: nine
Encoding: 57 57 11
Width: 914
VWidth: 0
Flags: HMW
HStem: 110 6<738 753 738 753> 330 6<512 512> 964 6<562 562 563 563>
VStem: 179 6<632 632> 261 6<120 120> 349 6<655 672> 734 6<296 296> 888 6<428 428>
LayerCount: 2
Fore
SplineSet
548 1030 m 4
 468 1058 384 1055 310 1020 c 5
 214 986 131 905 100 812 c 4
 100 812 l 5
 100 811 l 4
 68 675 78 565 160 464 c 4
 160 464 l 5
 160 464 l 4
 200 420 254 383 310 363 c 4
 311 363 l 5
 311 363 l 4
 349 355 380 342 416 346 c 4
 458 341 498 355 536 366 c 4
 536 366 l 5
 536 366 l 4
 568 378 596 396 624 414 c 4
 624 414 l 5
 624 414 l 4
 636 430 631 405 637 389 c 5
 643 363 638 337 640 310 c 4
 639 250 607 193 566 144 c 4
 526 96 472 58 410 46 c 4
 410 46 l 5
 410 46 l 4
 383 36 354 41 324 39 c 4
 310 39 294 44 282 47 c 5
 310 65 328 94 330 126 c 4
 336 166 313 214 281 230 c 4
 250 248 213 252 183 239 c 4
 117 219 82 158 100 116 c 5
 114 43 156 -22 188 -50 c 4
 214 -64 242 -75 270 -83 c 4
 270 -83 l 5
 270 -83 l 4
 324 -88 381 -98 429 -84 c 4
 435 -82 442 -81 449 -80 c 4
 502 -71 574 -65 612 -31 c 5
 670 11 704 71 736 129 c 4
 770 163 772 215 792 250 c 4
 792 250 l 5
 792 250 l 4
 802 298 812 346 819 394 c 5
 831 453 836 515 830 569 c 5
 826 627 818 685 802 736 c 5
 784 799 757 852 723 902 c 4
 723 903 l 5
 722 903 l 4
 672 961 622 1016 548 1030 c 4
416 352 m 6
 416 352 l 5
 416 352 l 4
 382 348 350 360 312 368 c 5
 346 358 346 356 312 368 c 4
 256 388 204 424 164 468 c 5
 187 441 186 440 164 468 c 4
 83 568 73 674 105 810 c 5
 95 776 93 776 105 810 c 4
 135 901 217 982 311 1015 c 5
 383 1050 466 1052 546 1024 c 4
 546 1024 l 5
 546 1024 l 4
 617 1011 668 958 718 900 c 5
 696 928 698 930 718 900 c 4
 752 850 778 796 796 734 c 5
 812 684 820 626 824 568 c 5
 830 514 826 452 814 394 c 5
 807 346 797 299 787 251 c 5
 797 285 798 285 787 251 c 4
 767 216 757 172 732 132 c 4
 719 109 700 76 684 54 c 4
 660 22 642 0 608 -26 c 5
 567 -63 486 -67 433 -78 c 4
 431 -78 430 -78 428 -78 c 4
 428 -78 l 5
 427 -78 l 4
 382 -92 325 -83 271 -78 c 5
 306 -84 306 -88 272 -78 c 4
 244 -70 216 -60 190 -46 c 4
 190 -46 l 5
 190 -46 l 4
 158 -19 118 48 105 118 c 5
 88 157 123 215 186 234 c 4
 214 246 248 243 278 226 c 4
 278 226 l 5
 278 226 l 4
 308 211 329 164 324 126 c 4
 324 126 l 5
 324 126 l 4
 322 94 303 63 274 48 c 4
 268 44 l 5
 274 43 l 4
 290 39 307 34 324 34 c 4
 324 34 l 5
 324 34 l 4
 352 36 382 29 411 40 c 5
 377 30 375 34 410 40 c 4
 474 52 529 92 570 141 c 4
 570 141 l 5
 570 141 l 4
 612 191 644 248 645 310 c 4
 645 310 l 5
 645 311 l 4
 643 337 648 363 642 390 c 4
 642 391 l 5
 642 391 l 4
 639 397 638 442 620 418 c 5
 593 400 565 382 534 371 c 5
 568 382 568 381 534 371 c 4
 496 360 456 347 416 352 c 6
488 474 m 6
 488 474 l 5
 489 474 l 4
 677 558 670 881 436 927 c 4
 436 927 l 5
 435 927 l 4
 327 914 261 762 276 638 c 4
 288 540 352 459 488 474 c 6
487 479 m 5
 354 465 293 543 281 638 c 4
 265 761 333 909 435 922 c 5
 664 876 669 561 487 479 c 5
206 907 m 4
 161 871 238 784 274 865 c 4
 275 866 l 5
 275 866 l 4
 283 904 234 932 206 907 c 4
214 899 m 6
 236 918 268 895 264 869 c 5
 234 803 185 877 213 899 c 4
 214 899 l 5
 214 899 l 6
607 128 m 4
 584 110 593 78 612 62 c 4
 630 47 657 46 675 86 c 4
 675 86 l 5
 676 86 l 4
 685 124 635 153 607 128 c 4
614 119 m 6
 636 138 670 115 665 89 c 5
 635 23 586 97 614 119 c 4
 614 119 l 5
 614 119 l 6
EndSplineSet
Validated: 37
EndChar

StartChar: uni0431
Encoding: 1073 1073 13
Width: 420
VWidth: 0
Flags: W
HStem: -6.76953 3.37207<28.2403 280.159> 32.0039 3.36914<121.844 236.411> 225.023 3.37402<121.844 237.243> 264.641 2.52734<121.844 274.054> 419.31 2.95215<121.844 299.429> 456.397 3.37207<28.6696 319.592 324.058 348.681>
VStem: 52.7266 3.37012<39.6412 413.438> 118.472 3.37207<35.373 225.023 267.168 419.31>
LayerCount: 2
Fore
SplineSet
52.7265625 45.4892578125 m 0
 51.8828125 35.796875 43.033203125 27.3671875 33.3408203125 29.4736328125 c 1
 23.646484375 28.6318359375 19.4326171875 20.2021484375 18.5888671875 12.1953125 c 0
 17.74609375 2.923828125 23.224609375 -5.92578125 35.025390625 -6.76953125 c 0
 112.572265625 -6.76953125 189.2734375 -7.61328125 266.819335938 -6.76953125 c 1
 325.40234375 -3.3974609375 379.767578125 40.853515625 392.41015625 98.169921875 c 0
 405.897460938 150.850585938 383.559570312 210.6953125 338.465820312 241.881835938 c 0
 311.071289062 262.111328125 276.09375 268.854492188 242.797851562 267.16796875 c 2
 121.84375 267.16796875 l 1
 121.84375 419.309570312 l 1
 180.423828125 419.309570312 236.055664062 419.731445312 293.37109375 418.889648438 c 1
 319.5 416.360351562 342.259765625 397.818359375 351.952148438 373.373046875 c 0
 354.481445312 368.31640625 360.802734375 365.787109375 366.28125 364.9453125 c 0
 374.288085938 364.1015625 383.138671875 367.051757812 384.82421875 376.744140625 c 0
 383.982421875 390.231445312 375.974609375 401.189453125 372.180664062 412.989257812 c 0
 365.440429688 426.897460938 359.959960938 442.490234375 351.952148438 456.397460938 c 1
 351.530273438 456.818359375 l 2
 343.1015625 462.71875 332.143554688 458.92578125 324.13671875 459.76953125 c 0
 227.205078125 459.76953125 129.428710938 460.61328125 32.498046875 459.76953125 c 0
 24.4892578125 458.084960938 19.853515625 450.91796875 19.0107421875 443.333984375 c 0
 18.1689453125 434.061523438 22.3818359375 423.104492188 34.181640625 422.26171875 c 2
 35.025390625 422.26171875 l 1
 46.826171875 424.368164062 54.4111328125 413.41015625 52.7265625 401.609375 c 2
 52.7265625 401.189453125 l 2
 52.7265625 393.794554933 52.7298523682 386.398015615 52.735815819 379.000040362 c 0
 52.8253549862 267.921979711 53.5176263886 156.52020185 52.7265625 45.4892578125 c 0
35.025390625 -3.3974609375 m 0
 25.7548828125 -3.3974609375 20.6953125 4.1865234375 21.5400390625 12.1953125 c 0
 21.5400390625 18.9384765625 25.7548828125 25.2607421875 33.3408203125 26.1025390625 c 1
 45.1396484375 23.9951171875 55.255859375 33.6904296875 56.0966796875 45.4892578125 c 0
 56.8972393107 157.852989745 56.1786387317 270.596511729 56.1029727399 382.999959641 c 0
 56.0988905422 389.064151645 56.0966796875 395.127353819 56.0966796875 401.189453125 c 0
 57.783203125 413.831054688 48.51171875 428.161132812 34.181640625 425.6328125 c 1
 25.7548828125 426.475585938 21.5400390625 434.904296875 22.3818359375 443.333984375 c 0
 23.224609375 449.234375 25.7548828125 454.712890625 32.498046875 456.397460938 c 0
 129.428710938 457.240234375 227.205078125 456.397460938 324.13671875 456.397460938 c 1
 322.451171875 456.397460938 321.608398438 457.240234375 323.293945312 456.397460938 c 0
 332.565429688 454.712890625 342.6796875 459.34765625 349.422851562 454.291015625 c 1
 356.166015625 441.646484375 362.06640625 425.6328125 368.809570312 411.3046875 c 1
 367.966796875 412.989257812 367.966796875 413.41015625 368.809570312 411.725585938 c 0
 373.024414062 399.081054688 380.609375 389.387695312 381.453125 376.744140625 c 0
 380.609375 370.000976562 373.8671875 366.630859375 366.28125 368.31640625 c 0
 361.223632812 369.159179688 357.009765625 371.266601562 354.481445312 375.059570312 c 0
 344.3671875 399.501953125 321.186523438 419.731445312 293.79296875 422.26171875 c 1
 293.37109375 422.26171875 l 2
 235.209960938 423.104492188 177.473632812 421.41796875 120.157226562 422.26171875 c 2
 118.471679688 422.26171875 l 1
 118.471679688 265.061523438 l 1
 242.797851562 264.640625 l 1
 243.219726562 264.640625 l 2
 276.09375 266.327148438 309.807617188 259.162109375 336.780273438 239.353515625 c 0
 380.609375 209.009765625 403.368164062 150.850585938 389.881835938 99.4345703125 c 0
 377.23828125 43.8037109375 324.13671875 -0.869140625 266.819335938 -3.3974609375 c 0
 189.2734375 -4.240234375 112.572265625 -3.3974609375 35.025390625 -3.3974609375 c 0
230.997070312 224.602539062 m 0
 275.669921875 220.388671875 315.28515625 182.037109375 317.392578125 136.522460938 c 0
 321.186523438 92.6904296875 289.15625 49.7041015625 246.58984375 38.74609375 c 0
 222.147460938 32.00390625 195.172851562 36.21875 169.044921875 35.373046875 c 2
 121.84375 35.373046875 l 1
 121.84375 225.0234375 l 1
 158.509765625 224.181640625 194.33203125 226.290039062 230.997070312 224.602539062 c 0
120.157226562 228.397460938 m 2
 118.471679688 228.397460938 l 1
 118.471679688 32.00390625 l 1
 169.044921875 32.00390625 l 2
 195.172851562 32.845703125 221.3046875 29.0537109375 247.434570312 35.796875 c 0
 291.264648438 47.5966796875 324.557617188 91.4287109375 320.765625 136.943359375 c 0
 318.658203125 183.723632812 277.77734375 223.33984375 231.418945312 227.553710938 c 0
 194.33203125 229.240234375 157.244140625 227.553710938 120.157226562 228.397460938 c 2
76.1123046875 396.016601562 m 4
 78.2197265625 390.538085938 83.69921875 389.2734375 87.9130859375 390.958984375 c 4
 93.3916015625 393.06640625 97.607421875 399.387695312 93.8134765625 406.131835938 c 5
 87.0703125 415.82421875 71.0546875 406.974609375 76.1123046875 396.016601562 c 4
78.640625 396.860351562 m 4
 75.26953125 403.6015625 86.2275390625 411.189453125 91.2841796875 404.446289062 c 5
 91.2841796875 404.446289062 92.126953125 396.016601562 87.0703125 394.331054688 c 4
 83.2763671875 393.48828125 79.4853515625 393.48828125 78.640625 396.860351562 c 4
328.3515625 68.248046875 m 0
 330.458007812 62.7685546875 336.359375 62.34765625 340.571289062 64.033203125 c 0
 346.051757812 66.1396484375 350.266601562 71.619140625 346.47265625 78.3623046875 c 0
 339.729492188 88.0546875 323.293945312 79.205078125 328.3515625 68.248046875 c 0
331.30078125 69.93359375 m 1
 327.9296875 76.6767578125 338.465820312 83.4189453125 343.5234375 76.6767578125 c 1
 343.5234375 76.6767578125 344.3671875 68.248046875 339.309570312 66.5595703125 c 0
 335.514648438 65.71875 332.143554688 66.1396484375 331.30078125 69.51171875 c 2
 331.30078125 69.93359375 l 1
EndSplineSet
Validated: 37
EndChar

StartChar: uni0432
Encoding: 1074 1074 14
Width: 422
VWidth: 0
Flags: W
HStem: -9.7207 2.94824<25.1191 291.209> 29.0479 3.37207<118.928 248.633> 64.4463 3.37109<86.4795 86.8994> 223.735 3.37207<118.928 249.552> 263.348 2.94922<118.928 247.563> 419.267 3.37109<118.928 244.908> 456.772 2.94824<25.8509 269.687>
VStem: 49.8174 3.37012<35.8665 394.311> 115.556 3.37207<32.4199 223.735 266.297 419.267> 327.144 2.9502<109.894 144.956>
LayerCount: 2
Fore
SplineSet
253.8203125 456.772460938 m 0
 257.61328125 456.772460938 260.983398438 457.192382812 264.775390625 456.772460938 c 0
 311.130859375 453.401367188 354.112304688 418.001953125 365.913085938 372.913085938 c 0
 378.553710938 332.036132812 362.963867188 286.946289062 331.357421875 258.291992188 c 1
 318.713867188 251.547851562 335.149414062 245.646484375 338.520507812 243.12109375 c 0
 387.405273438 211.936523438 409.739257812 147.462890625 394.568359375 92.2587890625 c 0
 382.76953125 40.84765625 337.254882812 -2.1357421875 283.73828125 -6.3505859375 c 1
 238.646484375 -8.03515625 177.08203125 -6.7724609375 131.990234375 -7.1923828125 c 0
 97.435546875 -6.7724609375 63.30078125 -8.4580078125 27.9033203125 -6.7724609375 c 1
 14.419921875 -2.556640625 14.419921875 20.6201171875 29.58984375 23.1484375 c 1
 41.388671875 21.4638671875 52.765625 30.7333984375 53.1875 42.5322265625 c 0
 53.609375 161.368164062 53.1875 281.045898438 53.1875 399.881835938 c 1
 52.765625 391.033203125 51.501953125 390.190429688 53.1875 399.0390625 c 0
 54.8740234375 410.838867188 46.865234375 427.694335938 31.6962890625 425.16796875 c 1
 16.525390625 426.009765625 13.576171875 452.555664062 28.748046875 456.772460938 c 1
 98.7001953125 457.614257812 183.866210938 456.350585938 253.8203125 456.772460938 c 0
49.8173828125 42.5322265625 m 0
 49.3955078125 32.419921875 40.5458984375 24.412109375 30.431640625 26.09765625 c 1
 29.58984375 26.09765625 l 1
 11.0478515625 24.412109375 9.783203125 -5.0849609375 27.4833984375 -9.720703125 c 1
 27.9033203125 -9.720703125 l 2
 62.458984375 -11.4072265625 97.435546875 -9.720703125 131.990234375 -10.1416015625 c 0
 177.08203125 -9.720703125 239.0703125 -11.4072265625 284.161132812 -9.720703125 c 1
 338.942382812 -5.0849609375 384.875 39.1611328125 397.516601562 91.4140625 c 0
 412.688476562 147.883789062 389.931640625 213.622070312 340.62890625 245.646484375 c 0
 333.884765625 251.127929688 324.614257812 250.283203125 333.041992188 254.91796875 c 1
 333.041992188 255.762695312 l 1
 365.491210938 284.418945312 382.346679688 332.036132812 369.283203125 374.177734375 c 0
 356.641601562 420.53125 313.237304688 455.5078125 265.197265625 458.87890625 c 0
 261.403320312 459.299804688 257.61328125 460.141601562 253.8203125 460.141601562 c 0
 183.866210938 459.720703125 98.7001953125 460.5625 28.748046875 459.720703125 c 2
 28.3251953125 459.720703125 l 1
 9.783203125 455.084960938 11.46875 423.057617188 31.6962890625 422.637695312 c 2
 32.1181640625 422.637695312 l 1
 43.9169921875 425.16796875 51.501953125 410.838867188 49.8173828125 399.881835938 c 1
 49.8173828125 281.045898438 50.2373046875 161.368164062 49.8173828125 42.5322265625 c 0
245.392578125 222.892578125 m 1
 290.059570312 218.2578125 325.458984375 176.538085938 327.143554688 132.71484375 c 0
 330.514648438 88.0439453125 298.487304688 43.796875 254.662109375 34.525390625 c 0
 230.220703125 30.3115234375 188.458984375 33.2607421875 164.016601562 32.419921875 c 2
 118.927734375 32.419921875 l 1
 118.927734375 223.735351562 l 1
 155.58984375 223.313476562 208.729492188 224.579101562 245.392578125 222.892578125 c 1
245.392578125 226.264648438 m 1
 208.309570312 227.94921875 154.74609375 226.686523438 117.662109375 227.107421875 c 2
 115.555664062 227.107421875 l 1
 115.555664062 225.420898438 l 1
 115.555664062 30.7333984375 l 1
 115.555664062 29.0478515625 l 1
 164.016601562 29.0478515625 l 2
 188.458984375 29.8916015625 230.220703125 26.9423828125 254.662109375 31.576171875 c 0
 300.594726562 41.6904296875 333.463867188 86.7802734375 330.09375 132.71484375 c 0
 328.407226562 178.645507812 291.745117188 221.62890625 245.392578125 226.264648438 c 1
325.036132812 380.498046875 m 1
 314.922851562 374.598632812 321.665039062 355.211914062 334.729492188 361.956054688 c 1
 335.571289062 361.956054688 l 1
 345.685546875 368.69921875 335.993164062 385.134765625 325.036132812 380.498046875 c 1
326.299804688 377.546875 m 1
 333.884765625 380.075195312 340.208007812 369.120117188 333.463867188 364.907226562 c 1
 333.463867188 364.907226562 312.814453125 368.69921875 326.299804688 377.546875 c 1
89.4287109375 50.1181640625 m 0
 79.314453125 47.58984375 75.1015625 61.9169921875 86.8994140625 64.4462890625 c 0
 94.4853515625 64.4462890625 97.015625 52.6474609375 89.4287109375 50.1181640625 c 0
86.8994140625 67.8173828125 m 2
 86.4794921875 67.8173828125 l 1
 70.4658203125 64.4462890625 76.365234375 43.376953125 90.2705078125 46.748046875 c 0
 101.228515625 50.1181640625 98.7001953125 68.2373046875 86.8994140625 67.8173828125 c 2
234.434570312 263.34765625 m 2
 239.913085938 263.34765625 245.392578125 263.76953125 250.448242188 265.454101562 c 0
 285.001953125 277.25390625 300.594726562 317.286132812 297.22265625 350.999023438 c 0
 295.537109375 382.182617188 276.153320312 416.317382812 242.440429688 421.794921875 c 1
 242.020507812 421.794921875 l 2
 206.201171875 423.481445312 153.481445312 422.216796875 117.662109375 422.637695312 c 2
 115.555664062 422.637695312 l 1
 115.555664062 263.34765625 l 1
 234.434570312 263.34765625 l 2
242.020507812 418.423828125 m 1
 273.203125 413.3671875 292.16796875 380.498046875 293.852539062 350.15625 c 0
 296.380859375 317.708007812 282.052734375 279.361328125 249.604492188 268.403320312 c 0
 244.96875 266.71875 239.493164062 266.296875 234.434570312 266.296875 c 2
 118.927734375 266.296875 l 1
 118.927734375 419.266601562 l 1
 154.74609375 418.845703125 206.622070312 420.108398438 242.020507812 418.423828125 c 1
EndSplineSet
Validated: 37
EndChar

StartChar: uni0433
Encoding: 1075 1075 15
Width: 417
VWidth: 0
Flags: W
HStem: -9.90039 2.56055<36.3568 153.781> 70.2969 2.56055<88.3797 96.8504> 389.297 2.56055<88.3797 96.8504> 420.948 3.41113<130.097 308.96> 458.486 3.41406<35.1451 332.348 336.908 361.178>
VStem: 60.1367 2.98633<38.1265 413.408> 82.7451 2.56055<59.2532 67.3074 378.253 386.307> 126.258 3.83887<35.7939 420.948>
LayerCount: 2
Fore
SplineSet
92.556640625 391.857421875 m 4
 85.732421875 391.857421875 82.7451171875 387.591796875 82.7451171875 382.47265625 c 4
 83.5986328125 376.5 88.2919921875 369.672851562 95.970703125 371.381835938 c 4
 107.487304688 374.368164062 105.35546875 392.709960938 92.556640625 391.857421875 c 4
92.9833984375 389.296875 m 4
 101.087890625 390.150390625 102.795898438 375.6484375 94.6904296875 373.940429688 c 4
 89.5703125 373.086914062 85.3056640625 377.78125 85.3056640625 382.47265625 c 4
 85.3056640625 385.884765625 87.8642578125 389.296875 92.9833984375 389.296875 c 4
59.7099609375 42.5693359375 m 4
 58.857421875 32.7587890625 50.3251953125 24.654296875 40.5146484375 26.359375 c 6
 40.0869140625 26.359375 l 6
 32.4091796875 25.5078125 27.716796875 20.8134765625 26.009765625 14.8427734375 c 4
 23.025390625 5.4580078125 26.4365234375 -6.060546875 36.6728515625 -9.47265625 c 5
 37.1015625 -9.47265625 l 6
 57.5771484375 -11.1806640625 78.90625 -9.046875 99.3837890625 -9.900390625 c 4
 117.299804688 -9.046875 135.21484375 -11.1806640625 153.130859375 -9.47265625 c 6
 153.55859375 -9.47265625 l 5
 160.383789062 -6.9140625 163.795898438 -0.94140625 164.649414062 5.4580078125 c 4
 165.502929688 14.8427734375 161.237304688 25.5078125 150.146484375 26.359375 c 6
 149.717773438 26.359375 l 5
 138.201171875 23.80078125 129.243164062 34.0390625 130.096679688 45.5546875 c 6
 130.096679688 420.948242188 l 5
 188.963867188 420.948242188 245.69921875 421.80078125 303.713867188 420.948242188 c 4
 330.163085938 418.388671875 354.904296875 399.618164062 365.142578125 374.876953125 c 5
 365.142578125 374.450195312 l 5
 368.12890625 369.756835938 372.822265625 366.344726562 378.79296875 365.4921875 c 4
 386.8984375 364.639648438 396.709960938 367.625 398.415039062 377.4375 c 6
 398.415039062 377.86328125 l 6
 397.563476562 391.0859375 389.45703125 402.178710938 385.193359375 413.6953125 c 4
 378.366210938 428.19921875 373.248046875 443.983398438 365.142578125 458.486328125 c 5
 364.290039062 458.486328125 l 6
 355.756835938 464.884765625 345.092773438 461.046875 336.987304688 461.900390625 c 4
 237.595703125 461.900390625 138.62890625 462.75390625 39.234375 461.900390625 c 6
 38.806640625 461.900390625 l 6
 30.2763671875 460.193359375 26.4365234375 452.515625 25.583984375 444.8359375 c 4
 24.7314453125 435.452148438 29.4228515625 425.212890625 40.5146484375 424.359375 c 6
 40.9404296875 424.359375 l 5
 52.4580078125 426.919921875 61.8427734375 414.122070312 60.13671875 403.03125 c 6
 60.13671875 402.178710938 l 6
 60.13671875 281.8828125 60.5625 162.865234375 59.7099609375 42.5693359375 c 4
126.2578125 45.5546875 m 6
 125.404296875 32.7587890625 135.642578125 20.8134765625 150.146484375 23.3740234375 c 5
 158.250976562 22.521484375 162.516601562 13.9892578125 161.665039062 5.4580078125 c 4
 160.810546875 0.3388671875 158.677734375 -4.7802734375 152.706054688 -6.486328125 c 4
 135.642578125 -8.193359375 117.299804688 -6.486328125 99.3837890625 -7.33984375 c 4
 78.90625 -6.486328125 58.4296875 -8.193359375 37.1015625 -6.486328125 c 4
 28.9970703125 -3.5009765625 26.009765625 5.884765625 28.9970703125 13.9892578125 c 4
 30.703125 18.6806640625 34.115234375 22.521484375 40.0869140625 23.3740234375 c 4
 51.6044921875 20.8134765625 62.2705078125 29.771484375 63.123046875 42.5693359375 c 4
 63.9765625 162.865234375 63.123046875 281.8828125 63.123046875 402.178710938 c 4
 64.830078125 414.974609375 55.4453125 429.478515625 40.5146484375 426.919921875 c 5
 31.982421875 427.772460938 26.8642578125 437.157226562 27.716796875 445.689453125 c 4
 28.5693359375 452.086914062 32.4091796875 456.780273438 39.234375 458.486328125 c 4
 138.201171875 459.33984375 238.0234375 458.486328125 336.987304688 458.486328125 c 5
 335.282226562 458.486328125 334.428710938 459.33984375 336.134765625 458.486328125 c 4
 345.520507812 457.633789062 355.331054688 461.046875 362.157226562 456.353515625 c 5
 369.833984375 443.130859375 375.380859375 426.919921875 382.205078125 412.415039062 c 5
 381.3515625 414.122070312 380.926757812 414.122070312 381.780273438 412.415039062 c 4
 386.045898438 399.618164062 394.149414062 390.661132812 395.002929688 377.86328125 c 5
 392.4453125 366.344726562 374.52734375 366.344726562 367.702148438 376.157226562 c 5
 357.463867188 401.750976562 331.870117188 420.948242188 303.713867188 423.508789062 c 4
 245.69921875 424.359375 185.977539062 424.359375 127.962890625 424.359375 c 6
 126.2578125 424.359375 l 5
 126.2578125 45.5546875 l 6
92.556640625 72.857421875 m 4
 85.732421875 72.857421875 82.7451171875 68.591796875 82.7451171875 63.47265625 c 4
 83.5986328125 57.5 88.2919921875 50.6728515625 95.970703125 52.3818359375 c 4
 107.487304688 55.3681640625 105.35546875 73.7099609375 92.556640625 72.857421875 c 4
92.9833984375 70.296875 m 4
 101.087890625 71.150390625 102.795898438 56.6484375 94.6904296875 54.9404296875 c 4
 89.5703125 54.0869140625 85.3056640625 58.78125 85.3056640625 63.47265625 c 4
 85.3056640625 66.884765625 87.8642578125 70.296875 92.9833984375 70.296875 c 4
EndSplineSet
Validated: 37
EndChar

StartChar: uni0434
Encoding: 1076 1076 16
Width: 413
VWidth: 0
Flags: W
HStem: -9.40332 2.99121<24.7402 387.26> 26.0781 3.4209<58.9404 59.3682> 34.2012 2.99219<101.214 265.662> 381.049 3.41992<312.361 320.264> 419.379 3.41992<159.83 274.4> 462.557 2.99219<98.7108 372.47>
VStem: 21.3193 3.4209<-6.41211 31.6367> 114.516 2.99121<349.308 406.941> 156.41 3.41992<269.554 419.379> 158.119 2.99316<234.441 417.052> 274.4 2.99219<44.773 419.379> 352.205 2.99219<51.8895 413.753> 387.26 3.4209<-6.41211 21.0521>
LayerCount: 2
Fore
SplineSet
114.515625 377.484375 m 0xff38
 117.934570312 310.793945312 120.927734375 243.249023438 104.681640625 178.268554688 c 0
 91.4306640625 122.693359375 55.947265625 76.0966796875 21.3193359375 31.63671875 c 1
 21.3193359375 31.208984375 l 1
 21.3193359375 -9.4033203125 l 1
 390.680664062 -9.4033203125 l 1
 390.680664062 -7.693359375 l 2
 389.825195312 2.56640625 393.671875 14.109375 387.6875 24.796875 c 1
 387.6875 25.2236328125 l 1
 378.282226562 37.193359375 359.900390625 36.765625 356.48046875 51.728515625 c 0
 355.625 55.1494140625 355.197265625 59.423828125 355.197265625 62.84375 c 2
 355.197265625 407.409179688 l 2
 355.625 417.668945312 364.174804688 425.791015625 374.434570312 426.21875 c 2
 374.862304688 426.21875 l 1
 392.390625 432.203125 390.680664062 459.563476562 373.580078125 464.693359375 c 0
 358.618164062 468.11328125 343.655273438 465.975585938 329.119140625 466.403320312 c 2
 328.265625 466.403320312 l 2
 251.315429688 466.403320312 176.075195312 465.975585938 99.125 465.548828125 c 2
 98.26953125 465.548828125 l 1
 80.3154296875 463.412109375 73.474609375 437.333984375 89.7197265625 427.928710938 c 1
 90.5751953125 427.928710938 l 1
 90.5751953125 427.500976562 l 1
 98.26953125 424.081054688 107.247070312 423.653320312 110.66796875 415.958984375 c 0
 115.796875 403.98828125 112.377929688 390.736328125 114.515625 377.484375 c 0xff38
352.205078125 63.69921875 m 2
 352.205078125 59.423828125 352.205078125 55.1494140625 353.059570312 50.8740234375 c 0
 357.334960938 33.7744140625 377 33.3466796875 384.694335938 23.0869140625 c 1
 379.565429688 30.78125 380.419921875 30.78125 384.694335938 23.0869140625 c 1
 389.397460938 14.5361328125 386.83203125 4.275390625 387.259765625 -6.412109375 c 1
 24.740234375 -6.412109375 l 1
 24.740234375 30.353515625 l 1
 58.0849609375 73.958984375 93.994140625 121.412109375 107.674804688 177.413085938 c 0
 123.919921875 243.249023438 120.927734375 310.793945312 117.506835938 377.484375 c 0
 115.369140625 389.453125 119.64453125 403.98828125 113.66015625 416.813476562 c 0
 109.384765625 427.07421875 98.26953125 427.07421875 91.4306640625 430.494140625 c 1
 99.125 426.21875 99.552734375 425.791015625 91.857421875 430.494140625 c 0
 79.0322265625 438.188476562 84.162109375 460.846679688 99.125 462.556640625 c 1
 90.1474609375 462.12890625 90.1474609375 462.556640625 99.125 462.556640625 c 1
 176.075195312 462.984375 251.315429688 462.984375 328.265625 462.984375 c 1
 319.287109375 462.984375 319.287109375 463.412109375 328.265625 462.984375 c 1
 343.227539062 462.556640625 358.618164062 464.265625 373.15234375 461.701171875 c 1
 364.174804688 463.837890625 364.174804688 464.265625 372.724609375 461.701171875 c 0
 387.259765625 457.42578125 388.115234375 433.913085938 373.580078125 428.784179688 c 1
 361.609375 427.928710938 352.631835938 419.37890625 352.205078125 407.409179688 c 2
 352.205078125 63.69921875 l 2
318.859375 367.369140625 m 4
 309.455078125 365.231445312 304.325195312 378.912109375 316.294921875 381.048828125 c 4
 323.990234375 381.048828125 325.700195312 369.505859375 318.859375 367.369140625 c 4
315.440429688 384.46875 m 4
 299.194335938 381.048828125 306.03515625 360.528320312 319.71484375 363.94921875 c 4
 331.684570312 367.369140625 327.41015625 384.896484375 315.440429688 384.46875 c 4
59.3681640625 29.4990234375 m 2
 58.9404296875 29.4990234375 l 1
 42.6943359375 25.2236328125 48.2529296875 4.703125 63.21484375 8.978515625 c 0
 75.1845703125 12.3994140625 71.337890625 29.92578125 59.3681640625 29.4990234375 c 2
59.3681640625 26.078125 m 1
 67.0625 26.078125 70.0556640625 13.681640625 62.359375 11.5439453125 c 0
 51.671875 8.1240234375 47.3974609375 22.6591796875 59.3681640625 26.078125 c 1
98.26953125 51.728515625 m 0
 107.674804688 70.5380859375 119.64453125 88.06640625 128.194335938 107.731445312 c 0
 152.990234375 157.321289062 160.256835938 212.896484375 161.112304688 267.188476562 c 0xff78
 161.967773438 317.633789062 160.684570312 369.788085938 159.830078125 419.37890625 c 1xffb8
 274.400390625 419.37890625 l 1
 274.400390625 295.831054688 274.828125 172.284179688 274.400390625 49.1630859375 c 0
 273.544921875 39.7587890625 261.575195312 35.484375 252.169921875 37.193359375 c 0
 203.434570312 37.62109375 154.700195312 36.337890625 105.96484375 37.193359375 c 0
 98.26953125 37.193359375 95.705078125 45.31640625 98.26953125 51.728515625 c 0
277.392578125 422.798828125 m 1
 156.41015625 422.798828125 l 1
 156.41015625 421.087890625 l 2xffb8
 157.265625 369.788085938 158.974609375 318.916015625 158.119140625 267.616210938 c 0
 157.265625 213.32421875 150.424804688 157.749023438 125.630859375 109.013671875 c 0
 117.080078125 89.775390625 104.255859375 72.2490234375 94.849609375 53.01171875 c 0
 91.4306640625 45.31640625 95.705078125 34.201171875 105.96484375 34.201171875 c 0
 154.700195312 33.3466796875 203.434570312 34.201171875 252.169921875 33.7744140625 c 0
 262.430664062 32.0634765625 275.681640625 36.337890625 277.392578125 49.1630859375 c 0
 277.819335938 172.711914062 277.392578125 297.541015625 277.392578125 421.087890625 c 2
 277.392578125 422.798828125 l 1
EndSplineSet
Validated: 37
EndChar

StartChar: uni0435
Encoding: 1077 1077 17
Width: 418
VWidth: 0
Flags: W
HStem: -9.83496 2.99219<29.2623 360.734> 30.7773 3.41992<124.225 310.805> 225.718 2.99219<124.225 237.247> 270.178 3.41992<124.225 237.647> 423.65 2.99219<124.225 293.179> 461.697 2.56543<32.1254 343.416>
VStem: 54.1152 2.99219<37.8049 415.976> 121.66 2.56445<34.1973 225.718 273.598 423.65> 248.2 3.41895<195.716 214.648> 282.4 4.27441<195.217 304.789>
LayerCount: 2
Fore
SplineSet
98.5751953125 378.427734375 m 4
 96.009765625 394.671875 73.7802734375 387.83203125 78.0556640625 374.15234375 c 4
 81.474609375 362.609375 99.4306640625 366.884765625 98.5751953125 378.427734375 c 4
95.58203125 377.572265625 m 4
 96.4375 369.450195312 83.1845703125 367.740234375 80.619140625 375.434570312 c 4
 78.0556640625 385.267578125 93.017578125 390.397460938 95.58203125 377.572265625 c 4
376.450195312 93.193359375 m 0
 361.059570312 88.91796875 360.631835938 70.53515625 352.509765625 62.412109375 c 2
 351.655273438 61.984375 l 1
 336.693359375 41.892578125 311.469726562 31.6318359375 286.674804688 34.197265625 c 1
 124.224609375 34.197265625 l 1
 124.224609375 225.717773438 l 1
 228.962890625 225.717773438 l 2
 241.787109375 226.572265625 250.765625 213.747070312 248.200195312 202.205078125 c 1
 248.200195312 201.77734375 l 2
 248.200195312 185.532226562 269.575195312 176.127929688 280.690429688 188.953125 c 0
 290.522460938 200.068359375 285.819335938 215.45703125 286.674804688 227 c 0
 285.819335938 250.940429688 286.674804688 275.734375 285.819335938 300.530273438 c 0
 283.255859375 316.775390625 259.743164062 321.477539062 251.619140625 306.943359375 c 0
 244.780273438 296.681640625 251.619140625 284.28515625 242.21484375 277.872070312 c 0
 231.955078125 269.75 217.419921875 275.306640625 203.740234375 273.59765625 c 2
 124.224609375 273.59765625 l 1
 124.224609375 423.650390625 l 1
 178.944335938 423.650390625 234.092773438 424.078125 288.8125 423.22265625 c 1
 315.318359375 420.657226562 338.830078125 401.84765625 349.08984375 377.052734375 c 0
 355.930664062 365.509765625 379.869140625 362.944335938 382.434570312 379.618164062 c 1
 382.434570312 380.47265625 l 2
 381.580078125 394.15234375 373.45703125 404.83984375 369.181640625 416.381835938 c 0
 362.342773438 430.91796875 357.212890625 446.306640625 349.08984375 460.842773438 c 1
 349.08984375 461.697265625 l 1
 348.234375 461.697265625 l 1
 339.684570312 468.109375 328.997070312 463.407226562 320.875 464.262695312 c 2
 320.01953125 464.262695312 l 2
 224.6875 464.262695312 128.927734375 465.118164062 33.5947265625 464.262695312 c 2
 32.740234375 464.262695312 l 1
 13.9306640625 460.842773438 14.78515625 428.352539062 34.4501953125 426.642578125 c 2
 35.3056640625 426.642578125 l 1
 46.84765625 429.20703125 55.8251953125 416.809570312 54.115234375 405.267578125 c 2
 54.115234375 404.412109375 l 2
 54.115234375 283.857421875 54.9697265625 163.73046875 54.115234375 43.1748046875 c 0
 53.259765625 33.3427734375 43.85546875 24.365234375 34.0224609375 26.9306640625 c 1
 15.640625 25.2197265625 13.5029296875 -3.421875 30.6025390625 -9.4072265625 c 1
 51.1220703125 -11.1181640625 73.3525390625 -9.4072265625 93.8720703125 -10.2626953125 c 0
 182.365234375 -10.2626953125 270.430664062 -10.6904296875 358.494140625 -9.8349609375 c 2
 358.921875 -9.8349609375 l 1
 369.181640625 -5.5595703125 369.609375 8.119140625 373.884765625 14.5322265625 c 0
 381.580078125 34.625 390.556640625 54.2900390625 397.397460938 74.8095703125 c 0
 401.671875 87.634765625 387.993164062 97.89453125 376.450195312 93.193359375 c 0
228.962890625 228.709960938 m 2
 121.66015625 228.709960938 l 1
 121.66015625 30.77734375 l 1
 286.674804688 30.77734375 l 2
 312.325195312 28.212890625 339.684570312 39.755859375 355.075195312 60.275390625 c 1
 349.08984375 53.4345703125 348.662109375 53.8623046875 355.075195312 60.275390625 c 1
 365.334960938 70.53515625 364.48046875 86.7802734375 377.732421875 90.2001953125 c 0
 387.137695312 93.619140625 397.825195312 85.9248046875 394.405273438 76.0927734375 c 0
 387.565429688 56 379.015625 36.7626953125 370.892578125 16.2431640625 c 0
 366.190429688 8.119140625 366.618164062 -3.421875 358.494140625 -6.8427734375 c 1
 271.28515625 -7.697265625 181.9375 -6.8427734375 93.8720703125 -6.8427734375 c 0
 72.4970703125 -5.9873046875 52.4052734375 -8.125 31.0302734375 -6.4150390625 c 1
 17.77734375 -1.712890625 19.0595703125 20.9443359375 34.0224609375 23.509765625 c 1
 46.84765625 20.9443359375 56.2529296875 30.349609375 57.107421875 43.1748046875 c 0
 57.962890625 163.73046875 57.107421875 283.857421875 57.107421875 404.412109375 c 1
 58.818359375 417.237304688 49.412109375 432.627929688 34.4501953125 430.0625 c 1
 19.4873046875 431.772460938 17.349609375 457.421875 33.5947265625 460.842773438 c 1
 128.927734375 461.697265625 224.6875 461.697265625 320.01953125 461.697265625 c 1
 329.852539062 459.987304688 339.256835938 463.834960938 346.09765625 459.131835938 c 1
 353.79296875 445.880859375 359.349609375 429.20703125 366.190429688 414.671875 c 1
 362.76953125 423.22265625 363.625 424.078125 366.190429688 415.52734375 c 0
 370.46484375 402.703125 378.587890625 393.296875 379.443359375 380.47265625 c 1
 376.877929688 367.647460938 358.068359375 368.075195312 351.655273438 377.907226562 c 0
 341.39453125 403.130859375 317.455078125 423.22265625 289.240234375 425.787109375 c 1
 288.8125 425.787109375 l 2
 233.665039062 426.642578125 177.662109375 425.787109375 122.515625 426.642578125 c 2
 121.66015625 426.642578125 l 1
 121.66015625 270.177734375 l 1
 203.740234375 270.177734375 l 2
 216.565429688 271.032226562 231.099609375 265.90234375 243.924804688 275.306640625 c 0
 255.040039062 283.002929688 249.055664062 297.537109375 254.184570312 305.232421875 c 0
 260.59765625 316.775390625 279.834960938 312.927734375 282.400390625 300.102539062 c 1
 281.544921875 309.506835938 281.544921875 309.934570312 282.400390625 300.530273438 c 0
 283.255859375 276.58984375 281.544921875 251.794921875 282.400390625 227 c 1
 283.255859375 236.405273438 283.255859375 236.83203125 282.400390625 227.427734375 c 0
 280.690429688 214.174804688 286.247070312 200.921875 278.125 191.517578125 c 0
 269.575195312 181.684570312 251.619140625 188.953125 251.619140625 201.77734375 c 0
 254.184570312 215.030273438 243.497070312 229.565429688 228.962890625 228.709960938 c 2
98.5751953125 56.427734375 m 0
 96.009765625 72.671875 73.7802734375 65.83203125 78.0556640625 52.15234375 c 0
 81.474609375 40.609375 99.4306640625 44.884765625 98.5751953125 56.427734375 c 0
95.58203125 55.572265625 m 0
 96.4375 47.4501953125 83.1845703125 45.740234375 80.619140625 53.4345703125 c 0
 78.0556640625 63.267578125 93.017578125 68.3974609375 95.58203125 55.572265625 c 0
EndSplineSet
Validated: 524325
EndChar

StartChar: uni0436
Encoding: 1078 1078 18
Width: 561
VWidth: 0
Flags: W
HStem: -9.24121 2.55371<32.9674 144.009 219.541 322.172 328.365 334.314 400.691 516.626> 27.3662 2.55469<315.714 323.227> 459.409 2.97949<213.183 305.573>
VStem: 168.862 2.55371<296.965 305.746> 236.968 2.55371<37.582 98.8323> 238.245 2.97852<323.793 408.539> 304.649 3.8291<148.452 206.176 319.139 412.791> 402.976 3.83008<49.2806 58.0137>
LayerCount: 2
Fore
SplineSet
176.09765625 126.1171875 m 1xf7
 190.99609375 155.912109375 205.893554688 186.5625 220.79296875 215.506835938 c 1
 230.58203125 186.5625 239.521484375 74.1884765625 236.967773438 39.2841796875 c 1xfb
 231.0078125 24.810546875 195.25390625 29.9208984375 203.766601562 3.103515625 c 1
 203.766601562 2.6767578125 l 1
 217.387695312 -19.4560546875 249.737304688 -5.4091796875 269.317382812 -9.2412109375 c 1
 270.169921875 -9.2412109375 l 2
 291.02734375 -7.5380859375 314.4375 -12.646484375 335.293945312 -6.6875 c 1
 335.719726562 -6.6875 l 1
 354.451171875 10.33984375 333.591796875 29.9208984375 315.713867188 29.9208984375 c 1
 299.5390625 89.5126953125 308.478515625 154.638671875 308.478515625 212.954101562 c 1
 326.35546875 235.087890625 334.869140625 190.818359375 345.936523438 174.64453125 c 2
 345.936523438 174.64453125 399.143554688 66.1015625 402.975585938 57.162109375 c 1
 402.975585938 38.4326171875 363.387695312 -0.7275390625 402.975585938 -9.2412109375 c 1
 441.284179688 -9.2412109375 479.16796875 -9.666015625 517.477539062 -8.81640625 c 1
 545.569335938 3.103515625 530.672851562 36.3056640625 506.8359375 40.5615234375 c 1
 488.106445312 60.9931640625 481.296875 89.0869140625 466.823242188 113.774414062 c 0
 437.025390625 175.0703125 406.380859375 236.788085938 376.583984375 298.087890625 c 1
 385.803710938 329.692382812 443.360351562 369.694335938 466.823242188 391.3046875 c 1
 493.640625 371.723632812 535.78125 394.284179688 530.672851562 427.911132812 c 0
 527.692382812 460.260742188 482.999023438 476.010742188 462.141601562 450.470703125 c 1
 412.765625 404.92578125 364.6640625 358.52734375 314.4375 313.833984375 c 1
 299.5390625 324.05078125 312.735351562 359.805664062 307.627929688 380.662109375 c 0
 304.649414062 402.372070312 307.627929688 431.318359375 334.4453125 428.76171875 c 2
 335.293945312 428.76171875 l 1
 335.719726562 429.189453125 l 2
 359.557617188 452.173828125 324.2265625 470.051757812 303.794921875 463.241210938 c 1
 273.1484375 462.388671875 243.350585938 465.369140625 213.5546875 462.388671875 c 1
 212.706054688 462.388671875 l 1
 212.706054688 461.538085938 l 1
 189.720703125 446.640625 211.427734375 422.377929688 231.0078125 423.228515625 c 1
 247.18359375 396.413085938 233.986328125 358.954101562 238.245117188 326.178710938 c 1
 237.393554688 295.53125 212.280273438 335.1171875 197.807617188 344.055664062 c 1
 156.091796875 382.791992188 115.654296875 421.099609375 73.94140625 459.409179688 c 1
 73.0888671875 459.409179688 l 1
 44.14453125 475.583984375 4.55859375 443.66015625 17.3271484375 411.310546875 c 1
 26.265625 378.959960938 63.2998046875 383.641601562 82.8779296875 387.474609375 c 1
 111.82421875 359.805664062 140.76953125 333.415039062 168.862304688 305.74609375 c 1
 168.010742188 281.91015625 148.926757812 261.711914062 140.329101562 238.497070312 c 0
 108.515625 174.439453125 78.6220703125 110.795898438 47.125 47.7978515625 c 1
 32.2255859375 35.0283203125 -3.955078125 18.0009765625 24.138671875 -5.8359375 c 1
 24.138671875 -6.6875 l 1
 44.5703125 -14.349609375 65.853515625 -6.6875 86.7099609375 -9.2412109375 c 2
 87.9873046875 -9.2412109375 l 2
 108.845703125 -7.5380859375 132.255859375 -12.646484375 153.11328125 -7.5380859375 c 1
 153.540039062 -7.5380859375 l 1
 153.540039062 -6.6875 l 1
 173.1171875 13.7431640625 146.301757812 35.453125 142.47265625 51.6279296875 c 1
 145.451171875 79.2958984375 166.30859375 99.728515625 176.09765625 126.1171875 c 1xf7
305.073242188 214.65625 m 1
 304.649414062 214.65625 l 1
 304.649414062 213.8046875 l 2
 304.649414062 155.48828125 297.411132812 89.0869140625 313.5859375 28.642578125 c 1
 313.5859375 27.3662109375 l 1
 315.288085938 27.3662109375 l 2
 332.315429688 29.068359375 350.619140625 11.1904296875 334.4453125 -3.283203125 c 1
 314.862304688 -8.388671875 292.303710938 -4.984375 270.169921875 -6.6875 c 1
 248.4609375 -2.4296875 218.6640625 -15.6259765625 206.747070312 3.955078125 c 1
 199.083007812 29.494140625 231.859375 16.724609375 239.521484375 37.58203125 c 1xfb
 242.076171875 75.890625 233.5625 195.926757812 222.495117188 219.762695312 c 2
 220.79296875 222.744140625 l 1
 219.515625 219.762695312 l 2
 203.341796875 189.116210938 189.293945312 157.618164062 173.1171875 126.970703125 c 1
 163.329101562 101.431640625 142.8984375 79.72265625 139.91796875 51.6279296875 c 1
 139.91796875 51.203125 l 1
 143.747070312 30.771484375 169.288085938 14.59765625 152.26171875 -4.1318359375 c 1
 133.532226562 -8.388671875 108.418945312 -4.984375 86.7099609375 -6.6875 c 1
 95.6484375 -6.6875 96.92578125 -7.5380859375 87.9873046875 -6.6875 c 0
 66.2783203125 -4.1318359375 44.14453125 -10.091796875 24.5634765625 -3.283203125 c 1
 0.7255859375 18.4267578125 32.2255859375 32.048828125 49.2509765625 46.5205078125 c 1
 50.103515625 46.5205078125 l 1
 81.6015625 109.944335938 111.524414062 173.580078125 143.336914062 237.638671875 c 1
 151.075195312 259.994140625 171.416015625 281.059570312 171.416015625 305.74609375 c 2
 171.416015625 306.598632812 l 1
 171.416015625 307.022460938 l 1
 143.322265625 335.1171875 113.526367188 363.209960938 84.5830078125 390.879882812 c 2
 83.73046875 391.3046875 l 1
 82.8779296875 391.3046875 l 1
 62.4462890625 387.474609375 28.39453125 383.217773438 19.880859375 412.161132812 c 0
 8.8134765625 441.106445312 44.99609375 470.901367188 71.810546875 456.4296875 c 1
 113.526367188 418.971679688 155.241210938 380.662109375 196.104492188 342.353515625 c 0
 205.893554688 336.393554688 240.372070312 288.719726562 241.223632812 326.178710938 c 1xf7
 237.393554688 357.677734375 251.440429688 396.837890625 232.711914062 425.783203125 c 1
 232.286132812 427.486328125 l 1
 231.43359375 426.633789062 l 1
 213.5546875 424.079101562 196.104492188 446.640625 214.833984375 459.409179688 c 1
 243.780273438 461.963867188 274.8515625 458.984375 304.649414062 459.8359375 c 1
 324.2265625 466.646484375 352.74609375 451.323242188 334.01953125 431.7421875 c 1
 304.219726562 433.444335938 301.668945312 401.946289062 304.649414062 380.237304688 c 0
 309.75390625 361.509765625 294.006835938 322.772460938 313.5859375 310.854492188 c 1
 314.4375 310.00390625 l 1
 315.288085938 310.854492188 l 1
 365.518554688 356.400390625 414.891601562 401.946289062 464.26953125 447.91796875 c 1
 464.26953125 448.767578125 l 1
 465.122070312 448.767578125 l 1
 484.700195312 471.75390625 525.565429688 456.854492188 528.119140625 427.911132812 c 2
 528.119140625 427.486328125 l 1
 532.375976562 396.837890625 491.938476562 374.704101562 468.099609375 394.284179688 c 1
 466.823242188 395.135742188 l 1
 465.971679688 394.284179688 l 2
 442.190429688 370.502929688 381.295898438 333.440429688 373.178710938 298.936523438 c 1
 373.178710938 298.087890625 l 1
 373.178710938 297.233398438 l 1
 402.975585938 235.087890625 432.770507812 173.79296875 463.41796875 112.497070312 c 0
 477.890625 88.66015625 485.126953125 60.140625 504.708007812 39.2841796875 c 1
 504.708007812 37.58203125 l 1
 505.131835938 37.58203125 l 1
 527.266601562 34.6015625 540.462890625 4.3798828125 516.625976562 -5.8359375 c 1
 479.16796875 -6.6875 442.135742188 -6.6875 403.826171875 -6.6875 c 1
 368.071289062 1.826171875 407.65625 33.32421875 406.805664062 58.013671875 c 1
 406.380859375 58.439453125 l 1
 389.353515625 98.451171875 368.071289062 136.759765625 348.490234375 176.346679688 c 0
 339.977539062 187.4140625 326.78125 242.323242188 305.073242188 214.65625 c 1
262.08203125 385.879882812 m 4
 265.060546875 373.959960938 285.91796875 379.919921875 282.087890625 393.540039062 c 5
 282.087890625 394.392578125 l 5
 276.979492188 405.458007812 258.25 397.796875 262.08203125 385.879882812 c 4
265.060546875 387.581054688 m 4
 262.506835938 396.09375 275.703125 399.500976562 279.533203125 392.689453125 c 4
 282.087890625 382.474609375 267.615234375 379.919921875 265.060546875 387.581054688 c 4
274 50.3515625 m 0
 286.76953125 52.052734375 282.939453125 72.912109375 270.169921875 71.2080078125 c 0
 257.399414062 68.654296875 261.23046875 47.7978515625 274 50.3515625 c 0
270.169921875 68.2294921875 m 0
 279.108398438 69.9326171875 281.662109375 53.7568359375 273.1484375 52.90625 c 0
 264.211914062 51.203125 261.23046875 66.525390625 270.169921875 68.2294921875 c 0
EndSplineSet
Validated: 524325
EndChar

StartChar: uni0437
Encoding: 1079 1079 19
Width: 411
VWidth: 0
Flags: W
HStem: 30.2559 2.97266<165.858 214.521> 398.816 2.97168<31.2437 51.5582>
VStem: 11.8701 2.97363<89.9197 99.604>
LayerCount: 2
Fore
SplineSet
50.58984375 344.4765625 m 4
 62.4794921875 348.72265625 54.41015625 369.953125 40.8232421875 362.310546875 c 5
 40.8232421875 361.4609375 l 5
 31.4833984375 354.666015625 39.974609375 340.231445312 50.58984375 344.4765625 c 4
42.5234375 358.913085938 m 4
 51.0146484375 364.0078125 56.1103515625 349.572265625 49.31640625 347.0234375 c 4
 42.5234375 343.62890625 36.5791015625 354.666015625 42.5234375 358.913085938 c 4
237.76171875 211.987304688 m 4
 267.059570312 194.155273438 299.75390625 175.473632812 312.4921875 142.352539062 c 4
 320.561523438 120.2734375 317.163085938 95.2197265625 301.877929688 77.38671875 c 4
 275.552734375 44.267578125 230.96875 33.228515625 190.205078125 33.228515625 c 4
 132.883789062 33.228515625 73.4384765625 56.5810546875 38.6201171875 103.287109375 c 4
 30.552734375 113.48046875 11.8701171875 107.958007812 11.8701171875 94.3720703125 c 4
 13.14453125 85.03125 23.759765625 79.935546875 28.005859375 74.4140625 c 5
 28.8544921875 74.4140625 l 5
 76.4111328125 29.4072265625 137.5546875 -3.712890625 203.794921875 -8.8095703125 c 4
 258.993164062 -13.0546875 317.588867188 1.8076171875 356.654296875 42.5703125 c 4
 381.279296875 67.6201171875 393.16796875 104.986328125 382.129882812 138.954101562 c 4
 370.240234375 177.169921875 339.244140625 205.616210938 307.397460938 225.576171875 c 4
 300.603515625 231.51953125 290.413085938 231.095703125 298.056640625 234.91796875 c 5
 298.90625 234.91796875 l 5
 325.23046875 256.149414062 347.310546875 282.896484375 357.92578125 315.166992188 c 4
 368.541015625 349.13671875 361.323242188 386.92578125 338.8203125 413.676757812 c 4
 306.97265625 452.31640625 253.048828125 467.6015625 205.067382812 460.809570312 c 4
 149.868164062 453.1640625 100.614257812 420.89453125 61.9736328125 381.830078125 c 5
 60.27734375 389.474609375 59.001953125 400.512695312 47.9619140625 401.788085938 c 4
 38.6201171875 403.060546875 22.4873046875 401.788085938 18.6650390625 389.899414062 c 5
 30.552734375 296.059570312 l 5
 31.4033203125 296.059570312 l 5
 42.0185546875 285.01953125 58.5771484375 292.6640625 66.2197265625 301.155273438 c 5
 88.2998046875 347.862304688 124.817382812 392.0234375 175.76953125 406.458984375 c 4
 198.698242188 412.40234375 224.174804688 415.798828125 245.405273438 404.759765625 c 5
 246.254882812 404.759765625 l 5
 274.27734375 392.872070312 293.385742188 362.299804688 289.564453125 331.7265625 c 4
 285.318359375 292.6640625 257.720703125 260.393554688 228.419921875 234.91796875 c 4
 219.079101562 225.576171875 230.96875 215.385742188 237.76171875 211.987304688 c 4
354.954101562 315.591796875 m 4
 344.763671875 283.747070312 323.109375 258.270507812 296.784179688 237.041992188 c 5
 284.045898438 231.095703125 303.15234375 224.725585938 304.849609375 223.02734375 c 6
 305.700195312 223.02734375 l 5
 337.545898438 203.072265625 368.118164062 174.620117188 379.15625 138.106445312 c 4
 390.196289062 105.836914062 378.732421875 69.3193359375 354.954101562 44.693359375 c 4
 316.315429688 5.62890625 258.14453125 -9.6572265625 203.794921875 -5.4111328125 c 4
 138.404296875 -0.31640625 78.1103515625 31.9541015625 30.552734375 76.1123046875 c 5
 36.4990234375 69.3193359375 36.07421875 68.4697265625 30.552734375 76.1123046875 c 5
 25.03515625 82.908203125 16.1162109375 86.7294921875 14.84375 94.3720703125 c 5
 15.693359375 85.8779296875 14.84375 85.03125 14.84375 94.3720703125 c 5
 14.84375 104.986328125 29.2802734375 109.232421875 36.07421875 101.166015625 c 5
 30.552734375 107.958007812 30.552734375 108.80859375 36.07421875 101.166015625 c 5
 71.7412109375 53.609375 132.459960938 30.255859375 190.205078125 30.255859375 c 4
 231.393554688 30.255859375 277.251953125 41.720703125 304.000976562 75.689453125 c 4
 319.287109375 94.3720703125 323.534179688 120.696289062 315.46484375 143.201171875 c 4
 301.877929688 177.594726562 268.7578125 197.125976562 239.4609375 214.53515625 c 4
 231.818359375 217.932617188 224.174804688 226.848632812 230.119140625 232.794921875 c 4
 259.416992188 258.270507812 287.865234375 290.116210938 292.112304688 331.303710938 c 4
 296.357421875 363.572265625 276.401367188 395.418945312 247.103515625 408.15625 c 5
 255.170898438 404.334960938 255.595703125 403.91015625 247.526367188 408.15625 c 4
 225.024414062 420.046875 197.848632812 414.951171875 174.920898438 409.005859375 c 4
 122.268554688 393.719726562 85.751953125 351.258789062 63.673828125 303.27734375 c 5
 56.03125 295.211914062 42.0185546875 289.265625 33.525390625 297.7578125 c 5
 22.0615234375 389.474609375 l 5
 25.458984375 397.96484375 37.345703125 400.088867188 47.5390625 398.81640625 c 4
 56.8779296875 397.96484375 56.4541015625 386.500976562 59.8515625 378.009765625 c 6
 60.27734375 375.887695312 l 5
 61.9736328125 377.5859375 l 6
 100.614257812 416.6484375 149.868164062 449.768554688 205.067382812 457.411132812 c 4
 252.624023438 464.205078125 304.849609375 449.768554688 336.270507812 411.553710938 c 4
 358.3515625 385.227539062 365.568359375 347.862304688 354.954101562 315.591796875 c 4
343.489257812 61.6767578125 m 4
 355.379882812 65.9228515625 347.310546875 87.1533203125 333.72265625 79.5107421875 c 5
 333.72265625 78.6611328125 l 5
 324.3828125 71.8662109375 332.875 57.431640625 343.489257812 61.6767578125 c 4
335.422851562 76.1123046875 m 4
 343.915039062 81.2080078125 349.009765625 66.7724609375 342.215820312 64.2236328125 c 4
 335.422851562 60.828125 329.478515625 71.8662109375 335.422851562 76.1123046875 c 4
EndSplineSet
Validated: 37
EndChar

StartChar: uni0438
Encoding: 1080 1080 20
Width: 399
VWidth: 0
Flags: W
HStem: -8.37305 2.96387<244.584 361.612> -6.62109 2.9668<31.4465 145.398 240.506 302.827> 462.235 2.08594<29.1943 85.7588 87.5466 147.202>
VStem: 50.8428 3.38965<40.4402 407.196> 53.6123 3.38965<53.0442 418.999> 118.563 3.42773<156.103 408.325> 120.544 3.38867<160.133 418.219> 266.455 2.96484<39.6235 296.694> 268.394 3.85742<48.9292 300.724 391.378 419.285> 332.963 3.38965<38.254 403.789> 335.729 3.38965<50.057 416.436>
LayerCount: 2
Fore
SplineSet
53.6123046875 412.921875 m 4xaa
 53.5380859375 291.336914062 51.763671875 168.920898438 50.8427734375 47.3447265625 c 4
 50.7685546875 37.599609375 41.8056640625 28.771484375 32.0751953125 30.541015625 c 5
 13.427734375 29.4091796875 10.2470703125 1.052734375 26.7236328125 -5.005859375 c 5
 41.955078125 -7.6611328125 57.2197265625 -5.6591796875 72.0380859375 -6.6181640625 c 6
 72.46484375 -6.62109375 l 6
 95.7685546875 -5.951171875 119.4765625 -7.826171875 142.787109375 -6.7314453125 c 6
 143.208984375 -6.7353515625 l 5
 160.193359375 -1.7802734375 159.560546875 26.609375 141.79296875 29.708984375 c 5
 141.3671875 29.712890625 l 6
 132.88671875 28.50390625 123.6015625 33.236328125 121.971679688 41.720703125 c 4
 120.338867188 49.7822265625 120.830078125 58.67578125 121.734375 66.2939453125 c 5
 268.393554688 300.723632812 l 5x7080
 267.7421875 214.731445312 267.950195312 130.426757812 266.455078125 44.861328125 c 4
 265.534179688 35.126953125 256.153320312 27.1474609375 246.424804688 28.9169921875 c 5
 227.771484375 27.3623046875 225.85546875 -1.853515625 242.758789062 -7.4892578125 c 5
 243.60546875 -7.4951171875 l 6
 263.927734375 -9.3427734375 284.276367188 -7.37890625 303.756835938 -8.373046875 c 4
 322.400390625 -7.66796875 341.022460938 -9.9267578125 359.676757812 -8.375 c 5
 376.661132812 -2.9951171875 375.1875 26.24609375 356.5625 28.08203125 c 6
 355.716796875 28.0888671875 l 6
 345.9609375 26.4677734375 337.125 34.583984375 336.352539062 44.33203125 c 4xa140
 336.42578125 165.916992188 338.198242188 287.909179688 339.119140625 409.48828125 c 4
 339.192382812 419.229492188 348.580078125 428.477539062 358.310546875 426.709960938 c 6
 358.736328125 426.706054688 l 6
 377.383789062 427.837890625 380.564453125 456.194335938 364.087890625 462.252929688 c 5
 363.6640625 462.255859375 l 5
 348.434570312 464.911132812 333.16796875 462.909179688 318.346679688 463.868164062 c 4
 295.04296875 463.197265625 270.90625 464.653320312 247.598632812 463.556640625 c 5
 230.615234375 458.602539062 230.827148438 430.641601562 248.596679688 427.541015625 c 5
 249.018554688 427.537109375 l 6
 257.501953125 428.74609375 266.365234375 424.442382812 267.99609375 415.95703125 c 4
 269.62890625 407.89453125 269.984375 398.99609375 269.080078125 391.377929688 c 5
 121.991210938 156.102539062 l 5xa420
 122.642578125 242.094726562 122.4375 326.823242188 123.932617188 412.388671875 c 4
 124.853515625 422.123046875 133.811523438 430.104492188 143.541015625 428.336914062 c 6
 144.38671875 428.330078125 l 6
 163.040039062 429.8828125 164.104492188 458.682617188 147.202148438 464.317382812 c 5
 146.77734375 464.321289062 l 6
 126.458007812 466.169921875 106.11328125 464.62890625 86.6328125 465.623046875 c 4
 67.986328125 464.91796875 49.359375 466.75390625 30.7099609375 465.200195312 c 5
 13.72265625 459.822265625 14.7744140625 431.006835938 33.40234375 429.170898438 c 6
 34.2490234375 429.1640625 l 6
 44.00390625 430.78515625 52.8408203125 422.668945312 53.6123046875 412.921875 c 4xaa
272.250976562 306.625976562 m 6
 272.2890625 311.708984375 l 5
 118.775390625 67.162109375 l 5
 118.771484375 66.7412109375 l 6
 117.439453125 58.701171875 117.369140625 49.380859375 118.999023438 40.896484375 c 4
 121.46484375 30.7109375 131.592773438 25.5498046875 141.770507812 26.744140625 c 5
 155.305664062 24.099609375 157.670898438 0.78125 142.8125 -3.3427734375 c 5
 119.927734375 -4.439453125 95.3671875 -2.9833984375 72.060546875 -3.654296875 c 5
 81.3828125 -3.724609375 81.798828125 -4.5751953125 72.4873046875 -3.6572265625 c 4
 57.2421875 -2.6953125 42.40234375 -4.27734375 27.1728515625 -1.619140625 c 5
 13.654296875 3.56640625 16.794921875 26.419921875 32.052734375 27.5751953125 c 5
 44.326171875 25.7880859375 54.142578125 35.4580078125 54.232421875 47.3193359375 c 4x7080
 55.1533203125 168.895507812 56.927734375 291.310546875 57.001953125 412.895507812 c 4
 56.244140625 424.76171875 45.720703125 433.737304688 33.4248046875 432.13671875 c 5
 19.8818359375 433.932617188 16.6689453125 457.2578125 31.109375 462.233398438 c 5
 48.9150390625 463.79296875 67.9599609375 461.529296875 86.607421875 462.235351562 c 4
 106.93359375 461.234375 126.435546875 463.205078125 146.754882812 461.357421875 c 5
 160.278320312 457.017578125 158.40234375 432.8828125 143.563476562 431.302734375 c 5
 131.717773438 433.084960938 121.48046875 424.267578125 120.543945312 412.415039062 c 4x6a
 119.036132812 325.154296875 119.224609375 238.309570312 118.563476562 151.044921875 c 6
 118.518554688 145.114257812 l 5
 272.032226562 389.66015625 l 5
 272.0390625 390.505859375 l 6
 273.372070312 398.545898438 273.017578125 407.869140625 271.387695312 416.353515625 c 4
 268.922851562 426.5390625 259.21875 431.696289062 249.041015625 430.502929688 c 5
 235.505859375 433.146484375 233.140625 456.46484375 247.998046875 460.58984375 c 5
 270.883789062 461.686523438 295.017578125 459.80859375 318.321289062 460.48046875 c 5
 309.002929688 460.55078125 309.009765625 461.397460938 318.321289062 460.48046875 c 5
 333.56640625 459.516601562 347.98828125 461.94921875 363.219726562 459.291992188 c 5
 376.735351562 454.106445312 374.016601562 430.827148438 358.758789062 429.671875 c 5
 346.485351562 431.458007812 335.819335938 421.373046875 335.729492188 409.513671875 c 4x6420
 334.80859375 287.935546875 333.036132812 165.942382812 332.962890625 44.357421875 c 4
 333.719726562 32.4921875 344.244140625 23.5166015625 356.540039062 25.1162109375 c 5
 370.083007812 23.3203125 374.142578125 -0.0107421875 359.702148438 -4.986328125 c 5
 341.896484375 -6.5458984375 322.422851562 -4.7041015625 303.779296875 -5.4091796875 c 4
 283.452148438 -4.408203125 263.953125 -5.955078125 243.631835938 -4.107421875 c 5
 230.108398438 0.232421875 231.561523438 24.3701171875 246.40234375 25.951171875 c 5
 258.250976562 24.16796875 268.483398438 32.986328125 269.419921875 44.8388671875 c 4xa140
 270.928710938 132.099609375 271.58984375 219.36328125 272.250976562 306.625976562 c 6
302.634765625 402.985351562 m 4
 290.326171875 399.688476562 297.79296875 378.874023438 311.388671875 384.27734375 c 4
 321.6015625 390.129882812 313.682617188 407.13671875 302.634765625 402.985351562 c 4
303.4609375 400.012695312 m 4
 311.109375 402.920898438 316.943359375 390.58984375 310.135742188 386.40625 c 5
 310.135742188 386.40625 288.595703125 395.041015625 303.4609375 400.012695312 c 4
94.98828125 58.87109375 m 4
 92.146484375 74.9892578125 71.34375 69.2158203125 74.62890625 55.63671875 c 4
 77.935546875 44.595703125 95.74609375 47.0048828125 94.98828125 58.87109375 c 4
92.443359375 58.4658203125 m 4
 92.3828125 50.416015625 79.6572265625 48.3955078125 77.173828125 56.0390625 c 4
 74.703125 65.3798828125 89.9921875 70.3466796875 92.443359375 58.4658203125 c 4
EndSplineSet
Validated: 524325
EndChar

StartChar: uni0430
Encoding: 1072 1072 21
Width: 487
VWidth: 0
Flags: W
HStem: -13.5811 2.58203<23.7606 118.603 338.379 462.641> 19.9922 3.44336<19.9238 52.7795 118.937 121.558 440.092 464.034> 118.99 3.44336<145.84 311.028> 157.729 2.58301<161.511 295.803>
LayerCount: 2
Fore
SplineSet
351.326171875 -13.5810546875 m 0
 387.483398438 -12.7197265625 425.791992188 -14.01171875 461.947265625 -13.1513671875 c 2
 462.375976562 -13.1513671875 l 1
 480.884765625 -7.986328125 478.733398438 22.5732421875 458.932617188 23.435546875 c 2
 448.603515625 23.435546875 l 2
 437.412109375 22.5732421875 429.234375 32.904296875 426.651367188 44.095703125 c 0
 373.708984375 180.969726562 322.05859375 318.706054688 269.116210938 455.580078125 c 0
 259.646484375 474.088867188 229.516601562 471.936523438 223.4921875 452.137695312 c 0
 169.2578125 311.8203125 115.885742188 170.639648438 61.65234375 30.322265625 c 1
 54.19140625 19.546875 40.4931640625 24.3203125 27.21875 23.435546875 c 0
 7.4189453125 23.435546875 4.40625 -6.693359375 21.6240234375 -12.7197265625 c 1
 22.052734375 -13.1513671875 l 1
 26.083984375 -13.755859375 120.189453125 -15.080078125 120.189453125 -12.7197265625 c 1
 120.619140625 -12.7197265625 l 1
 137.838867188 -6.693359375 133.962890625 23.435546875 114.1640625 23.435546875 c 0
 105.555664062 21.7138671875 115.885742188 31.1826171875 116.747070312 39.7919921875 c 1
 126.216796875 65.6162109375 133.962890625 91.44140625 143.43359375 115.545898438 c 1
 150.318359375 122.43359375 161.510742188 117.266601562 171.840820312 118.990234375 c 0
 217.465820312 118.990234375 263.521484375 119.850585938 308.284179688 118.990234375 c 1
 317.754882812 114.684570312 316.462890625 102.633789062 321.627929688 93.1630859375 c 2
 346.162109375 24.2958984375 l 1
 333.25 25.1572265625 323.350585938 13.1044921875 326.793945312 0.19140625 c 0
 329.375976562 -12.7197265625 340.997070312 -15.302734375 351.326171875 -13.5810546875 c 0
449.034179688 19.9921875 m 2
 458.932617188 19.9921875 l 2
 474.427734375 19.130859375 477.01171875 -5.8349609375 461.947265625 -10.1376953125 c 1
 425.791992188 -10.9990234375 387.053710938 -10.1376953125 350.897460938 -10.9990234375 c 0
 341.427734375 -12.7197265625 331.958984375 -8.845703125 330.237304688 0.623046875 c 2
 330.237304688 1.0517578125 l 1
 326.793945312 12.244140625 336.692382812 23.435546875 347.885742188 20.853515625 c 2
 351.326171875 19.5615234375 l 1
 324.211914062 94.4541015625 l 2
 319.907226562 102.204101562 320.767578125 117.69921875 309.577148438 122.001953125 c 1
 308.715820312 122.001953125 l 2
 263.08984375 122.86328125 217.465820312 122.43359375 171.840820312 122.43359375 c 0
 163.232421875 120.7109375 149.028320312 126.736328125 141.280273438 118.12890625 c 1
 141.280273438 117.266601562 l 1
 140.850585938 117.266601562 l 1
 130.521484375 91.8720703125 123.204101562 65.6162109375 113.734375 40.2216796875 c 1
 113.734375 39.7919921875 l 2
 113.734375 37.2080078125 100.823242188 18.2705078125 114.1640625 20.853515625 c 1
 129.659179688 20.853515625 133.102539062 -4.5419921875 119.330078125 -9.70703125 c 1
 104.000976562 -12.4111328125 76.72265625 -11.1953125 74.564453125 -10.9990234375 c 0
 56.4873046875 -10.1376953125 40.9931640625 -12.2890625 22.9150390625 -9.70703125 c 1
 9.5712890625 -3.6826171875 11.72265625 20.853515625 27.21875 20.853515625 c 2
 28.080078125 20.853515625 l 2
 40.1533203125 20.853515625 56.158203125 17.0625 63.3740234375 29.890625 c 0
 63.390625 29.9345703125 63.4072265625 29.9755859375 63.423828125 30.01953125 c 0
 117.641601562 170.294921875 172.71875 311.432617188 225.212890625 452.568359375 c 0
 232.530273438 471.936523438 263.08984375 471.5078125 268.686523438 452.998046875 c 1
 264.381835938 461.606445312 275.572265625 435.78125 279.016601562 427.173828125 c 0
 331.958984375 290.297851562 371.127929688 180.109375 424.069335938 43.234375 c 1
 421.486328125 51.8427734375 421.486328125 53.1337890625 423.208007812 43.666015625 c 0
 425.791992188 30.751953125 435.259765625 19.130859375 449.034179688 19.9921875 c 2
229.947265625 337.21484375 m 1
 228.657226562 341.087890625 l 1
 226.934570312 337.21484375 l 2
 203.69140625 277.815429688 180.879882812 218.84765625 157.206054688 159.44921875 c 1
 156.346679688 157.728515625 l 1
 300.96875 157.728515625 l 1
 300.106445312 159.44921875 l 1
 276.86328125 218.84765625 253.190429688 277.815429688 229.947265625 337.21484375 c 1
228.657226562 332.049804688 m 1
 234.094726562 318.034179688 239.534179688 304.044921875 244.97265625 290.080078125 c 0
 261.916015625 246.577148438 278.861328125 203.321289062 295.802734375 160.311523438 c 1
 161.510742188 160.311523438 l 1
 173.063476562 188.977539062 184.19140625 217.541015625 195.2109375 245.997070312 c 0
 195.984375 247.998046875 196.758789062 249.997070312 197.532226562 251.997070312 c 0
 199.62890625 257.413085938 201.721679688 262.825195312 203.813476562 268.233398438 c 0
 212.063476562 289.56640625 220.299804688 310.837890625 228.657226562 332.049804688 c 1
239.403320312 377.6875 m 4
 241.127929688 364.34375 263.077148438 367.788085938 260.495117188 382.421875 c 4
 257.052734375 395.333984375 236.823242188 390.599609375 239.403320312 377.6875 c 4
257.052734375 381.9921875 m 4
 258.774414062 371.661132812 243.708007812 370.799804688 242.84765625 378.547851562 c 4
 241.127929688 387.157226562 254.469726562 390.599609375 257.052734375 381.9921875 c 4
373.280273438 54.423828125 m 0
 375.861328125 41.513671875 396.5234375 45.8173828125 394.799804688 59.591796875 c 2
 391.356445312 72.50390625 370.698242188 67.3388671875 373.280273438 54.423828125 c 0
375.861328125 55.2861328125 m 0
 374.140625 63.89453125 388.775390625 66.4765625 391.356445312 57.8701171875 c 1
 391.356445312 57.8701171875 378.444335938 39.7919921875 375.861328125 55.2861328125 c 0
EndSplineSet
Validated: 37
EndChar

StartChar: uni043F
Encoding: 1087 1087 22
Width: 364
VWidth: 0
Flags: W
HStem: -4.70801 2.85254<28.0966 146.575 221.452 339.928> 411.086 2.85156<121.476 246.384> 456.716 2.85156<28.0877 340.115>
VStem: 49.6084 2.85254<400.44 419.222> 52.4609 3.42285<40.5432 185.709> 78.1279 3.42188<390.199 398.132> 118.623 2.85254<42.2979 411.086> 246.384 2.85156<41.0966 411.086> 269.198 2.85254<54.91 64.2143> 313.688 3.4209<37.4096 417.252>
LayerCount: 2
Fore
SplineSet
52.4609375 46.625 m 0xefc0
 51.8916015625 36.927734375 42.765625 28.9443359375 33.068359375 30.6552734375 c 2
 32.498046875 30.6552734375 l 2
 14.248046875 28.9443359375 12.5361328125 0.42578125 29.6455078125 -4.7080078125 c 1
 30.216796875 -4.7080078125 l 2
 69.001953125 -4.7080078125 107.786132812 -6.9892578125 143.719726562 -4.7080078125 c 1
 144.2890625 -4.7080078125 l 1
 161.401367188 -0.14453125 160.259765625 27.802734375 142.578125 30.6552734375 c 1
 142.006835938 30.6552734375 l 2
 134.022460938 29.5146484375 125.466796875 33.505859375 123.186523438 41.4912109375 c 0
 122.045898438 44.34375 121.475585938 47.1943359375 121.475585938 50.046875 c 2
 121.475585938 411.0859375 l 1
 246.383789062 411.0859375 l 1
 246.383789062 289.598632812 246.954101562 168.111328125 246.383789062 46.625 c 0
 245.813476562 36.927734375 236.688476562 28.9443359375 226.993164062 30.6552734375 c 2
 226.421875 30.6552734375 l 2
 208.169921875 28.9443359375 205.887695312 0.42578125 222.999023438 -4.7080078125 c 1
 223.569335938 -4.7080078125 l 2
 262.354492188 -4.7080078125 301.708984375 -6.9892578125 337.642578125 -4.7080078125 c 1
 354.751953125 -0.14453125 353.61328125 27.802734375 335.931640625 30.6552734375 c 1
 327.375976562 29.5146484375 319.391601562 33.505859375 317.108398438 40.9208984375 c 0
 313.116210938 164.690429688 314.826171875 299.295898438 315.3984375 408.234375 c 0
 315.96875 417.930664062 324.524414062 425.916015625 334.219726562 424.204101562 c 1
 352.471679688 425.344726562 355.893554688 453.291992188 339.354492188 459.567382812 c 1
 338.783203125 459.567382812 l 1
 236.1171875 461.848632812 122.616210938 461.278320312 31.927734375 460.708007812 c 1
 14.248046875 457.85546875 13.1064453125 429.336914062 30.216796875 424.775390625 c 1
 30.787109375 424.775390625 l 2
 38.7734375 424.204101562 46.1875 423.633789062 49.6083984375 417.360351562 c 1xf7c0
 58.1640625 293.591796875 53.03125 156.704101562 52.4609375 46.625 c 0xefc0
118.623046875 50.046875 m 2
 118.623046875 46.625 119.193359375 43.2021484375 120.333984375 40.3505859375 c 1
 117.483398438 48.9052734375 118.052734375 48.9052734375 120.333984375 40.3505859375 c 1
 123.186523438 30.6552734375 132.311523438 26.6630859375 142.006835938 27.802734375 c 1
 155.125976562 25.5205078125 157.977539062 2.13671875 143.719726562 -1.85546875 c 1
 108.356445312 -4.138671875 69.572265625 -2.4267578125 30.216796875 -1.85546875 c 1
 17.6689453125 2.7080078125 18.23828125 25.5205078125 33.068359375 27.802734375 c 1
 44.4755859375 25.5205078125 55.3125 34.076171875 55.8837890625 46.625 c 0xefc0
 56.453125 156.704101562 61.015625 294.162109375 52.4609375 417.930664062 c 1
 52.4609375 418.500976562 l 1
 48.4697265625 427.626953125 38.7734375 427.626953125 30.787109375 428.197265625 c 0
 17.6689453125 432.189453125 17.6689453125 454.434570312 32.498046875 457.286132812 c 1
 123.186523438 457.85546875 234.977539062 458.99609375 338.212890625 456.715820312 c 1
 350.76171875 451.58203125 349.620117188 428.768554688 334.790039062 427.626953125 c 1
 323.3828125 429.336914062 313.116210938 420.212890625 312.546875 408.805664062 c 0
 311.975585938 299.866210938 309.6953125 164.119140625 313.6875 40.9208984375 c 1
 313.6875 40.3505859375 l 1
 316.5390625 30.6552734375 326.234375 26.6630859375 335.931640625 27.802734375 c 1
 349.048828125 25.5205078125 351.331054688 2.7080078125 337.072265625 -1.85546875 c 1
 301.708984375 -4.138671875 263.495117188 -2.4267578125 224.140625 -1.85546875 c 1
 211.591796875 2.7080078125 211.591796875 25.5205078125 226.421875 27.802734375 c 1
 237.829101562 26.091796875 248.666015625 34.076171875 249.235351562 46.625 c 0
 249.806640625 168.681640625 249.806640625 290.169921875 249.806640625 412.2265625 c 2
 249.806640625 413.9375 l 1
 118.623046875 413.9375 l 1
 118.623046875 50.046875 l 2
269.198242188 59.8349609375 m 4
 269.198242188 43.294921875 292.583984375 48.998046875 289.732421875 63.2578125 c 4
 286.30859375 74.0947265625 268.62890625 71.2421875 269.198242188 59.8349609375 c 4
286.30859375 62.6865234375 m 4
 288.58984375 52.990234375 272.05078125 47.287109375 272.05078125 59.8349609375 c 4
 271.48046875 67.8193359375 284.029296875 70.1015625 286.30859375 62.6865234375 c 4
78.1279296875 393.165039062 m 1
 82.69140625 377.194335938 103.223632812 382.329101562 98.66015625 397.157226562 c 0
 95.23828125 407.995117188 77.5576171875 404.571289062 78.1279296875 393.165039062 c 1
81.5498046875 393.736328125 m 0
 81.5498046875 401.721679688 93.52734375 403.431640625 95.8095703125 396.017578125 c 0
 99.2294921875 385.180664062 84.970703125 381.186523438 81.5498046875 393.736328125 c 0
EndSplineSet
Validated: 524325
EndChar

StartChar: uni0440
Encoding: 1088 1088 23
Width: 382
VWidth: 0
Flags: W
HStem: -8.2002 3<21.7486 139.65> 225.8 3<115.8 253.156> 265.4 3<115.8 216.408> 421.4 3.59961<115.8 225.957> 425 3<23.1248 37.8601> 459.2 3<22.1221 253.019>
VStem: 46.2002 3.59961<37.3162 396.603> 112.8 3<39.4814 225.8 268.4 421.4>
LayerCount: 2
Fore
SplineSet
150 3.2001953125 m 0xef
 154.799804688 16.400390625 144 30.7998046875 130.200195312 28.400390625 c 0
 121.200195312 29 115.799804688 38.599609375 115.799804688 47 c 2
 115.799804688 225.799804688 l 1
 159.599609375 226.400390625 202.200195312 225.200195312 246 226.400390625 c 0
 298.200195312 230 349.799804688 264.799804688 363 317 c 0
 375 360.200195312 355.200195312 408.200195312 319.799804688 434 c 0
 291 456.200195312 253.200195312 464.599609375 217.799804688 462.799804688 c 0
 154.200195312 462.799804688 88.7998046875 462.799804688 25.2001953125 462.200195312 c 2
 24.599609375 462.200195312 l 1
 6 457.400390625 8.400390625 425.599609375 28.2001953125 425 c 2
 28.7998046875 425 l 1
 40.7998046875 427.400390625 49.2001953125 413.599609375 47.400390625 402.200195312 c 0
 47.400390625 282.799804688 46.7998046875 163.400390625 46.2001953125 44 c 0
 45.599609375 33.7998046875 36.599609375 26 27 27.7998046875 c 2
 26.400390625 27.7998046875 l 2
 7.7998046875 26 6.599609375 -3.400390625 24 -8.2001953125 c 1
 24.599609375 -8.2001953125 l 2
 58.2001953125 -9.400390625 91.2001953125 -8.2001953125 124.799804688 -8.7998046875 c 0
 133.799804688 -10 147 -8.2001953125 150 3.2001953125 c 0xef
112.799804688 47 m 2
 112.799804688 37.400390625 118.799804688 24.7998046875 130.200195312 24.7998046875 c 2
 130.799804688 24.7998046875 l 1
 141.599609375 27.2001953125 151.200195312 14.599609375 147 4.400390625 c 0
 144.599609375 -4.599609375 134.400390625 -6.400390625 125.400390625 -5.2001953125 c 2
 124.799804688 -5.2001953125 l 2
 91.2001953125 -4.599609375 58.7998046875 -6.400390625 24.599609375 -5.2001953125 c 1
 11.400390625 -1 11.400390625 22.400390625 26.400390625 24.7998046875 c 1
 37.7998046875 23 49.2001953125 32 49.7998046875 44 c 0
 50.400390625 163.400390625 49.7998046875 282.799804688 49.7998046875 402.200195312 c 1
 49.2001953125 393.200195312 48.599609375 393.200195312 49.7998046875 402.200195312 c 1
 51.599609375 414.200195312 43.7998046875 430.400390625 28.2001953125 428 c 1
 13.2001953125 428.599609375 9.599609375 455 25.2001953125 459.200195312 c 1
 88.7998046875 459.799804688 154.799804688 459.200195312 218.400390625 459.200195312 c 0
 253.799804688 461 289.799804688 453.799804688 318 431.599609375 c 0
 352.799804688 406.400390625 370.799804688 360.200195312 359.400390625 318.200195312 c 0
 346.200195312 267.799804688 297 233 246 229.400390625 c 0
 202.200195312 228.200195312 157.799804688 229.400390625 114 228.799804688 c 2
 112.799804688 228.799804688 l 1
 112.799804688 227.599609375 l 1
 112.799804688 47 l 2
82.2001953125 45.2001953125 m 0
 94.2001953125 48.7998046875 86.400390625 70.400390625 73.2001953125 65 c 0
 63 59 70.7998046875 41 82.2001953125 45.2001953125 c 0
81 48.7998046875 m 0
 73.2001953125 45.7998046875 67.7998046875 57.7998046875 74.400390625 62 c 0
 84.599609375 65.599609375 88.2001953125 51.2001953125 81 48.7998046875 c 0
220.799804688 421.400390625 m 1xf7
 252 417.200195312 271.200195312 385.400390625 274.200195312 355.400390625 c 0
 277.799804688 322.400390625 264 285.200195312 232.799804688 272 c 1
 193.799804688 265.400390625 156 268.400390625 115.799804688 268.400390625 c 1
 115.799804688 421.400390625 l 1
 151.200195312 421.400390625 186 422.599609375 220.799804688 421.400390625 c 1xf7
112.799804688 425 m 1xef
 112.799804688 265.400390625 l 1
 114.599609375 265.400390625 l 2
 156 265.400390625 193.799804688 262.400390625 233.400390625 269 c 1
 234 269 l 1
 267.599609375 282.799804688 282 322.400390625 277.799804688 356 c 0
 274.799804688 386.599609375 254.400390625 419.599609375 221.400390625 424.400390625 c 1
 186 425.599609375 150 425 114.599609375 425 c 2
 112.799804688 425 l 1xef
311.400390625 389.599609375 m 4
 299.400390625 386 307.799804688 365 321 370.400390625 c 4
 331.200195312 376.400390625 322.799804688 393.799804688 311.400390625 389.599609375 c 4
313.200195312 386.599609375 m 4
 321 389.599609375 326.400390625 377.599609375 319.799804688 373.400390625 c 4
 309.599609375 369.799804688 306 384.200195312 313.200195312 386.599609375 c 4
EndSplineSet
Validated: 524325
EndChar

StartChar: uni043D
Encoding: 1085 1085 24
Width: 422
VWidth: 0
Flags: W
HStem: -2.83496 3.21191<25.1017 154.061 265.66 394.887> 211.018 3.21191<125.051 295.875> 243.771 3.21191<125.051 295.875> 457.623 3.21191<24.7427 154.828 265.452 394.702>
VStem: 56.335 3.20996<44.5427 413.393> 121.84 3.21094<44.6067 211.018 246.982 415.598> 295.234 2.56836<42.7945 209.743> 320.28 3.20996<59.4117 67.421> 361.379 3.21094<44.6067 415.047>
LayerCount: 2
Fore
SplineSet
295.234375 47.8994140625 m 2
 295.875 377.990234375 l 1
 295.875 246.982421875 l 1
 125.05078125 246.982421875 l 1
 125.05078125 301.568359375 124.408203125 356.155273438 125.05078125 410.100585938 c 0
 125.692382812 419.732421875 135.325195312 426.797851562 144.958984375 424.87109375 c 1
 160.373046875 422.302734375 172.573242188 441.568359375 162.297851562 453.76953125 c 0
 153.306640625 465.330078125 136.609375 459.549804688 125.692382812 460.834960938 c 1
 85.876953125 460.834960938 l 2
 66.6103515625 460.834960938 46.7021484375 460.834960938 27.4345703125 460.192382812 c 2
 26.794921875 460.192382812 l 1
 11.380859375 456.98046875 8.169921875 433.861328125 22.9404296875 426.797851562 c 0
 33.857421875 421.016601562 46.7021484375 428.725585938 52.482421875 418.450195312 c 0
 59.544921875 406.889648438 55.0498046875 392.118164062 56.3349609375 377.990234375 c 0
 56.3349609375 268.17578125 56.3349609375 159.000976562 55.6923828125 49.1845703125 c 0
 55.0498046875 38.9072265625 46.060546875 30.560546875 36.427734375 33.12890625 c 0
 22.2998046875 36.33984375 8.8125 22.8525390625 14.591796875 8.7255859375 c 0
 19.087890625 -4.1181640625 33.857421875 -3.4765625 43.490234375 -2.8349609375 c 0
 79.455078125 -2.1923828125 116.059570312 -3.4765625 152.0234375 -2.1923828125 c 1
 167.435546875 1.01953125 170.005859375 24.138671875 155.875 31.2021484375 c 0
 145.600585938 36.9833984375 134.684570312 29.91796875 128.904296875 39.5498046875 c 0
 121.83984375 51.1103515625 126.334960938 65.8818359375 125.05078125 80.009765625 c 2
 125.05078125 211.017578125 l 1
 295.875 211.017578125 l 1
 295.875 156.431640625 295.875 101.844726562 295.234375 47.8994140625 c 2
295.875 377.348632812 m 2
 295.234375 47.8994140625 l 2
 294.591796875 38.267578125 285.6015625 31.2021484375 275.96875 33.12890625 c 0
 261.197265625 36.33984375 248.353515625 18.3583984375 256.702148438 5.5146484375 c 0
 265.049804688 -8.6142578125 283.032226562 -1.5498046875 293.94921875 -2.8349609375 c 1
 326.701171875 -2.1923828125 360.095703125 -3.4765625 392.84765625 -2.1923828125 c 1
 408.260742188 1.01953125 411.471679688 24.138671875 396.700195312 31.2021484375 c 0
 385.784179688 36.9833984375 374.223632812 29.2744140625 368.4453125 39.5498046875 c 0
 361.37890625 51.1103515625 365.875976562 65.8818359375 364.58984375 80.009765625 c 0
 364.58984375 189.82421875 363.950195312 298.999023438 364.58984375 408.815429688 c 0
 365.233398438 419.092773438 374.223632812 427.439453125 384.499023438 424.87109375 c 0
 399.26953125 421.66015625 412.114257812 438.358398438 404.408203125 451.202148438 c 0
 396.700195312 465.330078125 378.720703125 460.192382812 367.801757812 460.834960938 c 1
 334.407226562 460.192382812 301.655273438 461.4765625 268.259765625 460.192382812 c 2
 267.620117188 460.192382812 l 1
 251.564453125 456.98046875 248.994140625 432.577148438 264.408203125 426.154296875 c 0
 274.682617188 421.016601562 286.2421875 428.08203125 292.022460938 418.450195312 c 0
 299.086914062 406.889648438 294.591796875 391.4765625 295.875 377.348632812 c 2
121.83984375 245.697265625 m 2
 121.83984375 243.770507812 l 1
 299.086914062 243.770507812 l 1
 299.086914062 377.990234375 l 2
 297.802734375 390.833984375 302.297851562 407.532226562 294.591796875 420.375976562 c 0
 288.169921875 431.935546875 273.399414062 426.154296875 265.693359375 429.366210938 c 0
 253.491210938 434.50390625 255.416992188 454.412109375 268.259765625 456.98046875 c 0
 301.012695312 458.265625 334.407226562 456.98046875 367.801757812 457.623046875 c 0
 380.64453125 456.337890625 395.416992188 461.4765625 401.838867188 449.916992188 c 0
 408.260742188 438.999023438 397.342773438 424.87109375 385.142578125 427.439453125 c 0
 372.939453125 430.008789062 362.022460938 420.375976562 361.37890625 408.815429688 c 0
 360.73828125 298.999023438 361.37890625 189.82421875 361.37890625 80.009765625 c 0
 362.665039062 67.166015625 358.169921875 50.4677734375 365.875976562 37.6240234375 c 0
 372.939453125 25.4228515625 387.709960938 32.486328125 395.416992188 28.634765625 c 0
 406.9765625 22.8525390625 404.408203125 3.587890625 392.205078125 1.01953125 c 0
 360.095703125 -0.2646484375 326.701171875 1.01953125 293.94921875 0.376953125 c 0
 281.104492188 1.662109375 266.334960938 -4.1181640625 259.270507812 7.4404296875 c 0
 252.205078125 17.7177734375 263.125 33.12890625 275.325195312 30.560546875 c 0
 286.884765625 27.9912109375 296.517578125 36.33984375 297.802734375 47.8994140625 c 0
 298.4453125 102.487304688 299.086914062 157.71484375 299.086914062 212.302734375 c 2
 299.086914062 214.229492188 l 1
 121.83984375 214.229492188 l 1
 121.83984375 80.009765625 l 2
 123.125 67.166015625 117.987304688 50.4677734375 125.692382812 37.6240234375 c 0
 132.115234375 26.064453125 146.885742188 32.486328125 154.591796875 28.634765625 c 0
 166.151367188 22.8525390625 163.583007812 3.587890625 151.379882812 1.01953125 c 0
 116.059570312 -0.2646484375 79.455078125 1.01953125 43.490234375 0.376953125 c 0
 33.2158203125 -0.2646484375 20.373046875 -0.2646484375 17.1611328125 10.0087890625 c 0
 12.666015625 20.927734375 24.224609375 33.12890625 35.7841796875 30.560546875 c 0
 47.98828125 27.9912109375 58.26171875 37.6240234375 58.904296875 49.1845703125 c 0
 58.904296875 97.9931640625 59.544921875 147.44140625 59.544921875 196.247070312 c 2
 59.544921875 377.990234375 l 2
 58.26171875 390.833984375 62.7568359375 407.532226562 55.0498046875 420.375976562 c 0
 47.98828125 432.577148438 31.2900390625 424.87109375 23.5830078125 429.366210938 c 0
 12.0234375 435.147460938 15.2353515625 454.412109375 27.4345703125 456.98046875 c 0
 46.060546875 457.623046875 64.6845703125 457.623046875 83.94921875 457.623046875 c 2
 120.5546875 457.623046875 l 1
 121.197265625 457.623046875 l 1
 121.83984375 457.623046875 l 1
 125.692382812 457.623046875 l 1
 121.83984375 457.623046875 l 1
 121.197265625 458.265625 l 1
 120.5546875 458.265625 l 1
 119.270507812 458.265625 l 1
 119.913085938 458.265625 l 2
 121.197265625 458.265625 123.125 457.623046875 125.692382812 457.623046875 c 0
 138.537109375 456.337890625 152.0234375 462.118164062 159.729492188 451.842773438 c 0
 168.078125 442.209960938 157.802734375 425.513671875 145.600585938 427.439453125 c 0
 134.041992188 430.008789062 123.125 421.66015625 121.83984375 410.100585938 c 0
 121.197265625 355.512695312 121.83984375 300.28515625 121.83984375 245.697265625 c 2
96.15234375 392.760742188 m 0
 93.58203125 408.172851562 71.748046875 401.751953125 75.599609375 388.907226562 c 0
 78.8115234375 377.990234375 96.7939453125 381.201171875 96.15234375 392.760742188 c 0
92.94140625 392.760742188 m 0
 93.58203125 385.0546875 82.0224609375 382.485351562 79.455078125 390.193359375 c 0
 76.8857421875 398.540039062 90.37109375 403.677734375 92.94140625 392.760742188 c 0
320.280273438 63.955078125 m 0
 320.280273438 47.8994140625 346.609375 52.39453125 340.830078125 67.806640625 c 1
 343.400390625 59.4599609375 343.400390625 58.8173828125 340.830078125 67.166015625 c 0
 337.619140625 78.0830078125 319.63671875 75.5146484375 320.280273438 63.955078125 c 0
323.490234375 63.955078125 m 0
 322.84765625 71.6611328125 335.692382812 74.2294921875 337.619140625 66.5234375 c 0
 341.471679688 55.60546875 323.490234375 52.39453125 323.490234375 63.955078125 c 0
EndSplineSet
Validated: 37
EndChar

StartChar: uni043E
Encoding: 1086 1086 25
Width: 495
VWidth: 0
Flags: W
HStem: 425.1 3.08105<226.757 270.19> 456.667 3.08105<210.285 293.889>
VStem: 10.5986 2.30957<204.903 246.077>
LayerCount: 2
Fore
SplineSet
14.4482421875 204.903320312 m 2
 12.908203125 222.609375 l 2
 12.908203125 246.477539062 15.98828125 270.344726562 23.6865234375 292.673828125 c 0
 36.0048828125 335.7890625 61.4140625 374.28515625 95.2900390625 402.772460938 c 0
 119.157226562 422.020507812 145.334960938 438.958984375 174.591796875 447.428710938 c 0
 208.469726562 458.977539062 251.424804688 461.286132812 286.842773438 456.666992188 c 4
 308.3984375 452.818359375 330.7265625 446.658203125 350.744140625 437.418945312 c 4
 386.161132812 422.020507812 415.41796875 397.3828125 439.28515625 367.356445312 c 4
 458.533203125 341.948242188 473.162109375 312.692382812 480.091796875 281.89453125 c 4
 492.41015625 235.69921875 487.791992188 185.655273438 470.08203125 140.999023438 c 4
 463.153320312 123.290039062 453.9140625 107.12109375 443.134765625 90.18359375 c 5
 448.525390625 97.8837890625 448.525390625 97.1123046875 443.134765625 90.18359375 c 5
 426.197265625 69.3955078125 407.71875 48.6083984375 385.390625 33.9794921875 c 5
 384.62109375 33.9794921875 l 5
 370.762695312 23.9697265625 356.904296875 16.2705078125 339.965820312 10.1123046875 c 4
 296.849609375 -6.826171875 243.115234375 -11.447265625 197.689453125 -0.6669921875 c 0
 179.98046875 2.4130859375 163.8125 7.8017578125 146.875 15.5009765625 c 0
 98.369140625 38.599609375 56.7939453125 80.173828125 34.466796875 130.219726562 c 0
 23.6865234375 154.087890625 15.98828125 178.725585938 14.4482421875 204.903320312 c 2
386.931640625 31.669921875 m 4
 410.029296875 47.068359375 428.5078125 67.0869140625 445.446289062 88.6435546875 c 4
 456.224609375 105.583007812 465.462890625 121.750976562 473.162109375 139.458984375 c 4
 490.87109375 184.884765625 494.720703125 235.69921875 482.401367188 282.6640625 c 4
 474.702148438 314.231445312 460.844726562 343.48828125 441.596679688 368.89453125 c 4
 417.728515625 398.923828125 387.702148438 425.099609375 352.284179688 440.499023438 c 4
 332.266601562 449.737304688 309.939453125 455.897460938 287.611328125 459.748046875 c 4
 251.424804688 464.366210938 208.469726562 461.286132812 173.823242188 449.737304688 c 0
 143.793945312 440.499023438 116.84765625 424.330078125 92.98046875 405.081054688 c 0
 59.1025390625 375.826171875 32.9248046875 336.559570312 20.607421875 293.444335938 c 0
 12.908203125 270.344726562 10.5986328125 246.477539062 10.5986328125 222.609375 c 2
 11.3671875 204.903320312 l 2
 12.908203125 178.725585938 20.607421875 152.547851562 31.3857421875 128.6796875 c 0
 53.71484375 77.865234375 94.5205078125 37.05859375 144.564453125 13.19140625 c 0
 161.50390625 5.4931640625 179.2109375 -0.6669921875 196.919921875 -3.748046875 c 0
 242.345703125 -14.525390625 296.849609375 -9.90625 340.736328125 7.0322265625 c 4
 357.673828125 13.19140625 373.072265625 20.890625 386.931640625 31.669921875 c 4
56.0234375 228 m 0
 53.71484375 241.857421875 31.3857421875 237.239257812 35.236328125 223.379882812 c 1
 33.6962890625 232.620117188 33.6962890625 233.390625 35.236328125 224.150390625 c 0
 37.5458984375 210.291015625 59.873046875 214.91015625 56.0234375 228 c 0
52.943359375 227.229492188 m 2
 55.2529296875 217.991210938 39.85546875 214.91015625 38.3154296875 224.150390625 c 0
 36.0048828125 233.390625 51.4033203125 237.239257812 52.943359375 228 c 2
 52.943359375 227.229492188 l 2
85.28125 167.17578125 m 0
 93.75 131.759765625 110.6875 99.421875 135.326171875 73.2451171875 c 0
 157.654296875 50.1474609375 186.91015625 32.439453125 219.247070312 26.2802734375 c 0
 240.805664062 21.6611328125 269.1328125 23.2001953125 290.69140625 28.58984375 c 4
 317.638671875 36.2890625 343.044921875 51.6875 362.293945312 71.7060546875 c 4
 383.08203125 92.4931640625 398.479492188 117.130859375 408.489257812 144.849609375 c 4
 426.197265625 193.353515625 426.966796875 248.018554688 412.337890625 296.522460938 c 4
 406.1796875 316.541015625 396.940429688 335.01953125 385.390625 352.728515625 c 4
 366.913085938 379.67578125 341.506835938 402.772460938 311.477539062 415.861328125 c 4
 291.4609375 425.099609375 263.1328125 428.950195312 241.575195312 428.180664062 c 0
 223.8671875 427.41015625 206.157226562 424.330078125 189.221679688 416.630859375 c 0
 169.203125 408.162109375 153.034179688 393.533203125 136.095703125 378.905273438 c 0
 112.997070312 353.497070312 95.2900390625 323.469726562 86.8203125 290.36328125 c 0
 75.271484375 250.327148438 74.501953125 207.211914062 85.28125 167.17578125 c 0
138.405273438 376.594726562 m 0
 153.8046875 391.223632812 170.741210938 405.081054688 190.759765625 413.551757812 c 0
 207.69921875 420.48046875 224.63671875 424.330078125 242.345703125 425.099609375 c 0
 263.90234375 425.87109375 290.69140625 422.020507812 309.939453125 412.78125 c 4
 339.1953125 400.462890625 364.603515625 378.134765625 382.3125 351.1875 c 4
 393.861328125 334.249023438 403.099609375 315.000976562 409.259765625 295.752929688 c 4
 423.88671875 247.248046875 423.1171875 194.124023438 405.409179688 146.388671875 c 4
 395.400390625 119.440429688 380.002929688 93.263671875 359.984375 73.2451171875 c 4
 340.736328125 53.2275390625 316.09765625 39.369140625 289.920898438 31.669921875 c 4
 269.1328125 26.2802734375 240.805664062 25.5107421875 220.017578125 29.3603515625 c 0
 188.451171875 35.51953125 159.963867188 53.2275390625 137.635742188 75.5546875 c 0
 112.997070312 100.962890625 96.0595703125 133.299804688 88.3603515625 167.946289062 c 0
 77.58203125 207.211914062 78.3515625 249.557617188 89.900390625 288.82421875 c 0
 98.369140625 321.930664062 115.307617188 351.958984375 138.405273438 376.594726562 c 0
445.446289062 221.071289062 m 4
 454.684570312 211.060546875 469.313476562 219.53125 463.153320312 232.620117188 c 5
 463.153320312 233.390625 l 5
 462.3828125 233.390625 l 5
 453.9140625 241.857421875 438.514648438 231.849609375 445.446289062 221.071289062 c 4
447.755859375 222.609375 m 4
 443.905273438 230.30859375 454.684570312 235.69921875 460.075195312 231.079101562 c 5
 464.694335938 220.30078125 454.684570312 215.680664062 447.755859375 222.609375 c 4
EndSplineSet
Validated: 524325
EndChar

StartChar: uni043B
Encoding: 1083 1083 26
Width: 424
VWidth: 0
Flags: W
HStem: -4.2002 3<63.6238 91.3873 285.023 401.358> 410.4 3.59961<181.6 308.8> 425.4 3.59961<120.109 135.409> 459.6 3<120.238 400.999>
VStem: 143.2 3<102.705 398.728> 178.6 3<85.9384 410.4> 308.8 4.2002<43.2492 410.4> 374.8 6.60059<38.475 408.885> 374.8 3<239.974 415.362>
LayerCount: 2
Fore
SplineSet
377.799804688 409.799804688 m 0xfe80
 378.400390625 419.400390625 387.400390625 427.200195312 397 425.400390625 c 2
 397.599609375 425.400390625 l 1
 416.799804688 428.400390625 416.200195312 461.400390625 396.400390625 463.200195312 c 0
 305.200195312 463.200195312 214.599609375 463.200195312 123.400390625 462.599609375 c 2
 122.799804688 462.599609375 l 1
 103.599609375 459 105.400390625 426 125.200195312 425.400390625 c 2
 125.799804688 425.400390625 l 1
 137.799804688 427.799804688 145.599609375 414.599609375 143.799804688 403.200195312 c 0
 143.799804688 307.799804688 143.799804688 212.400390625 143.200195312 117.599609375 c 0
 142 93.599609375 136 66 112.599609375 55.7998046875 c 1
 112 55.7998046875 l 1
 104.799804688 50.400390625 110.200195312 60 105.400390625 67.2001953125 c 0
 94.599609375 94.7998046875 57.400390625 106.200195312 33.400390625 89.400390625 c 0
 8.2001953125 74.400390625 3.400390625 36 23.7998046875 15 c 0
 40.599609375 -2.400390625 67.599609375 -5.400390625 89.7998046875 -3.599609375 c 0
 138.400390625 1.7998046875 176.799804688 45 181 92.400390625 c 0
 182.799804688 132.599609375 181 172.200195312 181.599609375 212.400390625 c 2
 181.599609375 410.400390625 l 1
 308.799804688 410.400390625 l 1
 308.799804688 289.799804688 309.400390625 168.599609375 308.799804688 48 c 0
 308.200195312 38.400390625 299.200195312 30.599609375 289.599609375 32.400390625 c 2
 289 32.400390625 l 2
 270.400390625 30.599609375 269.200195312 1.2001953125 286.599609375 -3.599609375 c 1
 322.599609375 -4.7998046875 359.799804688 -3.599609375 395.799804688 -4.2001953125 c 0
 414.400390625 -4.2001953125 418 24.599609375 401.200195312 31.2001953125 c 0
 393.400390625 33 385 31.2001953125 381.400390625 38.400390625 c 0xff
 374.200195312 50.400390625 379 395.400390625 377.799804688 409.799804688 c 0xfe80
313 412.200195312 m 2
 313 414 l 1
 178.599609375 414 l 1
 178.599609375 212.400390625 l 2
 178 172.200195312 179.799804688 132 178 92.400390625 c 0
 173.799804688 46.2001953125 136 4.7998046875 89.2001953125 0 c 0
 67 -1.7998046875 41.7998046875 0.599609375 26.2001953125 16.7998046875 c 0
 7 36.599609375 11.7998046875 72.599609375 35.2001953125 86.400390625 c 1
 35.2001953125 87 l 1
 58 102.599609375 92.7998046875 91.7998046875 102.400390625 66 c 1
 102.400390625 65.400390625 l 2
 104.200195312 63 103.599609375 45.599609375 113.799804688 52.7998046875 c 1
 139 63.599609375 145 93.599609375 146.200195312 117.599609375 c 0
 146.799804688 213 146.799804688 307.799804688 146.799804688 403.200195312 c 1
 146.200195312 394.200195312 145.599609375 393 146.799804688 402 c 0
 148.599609375 414 140.799804688 431.400390625 125.200195312 429 c 1
 110.200195312 429.599609375 107.799804688 456 123.400390625 459.599609375 c 1
 214 460.200195312 305.200195312 459.599609375 396.400390625 459.599609375 c 0
 412 458.400390625 413.200195312 431.400390625 397.599609375 429 c 1
 386.200195312 430.799804688 375.400390625 421.799804688 374.799804688 409.799804688 c 0xfe80
 374.200195312 300 374.799804688 189.599609375 374.799804688 79.7998046875 c 2
 374.799804688 79.2001953125 l 2
 376 66 371.200195312 49.7998046875 379 36.599609375 c 0
 383.799804688 27.599609375 394 30 400.599609375 28.2001953125 c 1
 392.200195312 30.599609375 392.200195312 31.2001953125 400.599609375 28.2001953125 c 1
 414.400390625 22.7998046875 410.799804688 -1.2001953125 395.799804688 -1.2001953125 c 0
 359.799804688 -0.599609375 323.200195312 -1.7998046875 286.599609375 -0.599609375 c 1
 273.400390625 3.599609375 274 27 289 29.400390625 c 1
 300.400390625 27.599609375 311.200195312 36 311.799804688 48 c 0
 312.400390625 169.200195312 313 291 313 412.200195312 c 2
58.599609375 58.2001953125 m 0
 67.599609375 64.2001953125 73 48.599609375 65.7998046875 45 c 0
 58.599609375 42 52 53.400390625 58.599609375 58.2001953125 c 0
67.599609375 42 m 0
 79 48 69.400390625 68.400390625 56.2001953125 60 c 0
 46.599609375 52.7998046875 56.7998046875 37.2001953125 67.599609375 42 c 0
335.799804688 400.799804688 m 4
 335.200195312 408.599609375 347.799804688 411.599609375 350.200195312 403.799804688 c 4
 353.799804688 393.599609375 337.599609375 388.799804688 335.799804688 400.799804688 c 4
332.799804688 400.799804688 m 4
 335.200195312 384.599609375 358 389.400390625 353.200195312 404.400390625 c 4
 349.599609375 415.200195312 332.200195312 412.200195312 332.799804688 400.799804688 c 4
EndSplineSet
Validated: 524325
EndChar

StartChar: uni0439
Encoding: 1081 1081 27
Width: 399
VWidth: 0
Flags: W
HStem: -8.82227 2.54102<29.3149 74.1494 75.9374 147.126 244.606 305.651 307.439 363.264> 459.705 2.96387<29.1579 147.24 245.631 360.763>
VStem: 53.6611 3.38965<37.6198 415.532> 119.748 3.8125<37.7264 63.1924 153.849 414.967> 268.863 3.38867<37.4676 299.575> 335.796 3.38965<37.4676 415.756>
LayerCount: 2
Fore
SplineSet
53.6123046875 412.921875 m 4
 53.5380859375 291.336914062 51.763671875 168.920898438 50.8427734375 47.3447265625 c 4
 50.7685546875 37.599609375 41.8056640625 28.771484375 32.0751953125 30.541015625 c 5
 13.427734375 29.4091796875 10.2470703125 1.052734375 26.7236328125 -5.005859375 c 5
 41.955078125 -7.6611328125 57.2197265625 -5.6591796875 72.0380859375 -6.6181640625 c 6
 72.46484375 -6.62109375 l 6
 95.7685546875 -5.951171875 119.4765625 -7.826171875 142.787109375 -6.7314453125 c 6
 143.208984375 -6.7353515625 l 5
 160.193359375 -1.7802734375 159.560546875 26.609375 141.79296875 29.708984375 c 5
 141.3671875 29.712890625 l 6
 132.88671875 28.50390625 123.6015625 33.236328125 121.971679688 41.720703125 c 4
 120.338867188 49.7822265625 120.830078125 58.67578125 121.734375 66.2939453125 c 5
 268.393554688 300.723632812 l 5
 267.7421875 214.731445312 267.950195312 130.426757812 266.455078125 44.861328125 c 4
 265.534179688 35.126953125 256.153320312 27.1474609375 246.424804688 28.9169921875 c 5
 227.771484375 27.3623046875 225.85546875 -1.853515625 242.758789062 -7.4892578125 c 5
 243.60546875 -7.4951171875 l 6
 263.927734375 -9.3427734375 284.276367188 -7.37890625 303.756835938 -8.373046875 c 4
 322.400390625 -7.66796875 341.022460938 -9.9267578125 359.676757812 -8.375 c 5
 376.661132812 -2.9951171875 375.1875 26.24609375 356.5625 28.08203125 c 6
 355.716796875 28.0888671875 l 6
 345.9609375 26.4677734375 337.125 34.583984375 336.352539062 44.33203125 c 4
 336.42578125 165.916992188 338.198242188 287.909179688 339.119140625 409.48828125 c 4
 339.192382812 419.229492188 348.580078125 428.477539062 358.310546875 426.709960938 c 6
 358.736328125 426.706054688 l 6
 377.383789062 427.837890625 380.564453125 456.194335938 364.087890625 462.252929688 c 5
 363.6640625 462.255859375 l 5
 348.434570312 464.911132812 333.16796875 462.909179688 318.346679688 463.868164062 c 4
 295.04296875 463.197265625 270.90625 464.653320312 247.598632812 463.556640625 c 5
 230.615234375 458.602539062 230.827148438 430.641601562 248.596679688 427.541015625 c 5
 249.018554688 427.537109375 l 6
 257.501953125 428.74609375 266.365234375 424.442382812 267.99609375 415.95703125 c 4
 269.62890625 407.89453125 269.984375 398.99609375 269.080078125 391.377929688 c 5
 121.991210938 156.102539062 l 5
 122.642578125 242.094726562 122.4375 326.823242188 123.932617188 412.388671875 c 4
 124.853515625 422.123046875 133.811523438 430.104492188 143.541015625 428.336914062 c 6
 144.38671875 428.330078125 l 6
 163.040039062 429.8828125 164.104492188 458.682617188 147.202148438 464.317382812 c 5
 146.77734375 464.321289062 l 6
 126.458007812 466.169921875 106.11328125 464.62890625 86.6328125 465.623046875 c 4
 67.986328125 464.91796875 49.359375 466.75390625 30.7099609375 465.200195312 c 5
 13.72265625 459.822265625 14.7744140625 431.006835938 33.40234375 429.170898438 c 6
 34.2490234375 429.1640625 l 6
 44.00390625 430.78515625 52.8408203125 422.668945312 53.6123046875 412.921875 c 4
272.250976562 306.625976562 m 6
 272.2890625 311.708984375 l 5
 118.775390625 67.162109375 l 5
 118.771484375 66.7412109375 l 6
 117.439453125 58.701171875 117.369140625 49.380859375 118.999023438 40.896484375 c 4
 121.46484375 30.7109375 131.592773438 25.5498046875 141.770507812 26.744140625 c 5
 155.305664062 24.099609375 157.670898438 0.78125 142.8125 -3.3427734375 c 5
 119.927734375 -4.439453125 95.3671875 -2.9833984375 72.060546875 -3.654296875 c 5
 81.3828125 -3.724609375 81.798828125 -4.5751953125 72.4873046875 -3.6572265625 c 4
 57.2421875 -2.6953125 42.40234375 -4.27734375 27.1728515625 -1.619140625 c 5
 13.654296875 3.56640625 16.794921875 26.419921875 32.052734375 27.5751953125 c 5
 44.326171875 25.7880859375 54.142578125 35.4580078125 54.232421875 47.3193359375 c 4
 55.1533203125 168.895507812 56.927734375 291.310546875 57.001953125 412.895507812 c 4
 56.244140625 424.76171875 45.720703125 433.737304688 33.4248046875 432.13671875 c 5
 19.8818359375 433.932617188 16.6689453125 457.2578125 31.109375 462.233398438 c 5
 48.9150390625 463.79296875 67.9599609375 461.529296875 86.607421875 462.235351562 c 4
 106.93359375 461.234375 126.435546875 463.205078125 146.754882812 461.357421875 c 5
 160.278320312 457.017578125 158.40234375 432.8828125 143.563476562 431.302734375 c 5
 131.717773438 433.084960938 121.48046875 424.267578125 120.543945312 412.415039062 c 4
 119.036132812 325.154296875 119.224609375 238.309570312 118.563476562 151.044921875 c 6
 118.518554688 145.114257812 l 5
 272.032226562 389.66015625 l 5
 272.0390625 390.505859375 l 6
 273.372070312 398.545898438 273.017578125 407.869140625 271.387695312 416.353515625 c 4
 268.922851562 426.5390625 259.21875 431.696289062 249.041015625 430.502929688 c 5
 235.505859375 433.146484375 233.140625 456.46484375 247.998046875 460.58984375 c 5
 270.883789062 461.686523438 295.017578125 459.80859375 318.321289062 460.48046875 c 5
 309.002929688 460.55078125 309.009765625 461.397460938 318.321289062 460.48046875 c 5
 333.56640625 459.516601562 347.98828125 461.94921875 363.219726562 459.291992188 c 5
 376.735351562 454.106445312 374.016601562 430.827148438 358.758789062 429.671875 c 5
 346.485351562 431.458007812 335.819335938 421.373046875 335.729492188 409.513671875 c 4
 334.80859375 287.935546875 333.036132812 165.942382812 332.962890625 44.357421875 c 4
 333.719726562 32.4921875 344.244140625 23.5166015625 356.540039062 25.1162109375 c 5
 370.083007812 23.3203125 374.142578125 -0.0107421875 359.702148438 -4.986328125 c 5
 341.896484375 -6.5458984375 322.422851562 -4.7041015625 303.779296875 -5.4091796875 c 4
 283.452148438 -4.408203125 263.953125 -5.955078125 243.631835938 -4.107421875 c 5
 230.108398438 0.232421875 231.561523438 24.3701171875 246.40234375 25.951171875 c 5
 258.250976562 24.16796875 268.483398438 32.986328125 269.419921875 44.8388671875 c 4
 270.928710938 132.099609375 271.58984375 219.36328125 272.250976562 306.625976562 c 6
302.634765625 402.985351562 m 4
 290.326171875 399.688476562 297.79296875 378.874023438 311.388671875 384.27734375 c 4
 321.6015625 390.129882812 313.682617188 407.13671875 302.634765625 402.985351562 c 4
303.4609375 400.012695312 m 4
 311.109375 402.920898438 316.943359375 390.58984375 310.135742188 386.40625 c 5
 310.135742188 386.40625 288.595703125 395.041015625 303.4609375 400.012695312 c 4
94.98828125 58.87109375 m 4
 92.146484375 74.9892578125 71.34375 69.2158203125 74.62890625 55.63671875 c 4
 77.935546875 44.595703125 95.74609375 47.0048828125 94.98828125 58.87109375 c 4
92.443359375 58.4658203125 m 4
 92.3828125 50.416015625 79.6572265625 48.3955078125 77.173828125 56.0390625 c 4
 74.703125 65.3798828125 89.9921875 70.3466796875 92.443359375 58.4658203125 c 4
EndSplineSet
Validated: 524325
EndChar

StartChar: kacyrillic
Encoding: 1082 1082 28
Width: 397
VWidth: 0
HStem: -5.90234 4.2793<22.6689 138.669 243.169 378.497> 26.3213 5.30176<135.051 140.431 242.193 255.255 353.815 376.869> 457.758 4.28125<24.1113 140.792 241.436 334.082>
VStem: 44.7881 5.28027<38.564 416.528> 97.8789 4.28125<374.537 387.316> 111.104 5.28027<39.0249 168.216 288.749 411.078>
LayerCount: 2
Fore
SplineSet
115.848632812 410.499023438 m 0
 117.041992188 419.096679688 126.205078125 425.173828125 134.688476562 423.544921875 c 0
 135.108398438 423.463867188 l 1
 135.534179688 423.51953125 l 0
 157.4453125 426.421875 156.125976562 461.401367188 133.663085938 462.0390625 c 0
 97.2900390625 461.802734375 60.982421875 462.508789062 24.59375 461.685546875 c 0
 24.3505859375 461.6796875 l 1
 24.111328125 461.630859375 l 0
 5.40234375 457.702148438 5.37109375 427.7109375 24.1162109375 423.815429688 c 0
 24.4599609375 423.744140625 l 1
 24.810546875 423.765625 l 0
 33.0263671875 424.254882812 39.822265625 421.561523438 42.6630859375 415.728515625 c 1
 42.3388671875 291.188476562 45.16796875 155.826171875 44.7880859375 46.486328125 c 0
 44.2919921875 37.1982421875 35.763671875 29.724609375 26.69140625 31.5830078125 c 0
 26.2919921875 31.666015625 l 1
 25.8876953125 31.6240234375 l 0
 6.615234375 29.6103515625 4.3544921875 -0.29296875 22.3896484375 -6.0185546875 c 0
 22.6689453125 -6.107421875 l 1
 22.9609375 -6.1328125 l 0
 43.8798828125 -7.943359375 64.96484375 -6.3798828125 85.572265625 -6.9033203125 c 0
 85.646484375 -6.9052734375 l 1
 85.7197265625 -6.90234375 l 0
 102.96484375 -6.380859375 120.739257812 -7.96484375 138.403320312 -6.1279296875 c 0
 138.668945312 -6.099609375 l 1
 138.923828125 -6.01953125 l 0
 156.977539062 -0.32421875 154.724609375 29.5751953125 135.465820312 31.623046875 c 0
 135.05078125 31.6669921875 l 1
 134.64453125 31.5810546875 l 0
 124.904296875 29.5380859375 116.11328125 38.4130859375 116.384765625 48.4560546875 c 1
 115.384765625 168.215820312 l 1
 255.254882812 31.9384765625 l 1
 247.168945312 31.98828125 238.083984375 30.859375 234.34765625 20.671875 c 0
 227.545898438 7.0712890625 238.442382812 -8.14453125 253.348632812 -5.90234375 c 1
 295.154296875 -5.689453125 334.583007812 -6.330078125 375.487304688 -5.5810546875 c 0
 375.739257812 -5.576171875 l 1
 375.987304688 -5.5234375 l 0
 394.7109375 -1.5439453125 394.693359375 25.361328125 376.006835938 29.3125 c 0
 365.817382812 31.55859375 357.2734375 27.75 353.221679688 34.458984375 c 0
 352.041992188 35.75390625 l 1
 134.268554688 247.258789062 l 1
 189.204101562 305.1875 243.979492188 365.170898438 298.822265625 422.194335938 c 1
 310.451171875 428.1015625 325.463867188 418.671875 339.33984375 426.125 c 0
 339.404296875 426.16015625 l 1
 339.467773438 426.198242188 l 0
 354.7734375 435.545898438 348.220703125 463.5390625 329.0234375 462.038085938 c 0
 300.125 461.686523438 271.0546875 462.744140625 242.00390625 461.5078125 c 0
 241.713867188 461.49609375 l 1
 241.435546875 461.420898438 l 0
 223.370117188 456.596679688 226.349609375 430.481445312 240.646484375 424.565429688 c 1
 202.680664062 377.91796875 157.302734375 333.049804688 116.42578125 288.749023438 c 1
 116.606445312 330.822265625 114.805664062 369.75 115.848632812 410.499023438 c 0
134.604492188 457.7578125 m 0
 149.982421875 457.322265625 151.5859375 431.579101562 136.263671875 428.813476562 c 1
 125.317382812 430.352539062 113.244140625 422.930664062 111.598632812 411.078125 c 0
 111.578125 410.930664062 l 1
 111.573242188 410.783203125 l 0
 110.473632812 367.829101562 112.426757812 325.8125 112.104492188 282.952148438 c 0
 112.053710938 276.090820312 l 1
 116.690429688 282.1484375 l 0
 159.889648438 329.268554688 205.8046875 375.323242188 245.370117188 424.481445312 c 0
 247.400390625 428.24609375 l 1
 243.594726562 428.76171875 l 0
 230.4921875 430.166015625 229.4765625 453.102539062 242.51953125 457.24609375 c 1
 250.21976775 457.559744644 317 457 329.349609375 456.766601562 c 0
 342.380155924 456.520333918 348.595703125 437.350585938 337.715820312 430.704101562 c 1
 350.725585938 438.163085938 351.0546875 437.873046875 337.841796875 430.776367188 c 0
 327.329101562 425.131835938 310.56640625 433.625 296.814453125 425.541992188 c 0
 296.500976562 425.358398438 l 1
 296.249023438 425.09765625 l 0
 240.236328125 366.870117188 185.235351562 307.59375 129.638671875 248.994140625 c 0
 127.838867188 247.09765625 l 1
 349.380859375 32.9169921875 l 1
 357.725585938 22.5361328125 367.828125 27.7080078125 374.87109375 26.1552734375 c 0
 387.548828125 23.474609375 388.225585938 2.1064453125 375.14453125 -1.3056640625 c 1
 335.008789062 -2.021484375 293.682617188 -1.404296875 252.999023438 -1.623046875 c 0
 252.7421875 -1.6240234375 l 1
 252.4921875 -1.6748046875 l 0
 241.979492188 -3.7919921875 233.392578125 8.958984375 238.135742188 18.443359375 c 0
 238.203125 18.5751953125 l 1
 238.25390625 18.71484375 l 0
 241.447265625 27.4228515625 251.9140625 26.87109375 261.915039062 26.4189453125 c 0
 267.885742188 26.103515625 l 5
 111.104492188 178.665039062 l 1
 111.104492188 48.52734375 l 1
 110.771484375 36.2021484375 120.715820312 24.1494140625 135.337890625 26.3212890625 c 1
 147.063476562 24.5283203125 150.705078125 3.9052734375 137.587890625 -0.9052734375 c 1
 121.194335938 -2.4873046875 103.072265625 -1.095703125 85.55859375 -1.6240234375 c 1
 100.556640625 -1.5888671875 100.698242188 -2.00390625 85.7060546875 -1.6240234375 c 0
 64.6279296875 -1.08984375 45.1845703125 -2.6572265625 23.7109375 -0.8984375 c 1
 12.34765625 3.29296875 12.4921875 24.28125 26.0224609375 26.3232421875 c 1
 38.033203125 24.5478515625 49.3896484375 33.6328125 50.0654296875 46.271484375 c 0
 50.068359375 46.3369140625 l 1
 50.068359375 46.4013671875 l 0
 50.44921875 155.797851562 47.607421875 292.54296875 47.943359375 416.155273438 c 0
 47.9453125 416.630859375 l 1
 47.7802734375 417.079101562 l 0
 43.951171875 427.438476562 31.400390625 428.415039062 24.1904296875 427.986328125 c 1
 11.5751953125 430.606445312 10.8662109375 454.032226562 23.9482421875 457.413085938 c 1
 59.666015625 458.1953125 98.451171875 457.524414062 134.604492188 457.7578125 c 0
97.87890625 380.943359375 m 0
 96.7802734375 366.727539062 79.5712890625 366.43359375 74.498046875 375.338867188 c 1
 69.2978515625 393.948242188 97.7392578125 398.01953125 97.87890625 380.943359375 c 0
102.16015625 381.759765625 m 1
 102.158203125 381.873046875 l 0
 101.951171875 407.65625 62.3115234375 400.307617188 70.5947265625 374.353515625 c 1
 70.6845703125 374.172851562 l 0
 77.90234375 359.66796875 100.653320312 362.258789062 102.16015625 381.759765625 c 1
269 81 m 0
 293.059570312 76.1064453125 273.795898438 49.9482421875 259 55 c 1
 248.627929688 63.9111328125 258.443359375 83.1474609375 269 81 c 0
267.526367188 84.8359375 m 2
 267.313476562 84.8740234375 l 1
 267.098632812 84.875 l 0
 250.3671875 85.033203125 243.721679688 63.341796875 257.784179688 52.31640625 c 0
 257.995883556 52.1503510288 258.182714763 52.0382861896 258.465820312 51.9296875 c 0
 281.524414062 43.056640625 298.444335938 79.443359375 267.526367188 84.8359375 c 2
EndSplineSet
Validated: 524325
EndChar

StartChar: uni043C
Encoding: 1084 1084 29
Width: 533
VWidth: 0
Flags: W
HStem: -4.85547 4.75<24.085 108.178 391.095 507.881> 27.9473 5.28223<16.4648 16.7227 103.628 109.956 385.054 388.012> 458.433 5.27637<83.8437 166.692 369.511 443.084 443.358 444.335>
LayerCount: 2
Fore
SplineSet
126.323242188 299.420898438 m 0
 127.987304688 305.724609375 138.182617188 307.653320312 140.965820312 298.6953125 c 1
 147.282226562 278.072265625 153.515625 257.624023438 159.69921875 237.291992188 c 0
 168.212890625 209.301757812 178.233398438 176.270507812 185.049804688 153.837890625 c 0
 196.974609375 114.602539062 214.482421875 57.189453125 229.662109375 8.4169921875 c 0
 233.643554688 -3.8955078125 251.1015625 -11.080078125 260.65625 0.7646484375 c 0
 260.961914062 1.1435546875 l 1
 261.112304688 1.6064453125 l 0
 295.220703125 106.575195312 333.323242188 214.59375 363.296875 303.875 c 1
 365.094726562 305.776367188 369.125 302.038085938 368.580078125 297.440429688 c 0
 368.541015625 297.1015625 l 1
 368.587890625 296.762695312 l 0
 380.390625 213.170898438 393.028320312 129.848632812 404.296875 46.2607421875 c 0
 404.3203125 38.111328125 396.604492188 32.19140625 388.438476562 32.7099609375 c 0
 388.01171875 32.736328125 l 1
 387.59765625 32.626953125 l 0
 368.504882812 27.5869140625 370.860351562 -4.3125 391.094726562 -5.337890625 c 0
 391.170898438 -5.3427734375 l 1
 391.247070312 -5.341796875 l 0
 429.822265625 -5.0771484375 468.62109375 -6.060546875 507.279296875 -4.857421875 c 0
 507.584960938 -4.84765625 l 1
 507.880859375 -4.7685546875 l 0
 526.94921875 0.3388671875 524.572265625 32.1298828125 504.354492188 33.2236328125 c 0
 504.202148438 33.232421875 l 1
 504.05078125 33.22265625 l 0
 490.879882812 32.4150390625 479.2421875 44.20703125 480.129882812 57.4052734375 c 0
 480.147460938 57.6748046875 l 1
 480.111328125 57.94140625 l 0
 463.875 176.060546875 446.828125 293.95703125 431.123046875 412.0859375 c 0
 431.05078125 420.217773438 438.810546875 426.124023438 446.984375 425.616210938 c 0
 447.413085938 425.590820312 l 1
 447.828125 425.701171875 l 0
 466.900390625 430.775390625 464.524414062 462.569335938 444.334960938 463.663085938 c 0
 444.240234375 463.669921875 l 1
 444.14453125 463.668945312 l 0
 419.614257812 463.231445312 394.682617188 464.701171875 369.923828125 462.98828125 c 0
 369.510742188 462.959960938 l 1
 369.126953125 462.806640625 l 0
 354.658203125 457.038085938 355.497070312 438.620117188 351.103515625 429.629882812 c 0
 351.022460938 429.465820312 l 1
 350.965820312 429.291015625 l 0
 322.680664062 342.66015625 295.014648438 255.862304688 266.373046875 169.438476562 c 0
 264.91796875 165.948242188 259.821289062 167.578125 259.538085938 171.935546875 c 0
 259.518554688 172.236328125 l 1
 259.431640625 172.521484375 l 0
 252.479492188 195.754882812 245.547851562 219 238.619140625 242.25 c 0
 217.598632812 312.779296875 196.594726562 383.341796875 175.034179688 453.663085938 c 0
 174.965820312 453.885742188 l 1
 174.860351562 454.091796875 l 0
 167.340820312 468.772460938 148.499023438 462.68359375 139.048828125 463.697265625 c 0
 138.852539062 463.716796875 l 1
 138.655273438 463.708984375 l 0
 121.268554688 462.974609375 103.077148438 465.200195312 85.16796875 462.646484375 c 0
 84.83984375 462.599609375 l 1
 84.5341796875 462.47265625 l 0
 68.4072265625 455.819335938 70.9951171875 434.12890625 83.3515625 426.091796875 c 1
 68.2626953125 311.3046875 53.310546875 145.232421875 37.9287109375 40.8974609375 c 1
 38.9267578125 40.7509765625 21.9775390625 33.0986328125 16.72265625 31.87109375 c 0
 16.46484375 31.8095703125 l 1
 16.2236328125 31.7001953125 l 0
 -0.802734375 23.8984375 4.1708984375 -6.8544921875 24.390625 -5.3828125 c 0
 52.0078125 -5.0048828125 79.7861328125 -6.1064453125 107.559570312 -4.85546875 c 0
 107.873046875 -4.841796875 l 1
 108.177734375 -4.75390625 l 0
 126.885742188 0.6826171875 124.251953125 32.791015625 103.92578125 33.2265625 c 0
 103.775390625 33.2294921875 l 1
 103.627929688 33.216796875 l 0
 93.59375 32.30078125 87.84765625 44.87890625 91.259765625 54.3759765625 c 0
 91.349609375 54.626953125 l 1
 91.3896484375 54.892578125 l 0
 103.146484375 136.448242188 114.075195312 218.04296875 126.323242188 299.420898438 c 0
234.693359375 10.013671875 m 0
 204.544921875 106.888671875 176.250976562 201.528320312 146.01171875 300.252929688 c 1
 141.600585938 314.450195312 124.181640625 311.994140625 121.180664062 300.631835938 c 0
 121.14453125 300.4921875 l 1
 121.122070312 300.350585938 l 0
 108.903320312 219.1640625 97.84375 136.672851562 86.21484375 56.013671875 c 1
 82.841796875 44.720703125 88.0341796875 26.48828125 104.109375 27.958984375 c 1
 89.126953125 27.435546875 88.8251953125 28.26953125 103.8125 27.947265625 c 0
 117.216796875 27.6591796875 120.012695312 4.8779296875 107.001953125 0.404296875 c 1
 80.267578125 -0.74609375 51.8369140625 0.2724609375 24.2412109375 -0.10546875 c 0
 24.162109375 -0.10546875 l 1
 24.0849609375 -0.11328125 l 0
 10.3603515625 -1.1103515625 6.6259765625 21.4931640625 18.22265625 26.8076171875 c 1
 25.021484375 28.1962890625 38.2841796875 28.5126953125 42.9697265625 39.4755859375 c 0
 43.1025390625 39.7890625 l 1
 43.1533203125 40.126953125 l 0
 58.630859375 145.115234375 73.8076171875 313.690429688 88.8310546875 427.245117188 c 0
 89.0869140625 429.182617188 l 1
 87.310546875 429.994140625 l 0
 76.619140625 434.877929688 75.013671875 452.138671875 86.2421875 457.466796875 c 1
 102.521484375 459.619140625 121.08203125 457.682617188 138.87890625 458.432617188 c 1
 123.895507812 458.91796875 123.581054688 460.046875 138.485351562 458.447265625 c 0
 151.272460938 457.075195312 165.00390625 461.840820312 169.987304688 452.114257812 c 1
 198.431640625 359.336914062 226.733398438 263.358398438 254.06640625 172.034179688 c 1
 255.870117188 163.668945312 266.854492188 156.872070312 271.286132812 167.498046875 c 0
 271.323242188 167.590820312 l 1
 271.353515625 167.685546875 l 0
 300.008789062 254.14453125 327.70703125 341.044921875 355.984375 427.650390625 c 1
 350.352539062 413.759765625 349.262695312 413.844726562 355.84765625 427.311523438 c 0
 361.620117188 439.125976562 359.873046875 452.58203125 370.684570312 457.75 c 1
 394.196289062 459.288085938 419.609375 457.950195312 444.239257812 458.388671875 c 1
 429.25 458.661132812 429.080078125 459.203125 444.048828125 458.390625 c 0
 457.563476562 457.659179688 459.916015625 435.056640625 446.870117188 430.915039062 c 1
 436.999023438 431.079101562 425.73828125 423.998046875 425.84375 411.875976562 c 0
 425.845703125 411.713867188 l 1
 425.868164062 411.551757812 l 0
 441.58984375 293.287109375 458.450195312 176.709960938 474.836914062 57.5322265625 c 1
 474.33203125 41.552734375 487.516601562 26.91796875 504.373046875 27.9521484375 c 1
 489.3828125 27.8994140625 489.099609375 28.759765625 504.068359375 27.951171875 c 0
 517.549804688 27.2216796875 520.098632812 4.654296875 506.80859375 0.4111328125 c 1
 468.936523438 -0.732421875 429.78515625 0.203125 391.2109375 -0.060546875 c 1
 406.197265625 -0.388671875 406.333007812 -0.82421875 391.362304688 -0.0634765625 c 0
 377.833984375 0.62109375 375.48828125 23.291015625 388.544921875 27.4111328125 c 1
 398.458984375 27.234375 409.611328125 34.373046875 409.577148438 46.44921875 c 0
 409.577148438 46.6220703125 l 1
 409.551757812 46.79296875 l 0
 398.295898438 130.301757812 385.75390625 212.999023438 373.911132812 296.83203125 c 1
 373.791015625 301.584960938 366.415039062 317.873046875 358.7109375 306.501953125 c 0
 358.508789062 306.204101562 l 1
 358.393554688 305.862304688 l 0
 328.209960938 215.924804688 290.67578125 109.625976562 256.243164062 3.708984375 c 1
 250.283203125 -2.697265625 237.88671875 0.1416015625 234.693359375 10.013671875 c 0
438.118164062 62.138671875 m 0
 420.0234375 65.0302734375 428.133789062 87.8525390625 440.182617188 86.724609375 c 0
 458.056640625 82.458984375 449.875 61.236328125 438.118164062 62.138671875 c 0
441 91.9375 m 2
 440.869140625 91.9638671875 l 1
 440.735351562 91.9765625 l 0
 421.80859375 93.748046875 412.627929688 60.8662109375 437.392578125 56.9072265625 c 0
 437.499023438 56.8896484375 l 1
 437.607421875 56.8818359375 l 0
 456.642578125 55.4228515625 464.977539062 87.193359375 441 91.9375 c 2
148.6640625 371.12890625 m 0
 171.267578125 375.518554688 161.625 418.797851562 135.3515625 402.430664062 c 0
 135.200195312 402.3359375 l 1
 135.059570312 402.220703125 l 0
 122.90625 392.12890625 129.883789062 367.551757812 148.6640625 371.12890625 c 0
147.666992188 376.314453125 m 0
 135.090820312 373.918945312 129.887695312 391.061523438 138.434570312 398.157226562 c 1
 136.278320312 400.75390625 178.208984375 382.24609375 147.666992188 376.314453125 c 0
EndSplineSet
Validated: 524325
EndChar

StartChar: uni0441
Encoding: 1089 1089 30
Width: 425
VWidth: 0
Flags: W
HStem: 401.149 3.17969<115.43 115.635>
VStem: 77.9863 3.17969<203.272 252.769>
LayerCount: 2
Fore
SplineSet
374.111328125 134.958984375 m 0
 369.862304688 113.543945312 367.8359375 91.4111328125 348.69921875 79.1728515625 c 0
 348.563476562 79.0859375 l 1
 348.448242188 78.974609375 l 0
 296.231445312 28.2412109375 207.033203125 24.5244140625 151.700195312 72.4970703125 c 1
 105.478515625 109.608398438 81.0029296875 169.33984375 81.166015625 228.02734375 c 0
 79.185546875 314.631835938 139.505859375 406.42578125 229.405273438 416.798828125 c 0
 281.3984375 423.106445312 337.200195312 398.4765625 366.350585938 355.951171875 c 1
 372.306640625 341.6953125 365.750976562 310.341796875 388.862304688 306.38671875 c 0
 388.96875 306.369140625 l 1
 389.076171875 306.365234375 l 0
 410.657226562 305.640625 410.813476562 332.799804688 404.536132812 345.61328125 c 1
 396.9296875 375.638671875 395.446289062 406.653320312 384.752929688 435.571289062 c 0
 384.694335938 435.731445312 l 1
 384.602539062 435.875976562 l 0
 377.3828125 447.182617188 360.743164062 444.104492188 355.350585938 434.264648438 c 1
 262.69140625 488.1953125 135.565429688 466.384765625 66.82421875 384.443359375 c 1
 -11.2041015625 299.100585938 -10.841796875 156.416015625 67.6103515625 71.453125 c 1
 136.805664062 -10.125 264.047851562 -30.814453125 355.52734375 22.626953125 c 1
 362.94140625 6.92578125 387.233398438 11.4033203125 388.905273438 28.2822265625 c 0
 394.721679688 63.412109375 405.28125 98.484375 408.497070312 134.056640625 c 0
 408.512695312 134.22265625 l 1
 408.4921875 134.38671875 l 0
 406.234375 153.463867188 376.3515625 154.244140625 374.111328125 134.958984375 c 0
77.986328125 227.994140625 m 0
 77.8203125 168.479492188 102.657226562 107.796875 149.662109375 70.0546875 c 1
 206.09765625 21.126953125 296.637695312 24.591796875 350.541992188 76.5751953125 c 1
 370.9140625 89.9892578125 373.046875 113.254882812 377.243164062 134.401367188 c 0
 377.255859375 134.46484375 l 1
 377.262695312 134.528320312 l 0
 379.01171875 149.594726562 403.049804688 149.728515625 405.31640625 134.182617188 c 1
 402.102539062 99.41796875 391.603515625 64.0556640625 385.76171875 28.75 c 0
 385.751953125 28.6982421875 l 1
 385.74609375 28.646484375 l 0
 384.309570312 14.150390625 362.2421875 11.43359375 357.872070312 25.4365234375 c 0
 357.271484375 27.36328125 l 1
 355.538085938 26.3291015625 l 0
 264.856445312 -27.845703125 138.442382812 -7.138671875 69.9931640625 73.560546875 c 1
 -7.3916015625 157.3671875 -7.7490234375 298.166992188 69.216796875 382.34765625 c 1
 137.428710938 463.65625 264.232421875 484.809570312 355.241210938 430.63671875 c 0
 356.849609375 429.6796875 l 1
 357.534179688 431.421875 l 0
 361.286132812 440.965820312 375.513671875 443.325195312 381.82421875 434.323242188 c 1
 392.05859375 406.341796875 393.888671875 374.400390625 401.500976562 344.642578125 c 0
 401.544921875 344.46875 l 1
 401.627929688 344.30859375 l 0
 408.182617188 331.573242188 406.260742188 308.96875 389.18359375 309.54296875 c 1
 404.471679688 307.985351562 404.545898438 306.9296875 389.397460938 309.520507812 c 0
 369.137695312 312.98828125 376.546875 340.673828125 369.200195312 357.3671875 c 0
 369.140625 357.5 l 1
 369.059570312 357.622070312 l 0
 339.239257812 401.493164062 282.060546875 426.389648438 229.021484375 419.954101562 c 0
 137.09375 409.348632812 75.9765625 315.802734375 77.986328125 227.994140625 c 0
115.41015625 401.149414062 m 0
 127.215820312 399.15234375 122.12109375 385.401367188 114.498046875 386.265625 c 1
 114.498046875 386.265625 100.579101562 401.009765625 115.41015625 401.149414062 c 0
115.634765625 404.318359375 m 2
 115.532226562 404.330078125 l 1
 115.4296875 404.329101562 l 0
 103.950195312 404.220703125 100.686523438 386.708007812 113.904296875 383.150390625 c 0
 114.020507812 383.119140625 l 1
 114.139648438 383.10546875 l 0
 126.512695312 381.705078125 131.204101562 402.423828125 115.634765625 404.318359375 c 2
115.30859375 73.5751953125 m 0
 106.504882812 74.470703125 102.577148438 62.4208984375 108.619140625 54.619140625 c 0
 108.791015625 54.3974609375 l 1
 109.030273438 54.24609375 l 0
 121.620117188 46.3388671875 133.63671875 71.265625 115.30859375 73.5751953125 c 0
114.94921875 70.4150390625 m 0
 128.193359375 68.7470703125 118.709960938 52.40234375 110.936523438 56.80859375 c 1
 106.060546875 64.111328125 110.430664062 70.875 114.94921875 70.4150390625 c 0
EndSplineSet
Validated: 524325
EndChar

StartChar: uni0442
Encoding: 1090 1090 31
Width: 406
VWidth: 0
Flags: W
HStem: -8.44629 3.16211<136.061 254.22> 41.0898 3.17285<192.004 192.03 197.393 198.272> 59.0166 3.17676<193.041 196.481> 393.416 3.17383<195.09 195.265> 417.297 3.12109<138.117 161.208> 458.332 3.17676<46.4111 346.385>
VStem: 161.18 3.20801<42.3535 396.778> 227.662 3.17578<57.4229 417.318>
LayerCount: 2
Fore
SplineSet
41.365234375 363.766601562 m 4
 76.306640625 399.446289062 118.635742188 418.348632812 161.208007812 417.296875 c 5
 161.196289062 410.456054688 161.186523438 403.6171875 161.1796875 396.778320312 c 4
 161.057617188 278.592773438 161.646484375 160.623046875 160.862304688 42.544921875 c 4
 160.044921875 32.146484375 150.0859375 25.5927734375 139.973632812 27.216796875 c 4
 139.685546875 27.2626953125 l 5
 139.400390625 27.203125 l 4
 120.096679688 23.1982421875 122.627929688 -9.251953125 142.78515625 -9.21484375 c 5
 179.704101562 -8.6650390625 216.909179688 -10.2841796875 253.822265625 -8.4462890625 c 4
 254.025390625 -8.4365234375 l 5
 254.219726562 -8.375 l 4
 273.095703125 -2.43359375 267.62890625 29.8837890625 247.297851562 27.580078125 c 5
 232.923828125 26.5224609375 228.75 44.7060546875 230.81640625 57.1630859375 c 4
 230.837890625 57.29296875 l 5
 230.837890625 417.318359375 l 5
 237.811523577 417.624622515 244.903084574 417.529883131 251.999998382 417.003817419 c 4
 290.569403429 414.144822362 329.296907317 398.546315527 350.112304688 365.340820312 c 4
 358.833984375 351.640625 386.185546875 356.08203125 381.979492188 375.33203125 c 4
 381.9609375 375.416992188 l 5
 381.931640625 375.499023438 l 4
 372.198242188 404.369140625 359.306640625 432.1640625 348.46875 460.48828125 c 4
 348.078125 461.508789062 l 5
 44.7373046875 461.508789062 l 5
 44.3466796875 460.489257812 l 4
 33.4912109375 432.163085938 20.6337890625 404.3515625 10.8837890625 375.5 c 4
 10.857421875 375.423828125 l 5
 10.83984375 375.346679688 l 4
 6.712890625 357.311523438 31.830078125 351.435546875 41.365234375 363.766601562 c 4
164.387695312 418.828125 m 6
 164.390625 420.356445312 l 5
 162.862304688 420.41796875 l 4
 118.744140625 422.171875 74.802734375 402.450195312 39.0302734375 365.922851562 c 4
 38.96484375 365.856445312 l 5
 38.9072265625 365.783203125 l 4
 30.9462890625 355.485351562 10.7646484375 360.780273438 13.9365234375 374.637695312 c 5
 9.294921875 358.21875 8.4287109375 358.3203125 13.892578125 374.484375 c 4
 23.4599609375 402.790039062 36.072265625 430.16015625 46.9208984375 458.33203125 c 5
 345.89453125 458.33203125 l 5
 356.322265625 431.213867188 369.43359375 402.625 378.921875 374.485351562 c 5
 374.368164062 390.927734375 375.232421875 391.322265625 378.875976562 374.65234375 c 4
 382.133789062 359.743164062 360.065429688 355.62109375 352.791015625 367.047851562 c 4
 326.999023438 408.193359375 274.939453125 422.833984375 229.166015625 420.416992188 c 4
 227.662109375 420.336914062 l 5
 227.662109375 57.4228515625 l 5
 229.060546875 74.427734375 230.473632812 74.515625 227.68359375 57.6826171875 c 4
 225.615234375 45.212890625 229.33984375 23.0732421875 247.592773438 24.4169921875 c 5
 263.782226562 26.251953125 268.62109375 -0.0771484375 253.458984375 -5.2841796875 c 5
 217.202148438 -7.0546875 179.640625 -5.4892578125 142.758789062 -6.0380859375 c 5
 126.948242188 -6.0673828125 124.282226562 20.2607421875 139.764648438 24.0341796875 c 5
 150.95703125 22.515625 163.034179688 29.64453125 164.034179688 42.353515625 c 4
 164.037109375 42.4091796875 l 5
 164.038085938 42.466796875 l 4
 164.87109375 167.897460938 164.155273438 293.385742188 164.387695312 418.828125 c 6
197.6953125 379.467773438 m 4
 186.53515625 377.227539062 185.647460938 391.709960938 195.359375 393.416015625 c 4
 202.71484375 393.540039062 208.870117188 382.725585938 197.6953125 379.467773438 c 4
195.264648438 396.591796875 m 6
 195.176757812 396.58984375 l 5
 195.08984375 396.579101562 l 4
 180.755859375 394.73828125 183.1015625 373.298828125 198.38671875 376.3671875 c 4
 198.454101562 376.380859375 l 5
 198.518554688 376.399414062 l 4
 213.662109375 380.813476562 205.676757812 396.766601562 195.264648438 396.591796875 c 6
196.422851562 59.0166015625 m 4
 205.92578125 58.6728515625 204.965820312 44.50390625 198.069335938 44.2646484375 c 4
 198.021484375 44.2626953125 l 5
 197.9765625 44.2578125 l 4
 185.833984375 43.123046875 189.34375 58.7763671875 196.422851562 59.0166015625 c 4
196.481445312 62.193359375 m 6
 196.426757812 62.1953125 l 5
 196.370117188 62.193359375 l 4
 184.786132812 61.80078125 181.921875 39.5654296875 198.272460938 41.095703125 c 5
 181.245117188 40.00390625 181.126953125 40.4990234375 198.1796875 41.08984375 c 4
 209.58203125 41.4853515625 209.909179688 61.7080078125 196.481445312 62.193359375 c 6
EndSplineSet
Validated: 524325
EndChar

StartChar: uni0443
Encoding: 1091 1091 32
Width: 384
VWidth: 0
Flags: W
HStem: -9.99316 5.29785<84.155 126.417> 373.997 5.2832<85.1542 98.9833> 422.149 5.2959<19.9172 37.2004 133.193 140.828 345.545 356.676> 454.922 5.24609<21.751 138.852 276.596 348.848>
LayerCount: 2
Fore
SplineSet
216.1875 167.569335938 m 0
 215.005859375 164.612304688 210.671875 165.274414062 209.939453125 168.76953125 c 0
 209.90625 168.926757812 l 1
 209.854492188 169.078125 l 0
 183.314453125 247.198242188 155.375 324.918945312 129.10546875 403.065429688 c 1
 128.140625 402.740234375 131.998046875 420.854492188 134.225585938 422.149414062 c 1
 154.5546875 423.005859375 157.03515625 453.87890625 139.280273438 460.033203125 c 0
 138.8515625 460.181640625 l 1
 138.395507812 460.178710938 l 0
 98.8759765625 459.9296875 59.1650390625 463.446289062 22.078125 460.16796875 c 0
 21.7509765625 460.139648438 l 1
 21.4423828125 460.032226562 l 0
 3.5107421875 453.794921875 6.4892578125 422.600585938 26.5947265625 422.177734375 c 1
 36.0947265625 422.309570312 45.26953125 415.765625 47.7734375 406.745117188 c 0
 47.7958984375 406.668945312 l 1
 161.853515625 73.9111328125 l 1
 147.689453125 56.2451171875 125.877929688 43.38671875 103.788085938 48.71875 c 1
 103.434570312 47.25390625 98.2890625 49.6337890625 95.5126953125 50.798828125 c 1
 96.0947265625 51.4853515625 l 1
 96.2412109375 51.7822265625 l 0
 108.017578125 75.8076171875 92.134765625 107.33984375 65.65234375 111.8515625 c 0
 38.587890625 118.502929688 10.1328125 93.5927734375 14.2138671875 65.7373046875 c 0
 18.5615234375 21.3740234375 62.099609375 -10.8984375 104.938476562 -9.9931640625 c 1
 150.018554688 -10.1435546875 188.569335938 19.5859375 214.330078125 53.5185546875 c 1
 235.16015625 81.583984375 252.030273438 112.86328125 262.715820312 146.24609375 c 1
 289.927734375 236.643554688 316.482421875 327.086914062 344.040039062 417.271484375 c 0
 345.661132812 421.74609375 350.48828125 421.69140625 356.674804688 423.620117188 c 0
 356.950195312 423.70703125 l 1
 357.19921875 423.84765625 l 0
 371.969726562 432.272460938 368.530273438 462.510742188 348.516601562 460.94140625 c 0
 324.813476562 460.576171875 300.905273438 461.66796875 277.024414062 460.41015625 c 0
 276.595703125 460.388671875 l 1
 276.196289062 460.231445312 l 0
 258.157226562 453.172851562 262.924804688 421.23828125 282.834960938 422.060546875 c 1
 292.561523438 419.051757812 293.545898438 405.756835938 289.114257812 396.9765625 c 0
 289.01953125 396.7890625 l 1
 288.955078125 396.588867188 l 0
 264.596679688 320.244140625 240.946289062 243.696289062 216.1875 167.569335938 c 0
52.857421875 408.23828125 m 2
 49.6591796875 419.763671875 38.2763671875 427.637695312 26.61328125 427.4765625 c 1
 13.53125 427.751953125 10.3662109375 449.889648438 22.8798828125 454.921875 c 1
 58.7861328125 457.98046875 97.3017578125 454.685546875 137.955078125 454.877929688 c 1
 149.462890625 450.259765625 147.981445312 427.372070312 133.72265625 427.4453125 c 0
 133.193359375 427.448242188 l 1
 132.704101562 427.248046875 l 0
 122.178710938 422.9296875 123.076171875 409.130859375 123.966796875 401.897460938 c 0
 123.999023438 401.629882812 l 1
 124.083984375 401.375976562 l 0
 150.376953125 323.162109375 178.318359375 245.434570312 204.838867188 167.374023438 c 1
 200.868164062 181.892578125 201.668945312 182.4140625 204.754882812 167.682617188 c 0
 206.374023438 159.94921875 217.704101562 157.091796875 221.138671875 165.685546875 c 0
 221.171875 165.767578125 l 1
 221.198242188 165.84765625 l 0
 245.97265625 242.025390625 269.65234375 318.6640625 294.001953125 394.978515625 c 1
 288.306640625 381.045898438 287.063476562 381.15234375 293.844726562 394.58984375 c 0
 298.956054688 404.719726562 298.80078125 423.790039062 283.612304688 427.318359375 c 0
 283.198242188 427.4140625 l 1
 282.775390625 427.376953125 l 0
 269.216796875 426.154296875 265.700195312 449.706054688 277.750976562 455.143554688 c 1
 300.380859375 456.272460938 324.961914062 455.280273438 348.680664062 455.645507812 c 0
 348.764648438 455.647460938 l 1
 348.84765625 455.654296875 l 0
 361.342773438 456.6328125 365.631835938 435.701171875 354.825195312 428.588867188 c 1
 351.083007812 427.557617188 341.91796875 426.96875 339.036132812 419.01171875 c 0
 339.012695312 418.947265625 l 1
 338.993164062 418.883789062 l 0
 311.43359375 328.69140625 284.829101562 238.088867188 257.657226562 147.81640625 c 1
 247.208007812 115.174804688 230.564453125 84.2802734375 210.094726562 56.69921875 c 1
 184.8828125 23.4892578125 147.649414062 -4.8388671875 104.892578125 -4.6953125 c 1
 64.3642578125 -5.5517578125 23.5107421875 25.1953125 19.4794921875 66.31640625 c 0
 19.474609375 66.3798828125 l 1
 19.46484375 66.443359375 l 0
 15.9609375 90.3544921875 41.0712890625 112.4375 64.4814453125 106.684570312 c 0
 64.57421875 106.661132812 l 1
 64.66796875 106.64453125 l 0
 87.62109375 102.736328125 101.3203125 74.181640625 91.8876953125 54.9365234375 c 1
 85.298828125 44.5380859375 101.193359375 44.1142578125 102.103515625 43.7158203125 c 0
 102.319335938 43.623046875 l 1
 102.544921875 43.568359375 l 0
 128.073242188 37.4072265625 152.334960938 52.8662109375 166.922851562 71.791015625 c 0
 167.791992188 72.9189453125 l 1
 52.857421875 408.23828125 l 2
86.244140625 402.83203125 m 0
 105.234375 405.643554688 109.163085938 379.413085938 91.9658203125 379.280273438 c 0
 77.6513671875 380.817382812 74.947265625 400.341796875 86.244140625 402.83203125 c 0
91.55078125 373.997070312 m 2
 91.7021484375 373.981445312 l 1
 91.853515625 373.983398438 l 0
 116.89453125 374.174804688 111.2734375 411.892578125 85.376953125 408.059570312 c 0
 85.28515625 408.046875 l 1
 85.193359375 408.02734375 l 0
 66.5390625 403.913085938 72.515625 376.040039062 91.55078125 373.997070312 c 2
182.259765625 95.283203125 m 2
 182.23046875 95.0517578125 l 1
 182.243164062 94.81640625 l 0
 183.396484375 72.73046875 225.981445312 73.646484375 215.696289062 102.904296875 c 0
 215.62109375 103.111328125 l 1
 215.516601562 103.303710938 l 0
 207.444335938 117.953125 184.548828125 113.622070312 182.259765625 95.283203125 c 2
187.541992188 94.8857421875 m 0
 190.02734375 109.362304688 205.40625 109.59375 210.77734375 100.939453125 c 1
 217.979492188 78.333984375 188.797851562 82.3740234375 187.541992188 94.8857421875 c 0
EndSplineSet
Validated: 524325
EndChar

StartChar: uni0444
Encoding: 1092 1092 33
Width: 421
VWidth: 0
Flags: W
HStem: -4.81543 5.20703<146.278 267.942> 112.695 5.22852<114.471 170.885 241.48 298.171> 153.462 5.35156<149.43 170.928 242.018 271.569> 295.53 5.34863<144.486 169.606 241.489 262.175> 336.46 5.22168<114.532 170.938 241.534 298.336> 454.432 5.22852<152.957 265.301>
VStem: 74.4814 5.22363<207.022 241.963> 170.885 5.27148<44.2725 44.9092 341.735 412.312> 236.263 5.22656<43.6667 112.604 158.608 295.53 341.682 410.066> 332.393 5.22754<211.824 246.276> 400.383 5.22754<196.564 258.196>
LayerCount: 2
Fore
SplineSet
242.170898438 409.43359375 m 0
 243.595703125 417.5546875 251.485351562 423.076171875 259.556640625 421.520507812 c 0
 259.938476562 421.447265625 l 1
 260.325195312 421.48828125 l 0
 279.8046875 423.55078125 281.52734375 454.155273438 262.924804688 459.079101562 c 0
 262.638671875 459.155273438 l 1
 262.342773438 459.165039062 l 0
 225.942382812 460.372070312 189.421875 459.369140625 153.115234375 459.66015625 c 0
 153.036132812 459.661132812 l 1
 152.95703125 459.65625 l 0
 133.267578125 458.624023438 130.426757812 428.051757812 148.645507812 422.263671875 c 0
 148.864257812 422.194335938 l 1
 149.09375 422.1640625 l 0
 157.677734375 421.025390625 163.982421875 421.221679688 167.451171875 415.809570312 c 1
 173.591796875 391.836914062 171.119140625 366.814453125 170.9375 341.735351562 c 1
 139.34765625 342.267578125 106.939453125 342.076171875 77.197265625 328.9609375 c 1
 42.349609375 314.98046875 8.9794921875 284.315429688 6.8525390625 243.787109375 c 1
 6.505859375 220.677734375 4.291015625 194.8515625 18.302734375 173.538085938 c 1
 43.794921875 131.993164062 94.359375 113.1796875 140.868164062 112.6953125 c 0
 150.631835938 112.618164062 162.47265625 112.668945312 170.884765625 112.66796875 c 1
 170.584960938 89.0078125 171.807617188 67.423828125 170.247070312 44.9091796875 c 0
 168.811523438 36.7724609375 160.922851562 31.263671875 152.833984375 32.8203125 c 0
 152.450195312 32.8935546875 l 1
 152.061523438 32.8515625 l 0
 132.612304688 30.771484375 130.908203125 0.2041015625 149.459960938 -4.7373046875 c 0
 149.75 -4.8154296875 l 1
 150.047851562 -4.82421875 l 0
 186.448242188 -6.017578125 222.96875 -5.029296875 259.275390625 -5.3193359375 c 0
 259.350585938 -5.3203125 l 1
 259.426757812 -5.3154296875 l 0
 278.743164062 -4.349609375 282.033203125 25.279296875 264.559570312 31.7744140625 c 0
 264.416015625 31.8291015625 l 1
 264.263671875 31.8642578125 l 0
 255.383789062 34.017578125 249.168945312 32.5556640625 245.430664062 37.8671875 c 1
 238.466796875 61.7041015625 241.272460938 87.283203125 241.48046875 112.603515625 c 1
 273.53125 112.047851562 306.34375 112.314453125 336.357421875 125.8671875 c 1
 371.1171875 140.067382812 404.223632812 171.250976562 405.610351562 211.798828125 c 1
 405.897460938 234.108398438 407.911132812 258.953125 394.760742188 279.725585938 c 1
 369.762695312 321.6171875 319.2734375 340.836914062 272.768554688 341.616210938 c 0
 262.559570312 341.748046875 250.477539062 341.666992188 241.534179688 341.681640625 c 1
 241.8359375 365.336914062 240.611328125 386.916015625 242.170898438 409.43359375 c 0
176.15625 115.23046875 m 2
 176.20703125 117.890625 l 1
 173.545898438 117.89453125 l 0
 162.647460938 117.908203125 151.768554688 117.837890625 140.91015625 117.923828125 c 0
 95.5859375 118.396484375 47.001953125 136.763671875 22.716796875 176.342773438 c 1
 9.880859375 195.8671875 11.7294921875 220.252929688 12.080078125 243.612304688 c 1
 14.0439453125 281.07421875 45.341796875 310.546875 79.224609375 324.140625 c 1
 108.631835938 337.107421875 141.357421875 337.041992188 173.495117188 336.4609375 c 0
 176.157226562 336.4140625 l 1
 176.157226562 339.075195312 l 0
 176.157226562 366.28515625 179.271484375 390.733398438 172.4765625 417.262695312 c 0
 172.407226562 417.528320312 l 1
 172.287109375 417.772460938 l 0
 167.4765625 427.499023438 155.860351562 426.5 150.229492188 427.248046875 c 1
 137.477539062 431.298828125 139.74609375 453.7265625 153.231445312 454.434570312 c 1
 138.375 454.10546875 138.212890625 454.549804688 153.073242188 454.431640625 c 0
 189.673828125 454.139648438 224.512695312 455.151367188 261.872070312 453.94921875 c 1
 273.575195312 450.26171875 273.9140625 428.838867188 260.163085938 426.733398438 c 1
 249.724609375 428.22265625 238.977539062 421.495117188 236.998046875 410.201171875 c 0
 236.975585938 410.06640625 l 1
 236.965820312 409.930664062 l 0
 235.32421875 386.256835938 236.709960938 362.528320312 236.262695312 339.125 c 0
 236.211914062 336.470703125 l 1
 238.8671875 336.459960938 l 0
 250.166992188 336.416992188 261.451171875 336.533203125 272.700195312 336.387695312 c 0
 318 335.629882812 366.513671875 316.857421875 390.306640625 276.985351562 c 1
 402.34765625 257.96484375 400.674804688 234.541992188 400.3828125 211.920898438 c 1
 399.098632812 174.392578125 368.090820312 144.479492188 334.29296875 130.671875 c 1
 304.62890625 117.276367188 271.452148438 117.26953125 238.92578125 117.879882812 c 0
 236.262695312 117.928710938 l 1
 236.262695312 115.265625 l 0
 236.262695312 87.9267578125 232.70703125 62.7685546875 240.459960938 36.23828125 c 0
 240.538085938 35.9716796875 l 1
 240.670898438 35.7255859375 l 0
 245.84375 26.1875 257.57421875 28.125 262.73828125 26.873046875 c 1
 275.015625 22.3095703125 272.354492188 0.5654296875 259.166015625 -0.09375 c 1
 274.021484375 0.2177734375 274.176757812 -0.208984375 259.31640625 -0.0908203125 c 0
 222.71875 0.201171875 187.872070312 -0.7958984375 150.51953125 0.3916015625 c 1
 138.856445312 4.087890625 138.509765625 25.4912109375 152.228515625 27.607421875 c 1
 162.67578125 26.1181640625 173.423828125 32.8310546875 175.420898438 44.1357421875 c 0
 175.444335938 44.2724609375 l 1
 175.454101562 44.41015625 l 0
 177.094726562 68.083984375 175.708984375 91.8125 176.15625 115.23046875 c 2
238.9765625 300.87890625 m 2
 236.262695312 300.982421875 l 1
 236.262695312 298.266601562 l 0
 236.262695312 256.232421875 235.245117188 203.828125 236.874023438 155.928710938 c 0
 236.958984375 153.440429688 l 1
 239.446289062 153.40234375 l 0
 284.71875 152.71484375 336.131835938 168.100585938 337.620117188 230.71484375 c 1
 337.98828125 281.737304688 282.616210938 299.208007812 238.9765625 300.87890625 c 2
241.489257812 295.530273438 m 1
 284.96484375 293.147460938 332.71484375 275.645507812 332.392578125 230.795898438 c 1
 331.028320312 173.365234375 285.576171875 158.671875 242.017578125 158.608398438 c 1
 240.538085938 205.147460938 241.442382812 255.077148438 241.489257812 295.530273438 c 1
223.127929688 387.612304688 m 2
 223.114257812 387.846679688 l 1
 223.059570312 388.07421875 l 0
 219.49609375 402.779296875 197.834960938 406.315429688 189.936523438 390.870117188 c 0
 189.845703125 390.694335938 l 1
 189.783203125 390.5078125 l 0
 182.530273438 368.784179688 225.005859375 355.64453125 223.127929688 387.612304688 c 2
217.9296875 387.059570312 m 0
 218.641601562 362.706054688 191.127929688 376.022460938 194.68359375 388.686523438 c 1
 201.374023438 400.392578125 215.30859375 395.837890625 217.9296875 387.059570312 c 0
174.76171875 298.470703125 m 2
 174.69140625 300.975585938 l 1
 172.185546875 301.01171875 l 0
 129.557617188 301.61328125 76.9443359375 282.072265625 74.4814453125 227.53515625 c 0
 71.6806640625 173.611328125 127.369140625 155.291992188 173.439453125 153.461914062 c 0
 176.157226562 153.354492188 l 1
 176.157226562 156.07421875 l 0
 176.157226562 202.78125 176.041015625 253.0703125 174.76171875 298.470703125 c 2
169.606445312 295.794921875 m 1
 170.790039062 252.021484375 170.923828125 202.131835938 170.927734375 158.813476562 c 1
 124.901367188 161.396484375 77.2236328125 179.525390625 79.705078125 227.298828125 c 0
 81.94140625 276.80078125 128.981445312 295.471679688 169.606445312 295.794921875 c 1
211.700195312 49.5146484375 m 2
 211.899414062 49.546875 l 1
 212.090820312 49.6103515625 l 0
 234.026367188 56.8251953125 218.77734375 99.4345703125 194.01171875 77.47265625 c 0
 193.813476562 77.2958984375 l 1
 193.653320312 77.0830078125 l 0
 184.700195312 65.126953125 195.076171875 46.7626953125 211.700195312 49.5146484375 c 2
210.623046875 54.6298828125 m 0
 197.581054688 53.0732421875 192.6328125 66.23828125 197.681640625 73.7421875 c 1
 216.984375 90.0556640625 223.07421875 59.2978515625 210.623046875 54.6298828125 c 0
EndSplineSet
Validated: 524325
EndChar

StartChar: uni0445
Encoding: 1093 1093 34
Width: 415
VWidth: 0
Flags: HWO
HStem: -10.0452 4.9277<33.4363 120.938 259.416 383.987> 22.7917 5.28672<359.089 380.014> 420.786 5.29855<25.545 50.6533 286.196 289.788> 453.649 5.27192<24.8581 151.038 288.631 376.336>
VStem: 270.525 5.2808<55.5316 69.4901>
LayerCount: 2
Fore
SplineSet
33.7666015625 -8.41015625 m 0
 62.5986328125 -8.044921875 91.587890625 -9.1201171875 120.560546875 -7.8828125 c 0
 120.75 -7.8740234375 l 1
 120.938476562 -7.8388671875 l 0
 146.513671875 -2.994140625 136.125 26.33984375 115.689453125 29.9365234375 c 1
 194.490234375 162.6328125 l 1
 266.612304688 30.66796875 l 1
 255.049804688 29.8359375 246.161132812 19.5908203125 248.396484375 8.0283203125 c 0
 249.47265625 -5.1708984375 262.85546875 -10.1875 273.393554688 -8.39453125 c 1
 310.171875 -8.1708984375 344.490234375 -8.8857421875 380.415039062 -8.044921875 c 0
 380.665039062 -8.0390625 l 1
 380.909179688 -7.986328125 l 0
 399.907226562 -3.8984375 399.3046875 26.91015625 380.014648438 30.046875 c 0
 379.744140625 30.08984375 l 1
 379.47265625 30.078125 l 0
 368.211914062 29.5693359375 355.84765625 30.283203125 351.510742188 40.263671875 c 0
 351.465820312 40.361328125 l 1
 351.416992188 40.4560546875 l 0
 315.439453125 107.732421875 277.563476562 175.846679688 241.622070312 241.99609375 c 1
 276.998046875 301.461914062 311.873046875 360.430664062 346.713867188 418.791992188 c 1
 357.411132812 427.7109375 371.908203125 417.056640625 386.421875 425.393554688 c 1
 401.733398438 434.805664062 395.1796875 462.7578125 376.013671875 461.272460938 c 0
 347.181640625 460.907226562 318.189453125 461.99609375 289.201171875 460.744140625 c 0
 288.912109375 460.73046875 l 1
 288.630859375 460.65625 l 0
 269.981445312 455.64453125 271.66796875 424.865234375 291.22265625 422.6953125 c 0
 291.657226562 422.646484375 l 1
 292.083007812 422.740234375 l 0
 293.028320312 422.94921875 293.828125 423.056640625 294.356445312 423.127929688 c 1
 293.137695312 420.669921875 290.252929688 417.275390625 288.774414062 414.0078125 c 2
 215.2734375 290.245117188 l 1
 143.169921875 422.201171875 l 1
 154.720703125 423.016601562 163.6015625 433.287109375 161.366210938 444.833984375 c 0
 160.290039062 458.033203125 146.91015625 463.036132812 136.370117188 461.271484375 c 1
 99.6015625 461.032226562 65.2880859375 461.747070312 29.3486328125 460.920898438 c 0
 29.0966796875 460.916015625 l 1
 28.8515625 460.862304688 l 0
 9.8759765625 456.758789062 10.4521484375 425.96875 29.7177734375 422.829101562 c 0
 29.986328125 422.786132812 l 1
 30.2578125 422.797851562 l 0
 41.53125 423.291992188 53.890625 422.567382812 58.255859375 412.606445312 c 0
 58.2978515625 412.51171875 l 1
 58.345703125 412.420898438 l 0
 94.3232421875 345.130859375 132.185546875 277.015625 168.125976562 210.879882812 c 1
 132.75 151.415039062 97.8876953125 92.4267578125 63.0654296875 34.072265625 c 1
 52.353515625 25.162109375 37.87109375 35.7880859375 23.341796875 27.46875 c 1
 8.0439453125 18.0556640625 14.5791015625 -9.9306640625 33.7666015625 -8.41015625 c 0
276.450195312 23.6748046875 m 1
 194.680664062 173.291992188 l 1
 106.58203125 24.9404296875 l 1
 111.262695312 24.978515625 l 0
 131.458984375 25.13671875 138.54296875 0.869140625 120.139648438 -2.6162109375 c 1
 91.8994140625 -3.7705078125 62.4912109375 -2.767578125 33.61328125 -3.1318359375 c 0
 33.525390625 -3.1328125 l 1
 33.4365234375 -3.140625 l 0
 20.4384765625 -4.171875 15.2744140625 16.306640625 26.0390625 22.9287109375 c 1
 35.9609375 28.611328125 54.6005859375 18.5966796875 67.005859375 30.5537109375 c 0
 67.2607421875 30.798828125 l 1
 67.4404296875 31.1015625 l 0
 102.828125 90.3974609375 138.079101562 150.0546875 173.4296875 209.471679688 c 0
 174.198242188 210.76171875 l 1
 173.481445312 212.08203125 l 0
 136.727539062 279.739257812 99.2783203125 347.057617188 63.0029296875 414.91015625 c 1
 69.55859375 401.408203125 69.1171875 400.978515625 63.091796875 414.724609375 c 0
 57.1884765625 428.194335938 42.3515625 428.541992188 30.2880859375 428.083984375 c 1
 18.2763671875 430.62109375 15.9931640625 452.005859375 29.71484375 455.649414062 c 1
 64.892578125 456.43359375 101.029296875 455.74609375 136.735351562 455.994140625 c 0
 137.00390625 455.99609375 l 1
 137.264648438 456.052734375 l 0
 145.989257812 457.907226562 155.404296875 452.981445312 156.116210938 444.260742188 c 0
 156.12890625 444.115234375 l 1
 156.15625 443.973632812 l 0
 158.0078125 434.40625 148.627929688 425.53515625 139.108398438 427.826171875 c 0
 133.318359375 429.219726562 l 1
 215.081054688 279.584960938 l 1
 293.461914062 411.563476562 l 1
 293.5234375 411.697265625 l 0
 294.091796875 412.954101562 308.37890625 431.1015625 291.375 427.995117188 c 1
 279.470703125 429.879882812 276.215820312 451.169921875 289.720703125 455.482421875 c 1
 317.748046875 456.640625 347.348632812 455.629882812 376.166015625 455.994140625 c 0
 376.249023438 455.995117188 l 1
 376.3359375 456.002929688 l 0
 389.326171875 457.009765625 394.500976562 436.555664062 383.723632812 429.931640625 c 1
 373.815429688 424.240234375 355.161132812 434.282226562 342.768554688 422.305664062 c 0
 342.517578125 422.061523438 l 1
 342.337890625 421.760742188 l 0
 306.935546875 362.46484375 271.668945312 302.823242188 236.319335938 243.405273438 c 0
 235.549804688 242.115234375 l 1
 236.266601562 240.796875 l 0
 273.021484375 173.122070312 310.483398438 105.8046875 346.760742188 37.966796875 c 1
 340.224609375 51.478515625 340.68359375 51.923828125 346.668945312 38.158203125 c 0
 352.5390625 24.6533203125 367.40234375 24.318359375 379.447265625 24.7919921875 c 1
 391.489257812 22.2529296875 393.779296875 0.857421875 380.048828125 -2.7734375 c 1
 344.881835938 -3.5712890625 308.749023438 -2.8837890625 273.028320312 -3.1171875 c 0
 272.755859375 -3.119140625 l 1
 272.489257812 -3.177734375 l 0
 263.774414062 -5.056640625 254.358398438 -0.12109375 253.646484375 8.6015625 c 0
 253.633789062 8.74609375 l 1
 253.606445312 8.8876953125 l 0
 251.755859375 18.46484375 261.14453125 27.318359375 270.674804688 25.048828125 c 0
 276.450195312 23.6748046875 l 1
275.805664062 65.0791015625 m 0
 278.224609375 80.76953125 296.665039062 79.29296875 299.971679688 68.6240234375 c 1
 300.48046875 68.7822265625 276.874023438 36.8994140625 275.805664062 65.0791015625 c 0
270.538085938 65.369140625 m 2
 270.518554688 65.1826171875 l 1
 270.525390625 64.99609375 l 0
 271.290039062 44.84375 309.791015625 41.4716796875 305.095703125 69.8359375 c 0
 305.068359375 70.0146484375 l 1
 305.013671875 70.1875 l 0
 299.823242188 86.9404296875 272.704101562 86.212890625 270.538085938 65.369140625 c 2
113.1875 371.458984375 m 4
 102.754882812 367.439453125 95.2509765625 385.733398438 102.375 392.016601562 c 5
 122.03515625 401.278320312 128.370117188 378.671875 113.1875 371.458984375 c 4
115.178710938 366.569335938 m 6
 115.271484375 366.60546875 l 5
 115.361328125 366.647460938 l 4
 137.235351562 377.037109375 124.86328125 409.290039062 99.7734375 396.61328125 c 4
 99.5556640625 396.502929688 l 5
 99.361328125 396.35546875 l 4
 86.478515625 386.508789062 98.6640625 360.206054688 115.178710938 366.569335938 c 6
EndSplineSet
EndChar

StartChar: uni0446
Encoding: 1094 1094 35
Width: 416
VWidth: 0
Flags: W
HStem: -5.54004 5.24316<17.7706 398.974> 26.7949 5.18555<17.8837 24.001 321.262 395.015> 40.3594 5.24609<113.293 241.768> 350.98 5.25586<68.6543 80.9854> 454.615 5.24512<19.2626 134.826 215.728 334.066>
VStem: 42.3242 5.24609<39.1259 417.334> 108.044 5.24902<45.6055 414.196> 241.768 5.24512<45.6055 413.881> 307.283 5.24609<39.6804 414.157>
LayerCount: 2
Fore
SplineSet
42.32421875 46.9853515625 m 4
 41.84375 37.7734375 33.4111328125 30.3515625 24.3876953125 32.150390625 c 4
 24.0009765625 32.2275390625 l 5
 23.611328125 32.1884765625 l 4
 4.0537109375 30.220703125 2.3515625 -0.564453125 20.9970703125 -5.453125 c 4
 21.3154296875 -5.5380859375 l 5
 21.64453125 -5.5400390625 l 4
 146.37109375 -6.369140625 280.192382812 -6.5009765625 393.93359375 -5.8310546875 c 4
 394.146484375 -5.8291015625 l 5
 394.357421875 -5.79296875 l 4
 413.473632812 -2.556640625 413.860351562 27.94140625 395.014648438 31.9267578125 c 4
 394.80859375 31.9716796875 l 5
 394.599609375 31.98046875 l 4
 370.340820312 33.1650390625 345.50390625 31.3330078125 322.26953125 32.9150390625 c 5
 315.202148438 36.1396484375 312.490234375 43.0908203125 312.529296875 50.0166015625 c 4
 312.66015625 168.944335938 312.252929688 288.0234375 312.732421875 406.818359375 c 5
 313.168945312 415.918945312 321.630859375 423.494140625 330.641601562 421.6484375 c 4
 331.037109375 421.56640625 l 5
 331.442382812 421.609375 l 4
 350.9765625 423.661132812 352.706054688 454.33984375 334.06640625 459.278320312 c 4
 333.77734375 459.354492188 l 5
 333.48046875 459.365234375 l 4
 296.96484375 460.575195312 260.328125 459.5703125 223.892578125 459.860351562 c 4
 223.81640625 459.861328125 l 5
 223.740234375 459.856445312 l 4
 203.97265625 458.873046875 201.106445312 428.157226562 219.415039062 422.385742188 c 4
 219.6328125 422.31640625 l 5
 219.858398438 422.288085938 l 4
 228.065429688 421.196289062 235.287109375 421.892578125 238.422851562 415.513671875 c 5
 244.709960938 404.022460938 240.370117188 389.94140625 241.767578125 375.383789062 c 6
 241.767578125 45.60546875 l 5
 113.29296875 45.60546875 l 5
 113.4140625 166.123046875 113.015625 286.423828125 113.493164062 406.844726562 c 4
 113.946289062 416.053710938 122.403320312 423.494140625 131.400390625 421.6484375 c 4
 131.797851562 421.56640625 l 5
 132.204101562 421.609375 l 4
 151.721679688 423.678710938 153.453125 454.338867188 134.826171875 459.278320312 c 4
 134.5390625 459.354492188 l 5
 134.241210938 459.365234375 l 4
 97.712890625 460.576171875 61.685546875 459.307617188 25.27734375 459.598632812 c 4
 25.201171875 459.598632812 l 5
 25.1259765625 459.594726562 l 4
 5.57421875 458.622070312 1.1083984375 427.595703125 19.8544921875 422.27734375 c 4
 20.037109375 422.224609375 l 5
 20.2255859375 422.200195312 l 4
 29.0068359375 421.03515625 37.990234375 420.883789062 41.24609375 416.096679688 c 5
 41.2392578125 293.456054688 42.7744140625 155.822265625 42.32421875 46.9853515625 c 4
307.283203125 50.03515625 m 4
 307.236328125 41.400390625 311.467773438 31.126953125 320.936523438 27.8427734375 c 4
 321.26171875 27.7314453125 l 5
 321.606445312 27.705078125 l 4
 345.640625 25.9619140625 370.989257812 27.9130859375 393.9296875 26.794921875 c 5
 406.626953125 24.109375 407.092773438 2.3251953125 393.708984375 -0.5869140625 c 5
 280.33984375 -1.2490234375 147.678710938 -1.1279296875 22.0146484375 -0.296875 c 5
 10.3447265625 3.353515625 9.994140625 24.892578125 23.7333984375 26.923828125 c 5
 35.6845703125 25.2177734375 46.9130859375 34.232421875 47.56640625 46.775390625 c 4
 47.5693359375 46.8369140625 l 5
 47.5703125 46.900390625 l 4
 48.0205078125 155.88671875 46.4775390625 294.530273438 46.4921875 416.72265625 c 4
 46.4921875 417.333984375 l 5
 46.22265625 417.881835938 l 4
 41.3095703125 427.852539062 26.9404296875 426.572265625 21.287109375 427.323242188 c 5
 0.9921875 433.080078125 14.4482421875 454.439453125 25.2353515625 454.353515625 c 4
 61.9638671875 454.060546875 96.3154296875 455.333007812 133.767578125 454.131835938 c 5
 145.485351562 450.432617188 145.78515625 428.9765625 132.064453125 426.875 c 5
 120.147460938 428.637695312 108.870117188 419.594726562 108.25 407.04296875 c 4
 108.247070312 406.985351562 l 5
 108.24609375 406.92578125 l 4
 107.765625 285.615234375 108.173828125 164.287109375 108.043945312 42.984375 c 4
 108.040039062 40.359375 l 5
 247.012695312 40.359375 l 5
 247.012695312 375.635742188 l 5
 247.001953125 375.760742188 l 4
 245.780273438 388.474609375 250.501953125 404.364257812 243.080078125 417.931640625 c 5
 238.3203125 427.610351562 226.6171875 426.640625 220.9921875 427.388671875 c 5
 208.1875 431.423828125 210.47265625 453.944335938 224.000976562 454.619140625 c 5
 209.102539062 454.305664062 208.948242188 454.734375 223.849609375 454.615234375 c 4
 260.58203125 454.322265625 295.533203125 455.336914062 333.008789062 454.131835938 c 5
 344.739257812 450.431640625 345.040039062 428.96484375 331.305664062 426.874023438 c 5
 319.370117188 428.635742188 308.095703125 419.612304688 307.487304688 406.953125 c 5
 307.0078125 287.87109375 307.415039062 169.015625 307.283203125 50.03515625 c 4
275.4296875 62.6669921875 m 4
 287.860351562 62.4306640625 292.58984375 42.0625 276.936523438 38.25 c 5
 264.538085938 36.6865234375 255.921875 59.7373046875 275.4296875 62.6669921875 c 4
275.084960938 67.8994140625 m 6
 249.217773438 65.041015625 257.336914062 30.4921875 277.591796875 33.044921875 c 4
 277.740234375 33.0634765625 l 5
 277.885742188 33.099609375 l 4
 300.051757812 38.498046875 293.87890625 67.5634765625 275.421875 67.9140625 c 4
 275.25390625 67.9169921875 l 5
 275.084960938 67.8994140625 l 6
69.138671875 350.98046875 m 4
 104.354492188 349.965820312 86.466796875 388.4453125 65.978515625 385.247070312 c 4
 65.6689453125 385.198242188 l 5
 65.3779296875 385.080078125 l 4
 48.9951171875 378.29296875 53.572265625 348.903320312 69.138671875 350.98046875 c 4
69.0771484375 356.229492188 m 6
 68.8642578125 356.236328125 l 5
 68.654296875 356.208007812 l 4
 61.5185546875 355.254882812 55.169921875 374.2734375 67.0751953125 380.104492188 c 5
 79.2939453125 381.508789062 97.986328125 355.396484375 69.0771484375 356.229492188 c 6
EndSplineSet
Validated: 524325
EndChar

StartChar: uni0447
Encoding: 1095 1095 36
Width: 371
VWidth: 0
Flags: W
HStem: -6.37402 5.19727<224.776 340.689> 370.37 5.19043<67.9184 82.8733> 449.787 5.15723<20.7969 137.585 226.562 343.379>
VStem: 105.804 5.19629<305.202 404.657> 249.247 5.23926<43.877 44.3701 301.965 311.347 392.719 393.463> 313.663 5.19727<39.0315 404.37>
LayerCount: 2
Fore
SplineSet
248.224609375 44.3701171875 m 0
 247.1328125 35.2763671875 238.25 29.8955078125 229.186523438 31.310546875 c 0
 228.720703125 31.3818359375 l 1
 228.258789062 31.287109375 l 0
 208.151367188 27.13671875 210.721679688 -6.4599609375 231.806640625 -6.3740234375 c 0
 267.833984375 -5.87109375 304.203125 -7.40234375 340.354492188 -5.6513671875 c 0
 340.689453125 -5.6337890625 l 1
 341.008789062 -5.5341796875 l 0
 360.581054688 0.6279296875 355.12109375 34.0546875 333.798828125 31.642578125 c 0
 324.994140625 30.6123046875 318.595703125 40.15625 318.860351562 49.193359375 c 0
 319.0625 167.59765625 318.427734375 285.760742188 319.176757812 404.041015625 c 0
 319.958984375 413.530273438 329.036132812 419.5390625 338.40234375 418.03125 c 0
 338.873046875 417.956054688 l 1
 339.338867188 418.051757812 l 0
 359.442382812 422.186523438 356.852539062 455.766601562 335.80859375 455.713867188 c 1
 299.74609375 455.16796875 263.383789062 456.772460938 227.212890625 454.9609375 c 0
 226.879882812 454.944335938 l 1
 226.5625 454.84375 l 0
 206.977539062 448.678710938 212.522460938 415.236328125 233.784179688 417.6953125 c 0
 245.893554688 419.026367188 253.659179688 405.405273438 250.88671875 393.7109375 c 0
 250.828125 393.462890625 l 1
 250.819335938 393.208984375 l 0
 249.771484375 365.624023438 252.948242188 337.875 249.092773438 311.346679688 c 1
 242.76171875 276.743164062 212.48828125 244.529296875 175.884765625 247.31640625 c 1
 137.174804688 248.942382812 110.705078125 288.413085938 111 325.291015625 c 1
 111.65234375 351.68359375 109.743164062 377.98046875 111.868164062 403.830078125 c 0
 114.146484375 413.262695312 123.129882812 419.421875 132.625 418.026367188 c 0
 133.079101562 417.959960938 l 1
 133.525390625 418.051757812 l 0
 153.641601562 422.185546875 151.072265625 455.766601562 130.009765625 455.713867188 c 1
 93.947265625 455.16796875 57.599609375 456.772460938 21.4443359375 454.9609375 c 0
 21.11328125 454.944335938 l 1
 20.796875 454.844726562 l 0
 1.18359375 448.692382812 6.740234375 415.278320312 27.931640625 417.662109375 c 1
 40.658203125 418.623046875 44.9892578125 402.256835938 42.9775390625 390.1328125 c 0
 42.94921875 389.956054688 l 1
 42.943359375 389.775390625 l 0
 41.9912109375 353.876953125 42.064453125 315.955078125 59.306640625 282.514648438 c 0
 81.6826171875 232.682617188 136.405273438 195.541015625 192.430664062 205.166992188 c 1
 213.2421875 208.3671875 233.6796875 218.13671875 249.247070312 230.39453125 c 1
 248.8125 168.234375 249.497070312 106.325195312 248.224609375 44.3701171875 c 0
313.663085938 49.275390625 m 0
 313.349609375 38.5751953125 320.997070312 24.9111328125 334.400390625 26.478515625 c 0
 348.607421875 28.0859375 353.375976562 4.5498046875 339.763671875 -0.4755859375 c 1
 304.572265625 -2.126953125 267.831054688 -0.671875 231.734375 -1.1767578125 c 0
 217.666992188 -1.234375 215.17578125 22.5712890625 228.868164062 26.099609375 c 1
 239.4765625 24.904296875 251.85546875 31.0244140625 253.400390625 43.876953125 c 0
 253.416015625 44.0068359375 l 1
 253.418945312 44.1337890625 l 0
 254.732421875 108.044921875 253.967773438 172.0546875 254.486328125 235.932617188 c 0
 254.533203125 241.678710938 l 1
 250.186523438 237.918945312 l 0
 233.63671875 223.600585938 213.249023438 213.626953125 191.594726562 210.298828125 c 1
 138.33984375 201.1484375 85.599609375 236.651367188 64.01953125 284.70703125 c 0
 63.9912109375 284.772460938 l 1
 63.9599609375 284.833984375 l 0
 47.4580078125 316.834960938 47.1884765625 353.779296875 48.1396484375 389.637695312 c 1
 46.732421875 374.939453125 45.689453125 374.713867188 48.10546875 389.28125 c 0
 50.1328125 401.499023438 46.4736328125 424.2734375 27.4453125 422.838867188 c 1
 13.1376953125 421.229492188 8.4345703125 444.780273438 22.0390625 449.787109375 c 1
 57.2041015625 451.493164062 93.9912109375 449.969726562 130.055664062 450.516601562 c 1
 144.142578125 450.55078125 146.6171875 426.7578125 132.916015625 423.239257812 c 1
 121.396484375 424.405273438 109.741210938 417.15625 106.770507812 404.852539062 c 0
 106.721679688 404.657226562 l 1
 106.705078125 404.455078125 l 0
 104.534179688 378.044921875 106.448242188 351.532226562 105.803710938 325.375976562 c 1
 105.4921875 286.428710938 133.331054688 243.903320312 175.578125 242.125976562 c 1
 215.491210938 239.087890625 247.514648438 273.84375 254.221679688 310.505859375 c 1
 258.254882812 338.25 255.02734375 364.395507812 256.000976562 392.71875 c 1
 258.712890625 406.20703125 250.609375 424.7734375 233.217773438 422.862304688 c 0
 218.979492188 421.215820312 214.208984375 444.764648438 227.810546875 449.787109375 c 1
 262.987304688 451.493164062 299.7890625 449.969726562 335.852539062 450.516601562 c 1
 349.9375 450.55078125 352.392578125 426.750976562 338.741210938 423.2421875 c 1
 327.637695312 424.518554688 315.083984375 417.65234375 313.98828125 404.370117188 c 0
 313.981445312 404.272460938 l 1
 313.98046875 404.173828125 l 0
 313.228515625 285.8984375 313.865234375 167.485351562 313.663085938 49.275390625 c 0
77.5107421875 370.370117188 m 0
 93.763671875 371.41796875 97.3095703125 394.6875 82.490234375 403.126953125 c 0
 82.390625 403.184570312 l 1
 82.2880859375 403.231445312 l 0
 58.697265625 414.057617188 46.755859375 368.948242188 77.5107421875 370.370117188 c 0
80.017578125 398.553710938 m 0
 91.1259765625 392.227539062 87.3642578125 376.21484375 77.22265625 375.560546875 c 0
 54.9423828125 374.529296875 64.62109375 405.619140625 80.017578125 398.553710938 c 0
282.657226562 86.83203125 m 2
 282.422851562 86.8076171875 l 1
 282.19921875 86.7412109375 l 0
 260.952148438 80.462890625 272.178710938 38.82421875 298.317382812 57.458984375 c 0
 298.520507812 57.603515625 l 1
 298.694335938 57.7880859375 l 0
 309.51953125 69.21484375 299.861328125 88.685546875 282.657226562 86.83203125 c 2
283.465820312 81.697265625 m 0
 297.14453125 82.55078125 301.291015625 68.78515625 295.08984375 61.5341796875 c 1
 274.4921875 47.712890625 271.6171875 77.560546875 283.465820312 81.697265625 c 0
EndSplineSet
Validated: 524325
EndChar

StartChar: uni0448
Encoding: 1096 1096 37
Width: 585
VWidth: 0
Flags: W
HStem: -4.10059 5.16113<21.3184 564.375> 27.46 5.16992<545.922 563.725> 41.2256 5.15527<118.925 234.668 329.127 463.729> 451.606 5.14062<19.6287 142.146 230.295 352.325 438.708 561.043>
VStem: 44.5449 5.16211<40.1715 392.447> 113.757 5.16797<46.3174 405.541> 254.289 5.16113<46.3178 398.283> 323.185 5.16309<46.3809 411.085> 463.729 5.16309<46.3213 390.983> 534.627 5.16016<40.6738 405.548>
LayerCount: 2
Fore
SplineSet
538.104492188 405.131835938 m 0
 539.109375 414.59375 548.504882812 420.7109375 557.877929688 419.04296875 c 0
 558.25390625 418.975585938 l 1
 558.631835938 419.021484375 l 0
 577.727539062 421.265625 579.689453125 450.858398438 561.307617188 455.928710938 c 0
 561.04296875 456.001953125 l 1
 560.76953125 456.017578125 l 0
 529.997070312 457.78515625 499.001953125 456.252929688 468.37109375 456.770507812 c 0
 468.198242188 456.7734375 l 1
 468.024414062 456.751953125 l 0
 457.715820312 455.534179688 437.615234375 462.23828125 429.502929688 446.836914062 c 1
 420.9453125 432.0859375 436.07421875 415.870117188 450.716796875 418.752929688 c 1
 462.483398438 417.056640625 465.307617188 402.759765625 463.751953125 391.33203125 c 0
 463.729492188 391.158203125 l 1
 463.729492188 46.3212890625 l 1
 418.7578125 46.369140625 372.888671875 46.2421875 329.126953125 46.380859375 c 1
 327.14453125 70.80078125 328.994140625 94.822265625 328.34765625 119.3515625 c 1
 328.34765625 402.295898438 l 2
 328.209960938 412.477539062 337.622070312 421.016601562 347.579101562 418.915039062 c 0
 347.934570312 418.838867188 l 1
 348.295898438 418.866210938 l 0
 367.532226562 420.241210938 370.807617188 449.681640625 352.708984375 455.646484375 c 0
 352.325195312 455.7734375 l 1
 351.920898438 455.77734375 l 0
 309.280273438 456.123046875 269.162109375 456.526367188 230.68359375 455.776367188 c 0
 230.294921875 455.768554688 l 1
 229.923828125 455.646484375 l 0
 211.857421875 449.6796875 215.087890625 420.259765625 234.337890625 418.866210938 c 0
 234.708984375 418.837890625 l 1
 235.073242188 418.918945312 l 0
 246.3828125 421.37890625 256.118164062 410.03515625 254.319335938 398.693359375 c 0
 254.2890625 398.494140625 l 1
 254.2890625 398.293945312 l 0
 254.086914062 281.44921875 254.708007812 163.110351562 253.973632812 47.2734375 c 1
 251.861328125 44.314453125 242.013671875 47.6787109375 233.2734375 46.3173828125 c 1
 118.924804688 46.3173828125 l 1
 119.114257812 166.079101562 118.493164062 285.524414062 119.236328125 405.1328125 c 0
 120.217773438 414.600585938 129.630859375 420.711914062 139.01171875 419.04296875 c 0
 139.388671875 418.975585938 l 1
 139.768554688 419.021484375 l 0
 158.858398438 421.299804688 160.811523438 450.892578125 142.407226562 455.930664062 c 0
 142.145507812 456.001953125 l 1
 141.875976562 456.017578125 l 0
 111.590820312 457.786132812 81.083984375 456.252929688 50.9736328125 456.770507812 c 0
 50.775390625 456.7734375 l 1
 50.5810546875 456.747070312 l 0
 40.0234375 455.306640625 20.119140625 462.470703125 11.0537109375 447.666992188 c 1
 1.9384765625 433.514648438 15.84765625 416.12109375 31.1044921875 418.811523438 c 1
 43.009765625 417.587890625 46.615234375 403.826171875 44.892578125 392.853515625 c 0
 44.861328125 392.65625 l 1
 44.8603515625 392.458984375 l 0
 44.64453125 277.186523438 45.2802734375 162.017578125 44.544921875 46.822265625 c 0
 43.5263671875 37.361328125 34.1533203125 31.228515625 24.7734375 32.90625 c 0
 24.3955078125 32.974609375 l 1
 24.0126953125 32.9296875 l 0
 4.9072265625 30.6513671875 2.982421875 1.1298828125 21.318359375 -4.00390625 c 0
 21.6494140625 -4.09765625 l 1
 21.9931640625 -4.1005859375 l 0
 201.844726562 -5.4833984375 398.3984375 -5.2529296875 559.12109375 -4.5029296875 c 0
 559.338867188 -4.501953125 l 1
 559.55078125 -4.46484375 l 0
 578.4140625 -1.1884765625 579.084960938 28.3427734375 560.458007812 32.5654296875 c 0
 560.146484375 32.63671875 l 1
 559.827148438 32.6298828125 l 0
 550.831054688 32.423828125 542.672851562 34.5947265625 539.787109375 41.58984375 c 1
 538.5546875 163.348632812 537.383789062 297.129882812 538.104492188 405.131835938 c 0
323.184570312 402.26171875 m 2
 323.184570312 119.284179688 l 1
 323.844726562 94.2451171875 321.838867188 68.8525390625 324.189453125 43.568359375 c 0
 324.40625 41.232421875 l 1
 326.751953125 41.2255859375 l 0
 373.18359375 41.06640625 419.806640625 41.2109375 466.306640625 41.1533203125 c 0
 468.892578125 41.150390625 l 1
 468.892578125 390.983398438 l 1
 467.896484375 376.263671875 466.87890625 376.015625 468.869140625 390.635742188 c 0
 470.479492188 402.4765625 467.885742188 422.254882812 450.787109375 423.938476562 c 0
 450.342773438 423.981445312 l 1
 449.91015625 423.874023438 l 0
 438.598632812 421.055664062 428.143554688 434.20703125 434.021484375 444.337890625 c 1
 440.115234375 455.908203125 454.79296875 449.991210938 468.629882812 451.625 c 1
 453.895507812 450.8828125 453.533203125 451.857421875 468.284179688 451.606445312 c 0
 499.254882812 451.084960938 528.651367188 452.625976562 560.202148438 450.877929688 c 1
 571.8359375 447.094726562 572.006835938 426.423828125 558.41796875 424.19921875 c 1
 547.018554688 425.682617188 534.357421875 418.73046875 532.956054688 405.547851562 c 0
 532.944335938 405.420898438 l 1
 532.942382812 405.29296875 l 0
 532.221679688 297.263671875 533.404296875 162.0546875 534.626953125 41.1005859375 c 0
 534.630859375 40.673828125 l 1
 534.774414062 40.271484375 l 0
 538.698242188 29.1142578125 550.00390625 27.361328125 559.626953125 27.4599609375 c 1
 571.278320312 24.2578125 572.690429688 3.701171875 558.897460938 0.6591796875 c 1
 398.568359375 -0.0859375 203.047851562 -0.3232421875 22.3857421875 1.060546875 c 1
 10.8720703125 4.8544921875 10.6142578125 25.5009765625 24.234375 27.75 c 1
 35.6474609375 26.25390625 48.2763671875 33.2392578125 49.6923828125 46.3974609375 c 0
 49.70703125 46.52734375 l 1
 49.7080078125 46.6572265625 l 0
 50.443359375 161.89453125 49.8076171875 277.201171875 50.0244140625 392.447265625 c 1
 48.86328125 377.740234375 47.705078125 377.478515625 49.9931640625 392.051757812 c 0
 51.8720703125 404.029296875 47.7392578125 423.3984375 30.8759765625 423.9765625 c 0
 30.5390625 423.990234375 l 1
 30.2099609375 423.9140625 l 0
 18.900390625 421.317382812 9.16796875 435.206054688 15.4267578125 444.920898438 c 1
 22.2939453125 456.13671875 37.11328125 449.700195312 51.2783203125 451.630859375 c 1
 36.55078125 450.7578125 36.1328125 451.860351562 50.8857421875 451.606445312 c 0
 81.3388671875 451.084960938 110.266601562 452.625976562 141.307617188 450.877929688 c 1
 152.953125 447.115234375 153.138671875 426.44921875 139.546875 424.200195312 c 1
 128.161132812 425.682617188 115.454101562 418.749023438 114.08984375 405.541015625 c 0
 114.075195312 405.41796875 l 1
 114.07421875 405.291992188 l 0
 113.326171875 284.796875 113.958984375 164.24609375 113.756835938 43.740234375 c 0
 113.75390625 41.1533203125 l 1
 234.315429688 41.1533203125 l 1
 234.66796875 41.255859375 l 0
 238.404296875 42.341796875 255.06640625 36.41015625 258.935546875 45.6806640625 c 0
 259.131835938 46.1494140625 l 1
 259.133789062 46.6572265625 l 0
 259.883789062 163.853515625 259.249023438 281.106445312 259.450195312 398.283203125 c 1
 258.279296875 383.577148438 257.108398438 383.3125 259.418945312 397.883789062 c 0
 261.6328125 411.838867188 250.473632812 426.837890625 234.338867188 424.045898438 c 1
 222.286132812 425.466796875 218.279296875 445.702148438 231.186523438 450.62109375 c 1
 268.698242188 451.3359375 308.225585938 450.967773438 351.461914062 450.6171875 c 1
 362.708007812 446.336914062 362.08203125 425.659179688 348.325195312 424.048828125 c 1
 335.341796875 426.0234375 322.998046875 415.991210938 323.184570312 402.26171875 c 2
505.342773438 52.7841796875 m 0
 528.237304688 57.6416015625 525.133789062 92.642578125 499.788085938 86.6318359375 c 0
 499.696289062 86.6103515625 l 1
 499.60546875 86.58203125 l 0
 482.932617188 81.31640625 484.853515625 47.9404296875 505.342773438 52.7841796875 c 0
501.071289062 81.630859375 m 0
 519.474609375 85.9931640625 520.856445312 61.3525390625 504.21484375 57.8232421875 c 0
 491.190429688 54.744140625 489.911132812 78.10546875 501.071289062 81.630859375 c 0
64.9990234375 373.626953125 m 2
 65.125 373.365234375 l 1
 65.3046875 373.139648438 l 0
 82.27734375 351.827148438 112.420898438 380.484375 88.40234375 397.581054688 c 0
 88.265625 397.677734375 l 1
 88.1181640625 397.7578125 l 0
 74.0302734375 405.258789062 57.1923828125 389.852539062 64.9990234375 373.626953125 c 2
69.515625 376.138671875 m 0
 64.1875 388.676757812 76.55078125 398.06640625 85.6923828125 393.19921875 c 1
 86.3173828125 394.375 92.0634765625 349.490234375 69.515625 376.138671875 c 0
EndSplineSet
Validated: 524325
EndChar

